<svg enable-background="new 0 0 500 286.25" height="286.25" viewBox="0 0 500 286.25" width="500" xmlns="http://www.w3.org/2000/svg"><path d="m258.535 239.27c-.672.069-1.71-.388-2.016.211-.346.677 1.063 1.399.823 2.119-.331.99-1.509 1.461-2.264 2.193-.646-.215-1.479-.143-1.938-.641-.588-.642-.338-1.78-.897-2.445-.651-.773-1.577-1.376-2.553-1.652-1.077-.305-2.32.391-3.36-.02-2.09-.822-3.573-2.889-5.719-3.557-1.037-.322-2.099.998-3.166.787-.915-.183-1.402-2.443-2.105-1.834-1.212 1.049.044 3.586-1.153 4.651-.875.776-2.333-.735-3.488-.521-1.484.273-2.953 2.908-4.097 1.929-1.504-1.289.944-4.573-.532-5.894-1.665-1.486-4.571.137-6.698-.563-.527-.173.434-1.334-.02-1.649-.934-.648-2.211-.681-3.352-.688-.672-.004-1.576.072-1.905.652-.852 1.5-1.309 3.277-1.307 5.002.005 2.607 1.362 5.11 1.327 7.723-.016 1.171-1.379 2.027-1.477 3.195-.104 1.241 1.101 2.4.907 3.635-.297 1.887-2.254 3.344-2.311 5.253-.03 1.06 2.039 1.358 2.083 2.418.037.882-1.014 1.913-1.903 1.862-2.209-.123-3.127-.955-4.064-1.307-2.183-.82-4.937-2.131-6.938-.939-1.462.869.838 3.605-.008 5.074-1.047 1.817-3.633 2.23-5.081 3.756-.73.769-.829 1.951-1.257 2.922-.43.977-.048 7.832-.127 8.339-.141.89-.748 1.801-1.547 2.231-.82.442-2.059.68-2.806.119-.908-.681-.4-2.398-1.244-3.154-.45-.404-1.275.808-1.77.455-.744-.529-.188-2.559-1.101-2.5-1.522.098-2.104 2.549-3.611 2.799-1.509.248-3.101-.594-4.34-1.484-1.199-.861-1.423-2.715-2.648-3.539-.546-.366-1.706-.152-1.93.464-.27.743 1.097 1.39.973 2.171-.236 1.483-.73 3.197-1.965 4.068-.827.583-2.117-1.085-2.988-.572-.727.428.341 1.953-.295 2.508-.55.48-1.521-.688-2.17-.354-.992.515-1.117 2.1-2.124 2.585-.427.204-.107-1.052-.491-1.325-1.229-.876-2.607-1.68-4.095-1.948-5.068-.913-10.317-.594-15.372-1.569-.455-.088.501-1.03.185-1.362-.504-.531-1.686-.063-2.108-.66-.33-.465.814-1.188.473-1.644-.637-.852-2.976-.453-2.829-1.504.165-1.17 2.414-.635 3.249-1.477.544-.548.835-1.586.468-2.266-.301-.555-1.422.099-1.88-.342-.951-.91-.962-2.604-2.02-3.391-1.026-.762-2.724-.115-3.743-.891-1.864-1.41-2.064-2.396-3.148-3.342-1.083-.942-1.943-2.229-3.251-2.832-1.341-.613-3.428.441-4.381-.678-1.419-1.666-.581-4.421-1.605-6.352-.333-.629-1.677.021-2.069-.571-1.102-1.671-.42-4.45-2.032-5.644-1.339-.991-3.757 1.55-4.998.438-2.019-1.808-1.423-5.313-2.943-7.552-.336-.496-1.009 1.36-1.5 1.012-1.172-.841-1.096-2.813-2.241-3.69-.524-.401-1.053.383-2.16.317-.203-1.886-.885-3.78-.611-5.653.202-1.385.968-2.736 1.981-3.709.321-.31.737.946 1.127.729.853-.479 1.788-1.372 1.747-2.343-.07-1.66-1.811-2.914-2.036-4.562-.065-.48 1.263-.141 1.33-.619.187-1.353-1.546-2.979-.681-4.039.681-.834 1.988 1.435 3.032 1.153 1.116-.298 1.279-2.034 2.297-2.575.692-.367 1.854.709 2.352.106.64-.772-.414-2.113.042-3.005.368-.725 2.117-.411 2.111-1.219-.01-1.453-2.384-2.375-2.145-3.809.246-1.473 2.714-1.686 3.292-3.061.25-.596-1.475.313-1.951-.127-.592-.549-1.128-1.647-.684-2.32.446-.674 2.035.41 2.415-.299.536-1.001-1.029-2.396-.447-3.369.603-1.007 2.423-.536 3.271-1.35.862-.828 1.596-2.058 1.508-3.24-.154-2.088-1.742-3.85-2.177-5.896-.148-.699.081-1.492.479-2.084.428-.638 1.871-.617 1.848-1.382-.027-.929-1.704-1.116-1.945-2.015-.312-1.157.762-2.414.441-3.567-.136-.489-1.483.237-1.51-.269-.059-1.114.889-2.051 1.333-3.074l-.037.134c1.448-.513 2.81-1.62 4.343-1.534.748.041.518 1.815 1.267 1.85.84.035 1.004-1.648 1.84-1.711.953-.068 1.897.66 2.502 1.394.225.271-.978.629-.678.82.848.542 2 .948 2.959.638.775-.251.582-1.73 1.337-2.029 1.151-.459 2.758.784 3.723.012.988-.791-.004-2.76.86-3.683.868-.926 2.528-1.731 3.647-1.131 1.002.538-.058 2.371.498 3.358.292.52 1.11.563 1.71.563 2.92.009 6.025.513 8.745-.541 1.146-.442.512-2.545 1.398-3.39.72-.688 1.971-1.042 2.91-.708 1.117.396 1.413 1.967 2.414 2.601.695.438 1.834-.104 2.431.456.365.347-.754 1.081-.41 1.446.493.523 1.461.646 2.135.389.992-.383 1.354-1.81 2.367-2.125.669-.213 1.493 1.286 1.961.77.557-.616-1.274-2.538-.448-2.441 1.759.203 2.736 2.41 4.436 2.904.502.146.114-1.238.595-1.441.59-.248 1.257.252 1.88.399 1.528.362 3.006 1.231 4.573 1.128.823-.053 1.327-2.118 1.92-1.553.641.615-1.62 1.906-.945 2.484 1.124.963 3.035-.011 4.426.5.626.229.581 1.709 1.235 1.568.604-.128-.294-1.316.028-1.84.544-.885 1.438-1.561 2.364-2.033 1.247-.643 3.394-.005 4.022-1.25.741-1.468-1.1-3.203-.947-4.836.044-.48 1.104.061 1.433-.297.773-.842.51-3.317 1.614-3.016 2.516.689 3.555 3.996 5.924 5.08.797.363 1.592-1.894 2.265-1.336 1.367 1.135.794 3.641 2.039 4.901.512.519 1.377-.491 2.064-.737l.025-.15c.321.938 1.432 1.939.964 2.816-.505.944-2.872.022-3.045 1.078-.229 1.385 2.362 2.148 2.283 3.551-.237 4.231-3.204 8.082-3.173 12.321.01 1.321 2.935.985 3.281 2.261.273 1.008-1.895 1.375-2.013 2.411-.116 1.013.749 1.942 1.427 2.707 1.273 1.435 2.448 3.423 4.338 3.793 1.373.271 2.141-2.335 3.539-2.245 1.204.077 1.399 2.068 2.463 2.633.927.492 2.338-.344 3.133.336.554.476.276 1.818-.191 2.021-.478.206-2.525-.066-1.908.063 1.227.265 2.714-.248 3.734.479.846.602.326 2.17 1.043 2.917.505.524 1.496.728 2.158.416.857-.399.784-2.229 1.732-2.237 1.792-.021 3.45 1.139 4.916 2.158.307.217-.638 1.104-.264 1.085 2.238-.104 4.734-2.651 6.577-1.386 1.588 1.091-1.164 4.066-.23 5.747 1.376 2.475 3.951 4.235 6.493 5.513.609.305.441-1.668 1.121-1.695 1.637-.07 3.061 1.525 4.697 1.441 1.272-.063 2.092-1.563 3.332-1.854.59-.137 1.456.123 1.688.68.24.578-1.027 1.232-.678 1.751.52.763 1.883.435 2.573 1.044.531.468.913 1.249.827 1.945-.09.721-.59 1.543-1.287 1.761-.779.243-1.85-1.241-2.378-.619-.838.987.163 2.683-.373 3.856-.251.552-1.397.146-1.692.673-.239.426.811.94.554 1.356-.823 1.329-3.159 1.709-3.401 3.254-.146.938 2.105-.42 2.866.153.5.379-.692 1.479-.198 1.861 1.237.96 3.186.571 4.473 1.46.541.373.281 1.275.422 1.914z" style="shape-rendering:geometricPrecision;image-rendering:optimizeQuality;fill:#168e33;stroke:#fff;stroke-width:.2415;stroke-linejoin:bevel"/></svg>