<svg enable-background="new 0 0 500 286.25" height="286.25" viewBox="0 0 500 286.25" width="500" xmlns="http://www.w3.org/2000/svg"><path d="m374.208 199.008c-.688 1.188-2.164 2.199-2.061 3.568.165 2.224 2.334 3.906 2.776 6.094.14.682-1.829 1.434-1.189 1.716 1.249.554 3.254-1.518 4.078-.435.926 1.219-.08 3.256-1.007 4.474-.595.784-2.277-.116-2.89.655-.666.841.457 2.338-.171 3.209-.438.609-1.789-.426-2.257.163-.418.526.62 1.254.6 1.926-.012.431-1.036.837-.688 1.097.692.518 1.74.522 2.581.312 1.746-.443 3.142-2.431 4.935-2.226 1.107.125 1.376 1.861 1.531 2.959.179 1.26-1.21 2.666-.575 3.769.396.688 1.504-1.229 2.229-.896 1.041.481.878 2.418 1.95 2.827 1.459.558 3.127-.467 4.682-.297.626.069 1.427.39 1.604.99.292.979-1.149 2.347-.4 3.047.779.729 2.217-.901 3.182-.444 1.385.654 1.563 3.156 3.075 3.404 1.694.279 2.984-1.968 4.697-2.122.62-.057.382 1.324.931 1.617.85.455 2.314-.371 2.864.42.563.804-1.274 2.21-.563 2.883 1.222 1.149 3.639.095 4.903 1.199 1.778 1.558 2.346 4.104 3.52 6.155-2.895 1.728-5.329 4.816-8.685 5.182-2.297.251-3.612-3.656-5.921-3.593-1.844.05-2.378 2.896-3.946 3.86-.714.438-1.8.549-2.521.115-1.383-.832-1.814-2.845-3.252-3.582-2.97-1.527-6.234-3.338-9.563-3.019-1.77.169-1.786 3.178-3.208 4.237-.816.608-2.372-.351-3.036.425-1.355 1.577-1.413 4.37-1.302 4.631.108.26.527.582.328.778-1.029 1.01-2.604 1.367-3.594 2.418-.271.289.438.84.226 1.174-1.018 1.587-3.021 2.521-3.71 4.273-.354.896 1.184 1.81.938 2.741-.184.696-1.686.324-1.921 1.005-.772 2.238-.231 4.772-.871 7.055-.206.74-.816 1.529-1.573 1.689-.719.153-1.811-.216-2.009-.924-.499-1.773.494-3.704.195-5.523-.3-1.822-.229-4.531-1.959-5.187-2.428-.919-5.063 1.892-7.637 1.554-2.156-.279-3.521-2.771-5.635-3.283-1.09-.265-2.352 1.924-3.163 1.15-1.573-1.501-.451-4.753-2.104-6.169-1.216-1.042-3.301.782-4.81.241-1.69-.607-2.402-2.957-4.128-3.452-.774-.222-.811 1.714-1.609 1.801-3.318.354-3.689-2.375-4.141-1.19-.614 1.621-.897 3.414-1.849 4.869-1.129 1.732-2.658 3.211-4.268 4.519-.363.295-1.016.343-1.403.085-.683-.45-.646-1.862-1.459-1.975-.602-.082-.082 1.66-.688 1.683-5.821.188-11.718-.028-17.441-1.095-2.842-.525-5.38-2.166-7.88-3.607-1.359-.785-2.788-1.688-3.608-3.021-.336-.547 1.024-1.307.637-1.814-.354-.463-1.205.724-1.703.417-.746-.458-.549-1.854-1.317-2.272-.565-.311-1.337.897-1.867.531-.812-.563-.434-2.113-1.235-2.684-.756-.536-2.041.384-2.783-.174-.523-.393.554-1.742-.063-1.957-1.433-.494-3.173-.289-4.541.365-1.014.485-.887 2.379-1.95 2.746-1.547.529-3.414.299-4.893-.396-2.236-1.051-3.587-3.506-5.789-4.629-2.068-1.051-4.954-.959-5.6-1.172l3.449-4.533c.654-.439 1.203-1.506 1.969-1.314 1.146.282 1.396 2.622 2.563 2.438 1.051-.164.213-2.327 1.028-3.006.838-.695 2.198-.883 3.231-.537.984.33 1.104 2.676 2.078 2.316 1.352-.496.954-2.832 2.004-3.813.625-.588 1.863.08 2.541-.444.949-.737.853-2.524 1.938-3.045 1.259-.601 3.046.914 4.189.116.941-.656-.387-2.688.515-3.399.688-.545 1.602 1.437 2.411 1.091.857-.369.402-1.934 1.068-2.58.564-.55 1.553-.996 2.271-.67.615.279.085 1.463.551 1.957.662.703 1.634 1.106 2.566 1.361.479.13 1.121.091 1.47-.262.555-.561.149-2.108.938-2.17 1.437-.104 2.504 1.549 3.918 1.813.805.15 1.635-.29 2.375-.634.765-.354 1.818-.641 2.075-1.438.22-.685-1.607-1.541-.995-1.912 1.646-.994 4.057.062 5.701-.931.855-.516.048-2.136.674-2.909.421-.521 1.511.106 1.979-.369.894-.905 1.547-2.144 1.729-3.396.104-.707-.257-1.753-.954-1.921-.729-.177-1.135 1.181-1.884 1.235-.479.035.961-.691.858-1.158-.181-.816-1.919-1.233-1.547-1.982.646-1.298 2.799-1.18 3.688-2.32.419-.537.19-1.547-.299-2.021-.738-.716-2.617-.093-2.902-1.082-.438-1.526.311-3.326 1.264-4.603.532-.719 2.6.295 2.622-.598.027-1.214-2.604-1.406-2.547-2.619.073-1.529 2.153-2.25 2.846-3.615.215-.422-.685-1.096-.311-1.387 2.085-1.621 5.315-1.734 6.97-3.793.845-1.05-.477-2.65-.729-3.974-.352-1.833-1.221-3.632-1.091-5.491.097-1.375 1.947-2.395 1.736-3.754-.204-1.318-2.521-1.591-2.77-2.9-.147-.789 1.663 1.069 2.335.631 1.237-.813 2.636-2.276 2.394-3.732-.247-1.464-2.984-1.393-3.492-2.786-.425-1.169.799-2.354 1.196-3.53.436.332.883 1.342 1.305.996.706-.58.208-1.881.703-2.646.251-.389.879-.631 1.309-.463.473.184.303 1.312.807 1.281 1.126-.063 1.905-1.416 3.028-1.492 1.319-.092 2.772 1.81 3.835 1.023 1.195-.883.03-3.072.715-4.387.274-.527 1.157-.348 1.753-.354 3.045-.029 6.135-.281 9.129.248 2.782.491 5.339 1.854 8.008 2.781-.261.988.192 2.637-.775 2.964-1.22.414-2.603-2.346-3.563-1.491-1.258 1.119-1.669 3.898-.416 5.024 1.79 1.606 4.803.543 7.159 1.036.56.117-1.327-.313-1.715.105-.479.52.06 1.49-.312 2.09-.237.387-1.255.035-1.276.488-.09 2.006.223 4.088.985 5.944.394.963 2.2 1.065 2.316 2.101.082.726-1.518.412-1.97.987-.418.533-.822 1.486-.379 1.999 1.276 1.477 2.958 2.961 4.896 3.225 1.124.152 2.037-1.215 2.575-2.207.391-.711-.369-1.685-.053-2.43.224-.529 1.479-.343 1.473-.918-.015-1.232-.753-2.412-1.521-3.378-.762-.952-3.954-1.53-2.933-2.196 1.136-.733 2.269-1.471 3.401-2.207.868-.563 2.277-.158 3.073.506.735.617.268 1.979.826 2.759.564.79 1.943.837 2.372 1.71.446.916-.55 2.175-.041 3.06.39.683 1.726.173 2.232.771.781.918.168 2.945 1.297 3.375.846.322.366-2.029 1.173-2.432.501-.25 1.056.771 1.032 1.329-.061 1.573-2.241 3.319-1.264 4.562 1.662 2.113 5.488 1.349 7.405 3.234 1.449 1.418 1.181 3.856 1.766 5.783z" style="shape-rendering:geometricPrecision;image-rendering:optimizeQuality;fill:#168e33;stroke:#fff;stroke-width:.2417;stroke-linejoin:bevel"/></svg>