<svg enable-background="new 0 0 500 286.25" height="286.25" viewBox="0 0 500 286.25" width="500" xmlns="http://www.w3.org/2000/svg"><path d="m296.594 45.54c.674.401.422 1.837 1.18 2.036.854.224 1.934-.355 2.414-1.096.754-1.16-.371-3.583.931-4.044 2.487-.882 5.573-.388 7.863.922 3.075 1.758 4.997 5.034 7.284 7.74.313.373.765 1.041.435 1.399-.711.773-2.312.391-2.893 1.269-.438.665.8 1.601.502 2.342-.238.595-1.563.175-1.76.788-.175.542 1.272.789 1.084 1.329-.446 1.271-1.409 2.503-2.631 3.077-1.187.557-2.808-.659-3.938.007-.894.527-.26 2.258-1.046 2.936-.454.393-1.172-.801-1.72-.553-1.304.589-2.543 1.563-3.255 2.805-.339.591.95 1.458.511 1.98-.355.426-.811-1.005-1.364-.963-.473.035-.869.652-.87 1.126-.002 1.18.058 2.57.856 3.44.477.519 1.577-.687 2.104-.22 1.538 1.36 2.536 6.698 3.089 5.968.26-.343.825-2.454 1.936-2.726 1.282-.315 3.033-.525 3.941.434 1.431 1.512.668 4.35 2.057 5.904.799.893 2.689-.408 3.575.399 3.589 3.272 6.862 7.038 9.231 11.277 1.46 2.615.674 6.069 1.972 8.771-2.445-.766-4.786-2.546-7.337-2.295-1.033.102.234 2.394-.555 3.068-2.806 2.391-6.769 3.155-9.563 5.559-.51.439 1.622.953 1.305 1.546-.571 1.064-2.671.72-3.126 1.84-.362.889 2.174 2.08 1.336 2.553-1.121.635-2.379-1.198-3.669-1.235-.894-.026-1.585 1.193-2.469 1.056-.517-.081.087-1.583-.43-1.511-1.275.18-1.999 2.125-3.281 2.035-.974-.067-.88-1.862-1.706-2.382-.741-.466-1.846.1-2.605-.334-.926-.529-1.209-1.868-2.145-2.379-.771-.422-1.96.33-2.638-.236-.722-.602-.054-2.202-.857-2.686-1.089-.655-2.894.754-3.813-.123-1.27-1.212-.286-3.842-1.582-5.026-1.379-1.26-3.637-1.898-5.43-1.381-2.399.693-3.597 3.647-5.889 4.646-.779.339-1.886-.332-2.32-1.063-.527-.889.375-2.211-.151-3.101-.372-.63-1.371-.841-2.089-.692-.979.205-1.957.82-2.508 1.655-.404.616.446 1.67-.05 2.219-.909 1.003-2.271 1.783-3.626 1.84-1.142.048-1.912-1.463-3.05-1.564-1.509-.134-2.965 1.155-4.456.895-.757-.132-.607-2.221-1.309-1.901-2.786 1.279-4.703 3.945-7.153 5.789-.371.279-.859.757-1.28.559-.621-.292-.767-1.138-1.151-1.707.06-.694.752-1.691.177-2.081-1.626-1.101-3.774-1.097-5.665-1.635-.35-.099-1.224.047-1.057-.276.363-.7 1.736-.621 1.917-1.386.125-.522-1.459-.282-1.391-.813.077-.608 1.252-.391 1.608-.889.831-1.161 1.936-2.463 1.804-3.883-.099-1.075-2.104-1.167-2.366-2.214-.449-1.791.788-3.715.423-5.526-.223-1.105-.956-2.569-2.077-2.669-1.272-.113-1.87 2.076-3.142 2.202-1.16.115-1.96-1.454-3.118-1.581-.896-.098-1.63 1.005-2.531.957-.708-.038-1.575-.503-1.767-1.186-.227-.807 1.125-1.648.755-2.398-.395-.802-1.859-.409-2.463-1.069-.285-.311.741-.997.378-1.207-1.345-.78-3.216-.33-4.514-1.189-.447-.296.607-1.104.346-1.571-.392-.7-2.212-.594-1.986-1.363.304-1.035 2.232-.656 2.84-1.544.351-.513-.779-1.196-.566-1.78.157-.429 1.067.056 1.334-.313.427-.586.7-1.454.445-2.133-.436-1.163-2.032-1.699-2.337-2.903-.242-.953 1.076-1.85.884-2.813-.26-1.301-2.168-2.048-2.117-3.375.039-1.02 1.551-1.329 2.326-1.992 1.875 1.093 3.455 3.341 5.622 3.279 1.583-.046 1.657-3.116 3.186-3.528 1.722-.463 3.57.54 5.199 1.266.903.403 1.203 1.845 2.178 2.022.55.1.386-1.862.793-1.48.797.748.001 2.633.973 3.137 1.079.56 2.901.234 3.564-.784.765-1.176-.929-2.934-.322-4.196.471-.979 2.22-.554 2.979-1.331.338-.346-.663-1.717-.275-1.428 1.146.854 1.403 2.838 2.762 3.281 1.322.431 2.646-1.129 4.035-1.061.609.031.658 1.291 1.271 1.325 1.158.065 3.271.09 3.312-1.067.058-1.68-2.363-2.456-3.133-3.949-.277-.539.476-1.298.158-1.816-.313-.516-1.748-.077-1.683-.678.164-1.487 2.308-2.422 2.19-3.911-.095-1.219-2.318-1.334-2.688-2.5-.223-.708 1.395-1.044 1.337-1.784-.099-1.239-1.616-2.064-1.739-3.3-.214-2.133 1.188-4.28.774-6.382-.213-1.085-1.899-1.27-2.472-2.217-.429-.709-.234-1.643-.353-2.464 1.528.431 3.271-.399 4.759.146 2.746 1.009 4.7 3.993 7.601 4.393 2.741.378 5.62-3.659 7.995-2.239 2.803 1.675.742 7.443 3.535 9.135 2.646 1.604 6.313-2.599 9.176-1.427 2.064.845 2.494 3.977 2.512 6.209.008 1.082-2.53 1.063-2.445 2.143.08 1.015 1.7 1.387 2.721 1.399.854.009 1.74-.611 2.187-1.34.603-.987.177-2.366.701-3.394.528-1.036 1.196-2.457 2.353-2.582 1.823-.2 3.633.827 5.206 1.762z" style="shape-rendering:geometricPrecision;image-rendering:optimizeQuality;fill:#168e33;stroke:#fff;stroke-linecap:round;stroke-linejoin:round"/></svg>