<svg enable-background="new 0 0 500 286.25" height="286.25" viewBox="0 0 500 286.25" width="500" xmlns="http://www.w3.org/2000/svg"><path d="m34.012 130.034c-.17-.66.024-1.56-.51-1.979-1.501-1.177-4.243-.8-5.164-2.47-.604-1.096 1.673-1.948 2.071-3.133.133-.395-.36-.775-.658-1.068-.596-.584-1.156-1.444-1.988-1.529-.812-.083-1.447 1.436-2.191 1.102-.637-.287.51-1.646-.021-2.097-1.228-1.04-3.153-.866-4.504-1.737-.912-.588-1.152-1.946-2.081-2.508-.337-.205-.732.93-1.001.64-.502-.542.203-1.782-.42-2.176-1.193-.753-3.118.209-4.173-.728-.576-.511 1.463-1.444 1.02-2.07-1.282-1.804-4.008-2.193-5.316-3.977-.717-.98-.509-2.447-.265-3.638.217-1.058 1.524-1.746 1.592-2.824.076-1.207-.461-2.469-1.2-3.426-.618-.802-2.018-.724-2.623-1.536-.552-.74.15-2.113-.548-2.717-.782-.677-2.15.043-3.077-.416-.643-.318-1.605-1.102-1.271-1.736.693-1.314 3.345-1.185 3.585-2.65.3-1.834-3.383-3.551-2.318-5.074 1.101-1.577 4.286-1.088 5.768.137 1.42 1.172-.18 4.011.984 5.438.811.992 2.624-.019 3.817.441.478.183.964.852.78 1.329-.286.743-2.181.755-1.87 1.489.621 1.463 3.122 1.487 3.75 2.947.386.897-1.298 1.628-1.354 2.606-.049.844.383 1.805 1.065 2.304.809.591 2.56 1.551 2.943.625 1.022-2.468-.554-5.43.121-8.015.162-.618 1.405 1.17 1.797.667.525-.674-.62-1.738-.335-2.543.442-1.249 1.578-2.13 2.367-3.194s-.459.195 0 0c.46-.196 1.213-.116 1.378-.586.333-.947-.696-2.197-.11-3.012.467-.65 1.751.301 2.397-.169 1.229-.896 1.534-2.754 2.791-3.611.447-.304 1.147 1.161 1.456.717 1.076-1.55.171-4.394 1.781-5.377 3.531-2.157 8.506-1.211 9.287-1.386.78-.173 1.587-.788 2.339-.521 1.026.364 1.388 2.581 2.411 2.207 1.361-.497.951-2.889 2.047-3.836 1.249-1.08 2.926-1.938 4.575-1.896.74.019.301 2.476.897 2.036.933-.689-.205-3.721.895-3.36 3.798 1.247 10.113 9.427 8.971 6.601-.117-.29-.515-.741-.352-.87l.352.87c.641.562 1.087 1.523 1.923 1.685 1.112.214 2.206-.795 3.331-.671 1.934.213 4.17.337 5.596 1.66.764.708-.793 2.102-.472 3.093.194.599 1.1.803 1.727.765 2.294-.139 4.512-1.67 6.775-1.278 1.104.192 1.873 1.663 1.889 2.784.033 2.354-1.62 4.493-1.754 6.843-.026.458 1.125-.107 1.345.294.428.784.505 1.804.277 2.669-.119.449-1.325.302-1.184.746.32 1.015 1.811 1.345 2.161 2.35.17.488-1.071.774-.901 1.263.18.516 1.221.121 1.541.563.888 1.228 1.449 2.689 1.864 4.146.127.448.067 1.069-.289 1.372-.333.283-1.312-.448-1.313-.011-.002.848 1.858 1.543 1.305 2.187-.552.644-1.513-1.035-2.358-.961-.691.06-2.066.773-1.623 1.307.731.879 2.435.076 3.346.767.972.738 1.229 2.114 1.842 3.171-.456 0-1.089-.359-1.369-.001-.491.628-.759 1.607-.466 2.351.201.509 1.324-.026 1.577.459.261.501.003 1.35-.49 1.628-1.343.757-3.666-.14-4.477 1.172-1.057 1.709 1.806 5.112.019 6.035-1.811.935-3.163-2.706-5.072-3.423-1.211-.456-2.631.38-3.885.057-.462-.12-.295-1.482-.708-1.245-.908.521-.859 2.028-1.714 2.635-1.654 1.175-3.875 1.367-5.542 2.524-.341.236.479 1.058.107 1.241-.881.437-2.366-.627-2.948.166-.804 1.095.337 2.812-.166 4.075-.383.964-1.263 1.992-2.294 2.102-1.064.114-1.739-1.498-2.806-1.562-1.007-.06-1.77 1.354-2.77 1.225-1.169-.151-1.764-1.908-2.942-1.969-2.62-.138-5.327.393-7.746 1.408-.523.22 1.035 1.24.594 1.597-.777.627-2.259-.354-2.982.336-.515.491 1.071 2.411.434 2.093-1.111-.553-.991-2.897-2.229-2.989-1.539-.114-2.349 2.308-3.876 2.536-1.155.168-2.112-.993-3.164-1.486z" style="image-rendering:optimizeQuality;shape-rendering:geometricPrecision;fill:#168e33;stroke:#fff;stroke-linecap:round;stroke-linejoin:round"/></svg>