<svg enable-background="new 0 0 500 286.25" height="286.25" viewBox="0 0 500 286.25" width="500" xmlns="http://www.w3.org/2000/svg"><path d="m184.535 23.901c.861 2.049 4.463.823 6.437 1.863.668.352.258 1.781.968 2.04 1.595.581 3.741 1.187 5.097.169 1.721-1.291.53-5.15 2.547-5.906 3.836-1.437 8.627 2.159 12.295.343 1.811-.896-1.187-3.96-.955-5.957.208-1.788 1.963-3.148 2.223-4.929.121-.827-.438-1.817-1.174-2.22-.436-.238-.669 1.02-1.161.94-.666-.108-1.436-.702-1.481-1.368-.062-.899.578-1.784 1.224-2.413.714-.697 1.662-1.369 2.663-1.382 1.979-.027 4.081.295 5.8 1.269.545.309-.651 1.341-.291 1.852.379.537 1.272.394 1.927.468.349.04.908.189 1.046-.131.323-.749-.376-1.757.065-2.442.389-.605 1.609-1.388 2.019-.795.715 1.037-1.097 3.221.039 3.777 1.489.728 3.124-1.635 4.769-1.422.733.095.049 1.646.616 2.121.502.42 1.486-.396 1.975.042.784.703 1.371 1.835 1.285 2.882-.079.971-1.579 1.417-1.711 2.383-.21 1.53.14 3.19.755 4.575s1.856 2.712 2.813 3.46c.957.749 2.036.411 2.695.852.66.441.808.281 1.033 1.638.225 1.356-.227 4.271.292 6.314.124.492 1.017.799 1.441.517 1.374-.912 1.655-3.585 3.303-3.669 2.559-.132 4.543 2.449 7.009 3.14.117.809-.076 1.727.347 2.426.569.932 2.241 1.114 2.452 2.183.41 2.069-.979 4.183-.769 6.283.122 1.216 1.626 2.028 1.726 3.249.059.728-1.547 1.059-1.323 1.755.362 1.147 2.567 1.261 2.661 2.461.113 1.465-2.01 2.387-2.172 3.849-.064.591 1.356.16 1.668.667.313.51-.434 1.257-.157 1.788.763 1.469 3.161 2.234 3.104 3.887-.04 1.139-2.134 1.115-3.28 1.05-.605-.033-.653-1.274-1.26-1.304-1.377-.068-2.688 1.468-3.999 1.044-1.347-.436-1.602-2.389-2.736-3.229-.384-.285.607 1.065.272 1.405-.753.764-2.486.346-2.952 1.31-.602 1.243 1.077 2.973.319 4.131-.657 1.002-2.462 1.323-3.532.771-.963-.496-.174-2.351-.964-3.088-.402-.376-.241 1.557-.786 1.458-.965-.175-1.262-1.594-2.158-1.991-1.613-.715-3.444-1.702-5.151-1.245-1.515.404-1.588 3.427-3.157 3.472-2.148.061-3.713-2.152-5.571-3.228-1.037-.32-2.294-.248-3.11-.958-1-.871-.94-2.606-1.959-3.456-.67-.559-1.958.242-2.601-.344-1.218-1.109-1.255-3.159-2.47-4.271-.558-.51-1.599-.412-2.275-.071-.458.23-.002 1.663-.472 1.458-1.211-.528-1.607-2.174-2.736-2.857-.482-.292-1.463-.337-1.69.179-.455 1.03.852 2.515.122 3.374-1.014 1.194-3.276.593-4.411 1.675-.459.438 1.091 1.078.891 1.68-.312.941-1.142 2.094-2.141 2.083-1.963-.023-3.688-2.99-5.47-2.173-1.423.653.672 3.261.015 4.677-.285.616-1.502-.791-2.023-.35-.627.533.108 1.797-.42 2.428-.498.591-1.661.179-2.22.715-.295.283.622 1.144.216 1.206-1.376.208-2.748-.757-4.133-.612-1.144.12-2.228 2.033-3.167 1.372-1.136-.799.403-3.245-.697-4.09-.772-.593-1.361 1.731-2.337 1.756-.765.019-.819-1.734-1.582-1.656-.886.09-.896 1.791-1.764 1.999-.547.131-.698-.88-1.048-1.32-.38-.82-.457-1.87-1.143-2.461-.532-.459-1.732.281-2.09-.323-2.643-4.456-4.553-9.313-6.473-14.12-.278-.694-.396-1.572-.063-2.239.391-.781 1.716-.859 2.022-1.675.388-1.031-.61-2.297-.152-3.298.479-1.042 1.605-1.747 2.668-2.192.353-.147.805 1.051.919.688.369-1.17-.454-2.55.026-3.68.335-.788 1.973-.591 2.146-1.427.249-1.201-1.629-2.388-1.125-3.507.412-.912 1.962-.649 2.964-.575.287.021-.617.599-.386.769.976.715 2.157 1.214 3.354 1.411.847.138 2.076.271 2.536-.449.793-1.244-.267-3.154.547-4.385.46-.696 1.782.193 2.503-.229.622-.363.722-1.245 1.084-1.867z" style="shape-rendering:geometricPrecision;image-rendering:optimizeQuality;fill:#168e33;stroke:#fff;stroke-width:.239;stroke-linejoin:bevel"/></svg>