<?xml version="1.0" encoding="utf-8"?>
<!-- Generator: Adobe Illustrator 15.0.0, SVG Export Plug-In . SVG Version: 6.00 Build 0)  -->
<!DOCTYPE svg PUBLIC "-//W3C//DTD SVG 1.1//EN" "http://www.w3.org/Graphics/SVG/1.1/DTD/svg11.dtd">
<svg version="1.1"
	 id="svg90" inkscape:version="0.92.4 (5da689c313, 2019-01-14)" sodipodi:docname="Blank_Czech.svg" xmlns:dc="http://purl.org/dc/elements/1.1/" xmlns:cc="http://creativecommons.org/ns#" xmlns:rdf="http://www.w3.org/1999/02/22-rdf-syntax-ns#" xmlns:svg="http://www.w3.org/2000/svg" xmlns:sodipodi="http://sodipodi.sourceforge.net/DTD/sodipodi-0.dtd" xmlns:inkscape="http://www.inkscape.org/namespaces/inkscape"
	 xmlns="http://www.w3.org/2000/svg" xmlns:xlink="http://www.w3.org/1999/xlink" x="0px" y="0px" width="500px" height="286.25px"
	 viewBox="2419 1384.875 500 286.25" enable-background="new 2419 1384.875 500 286.25" xml:space="preserve">
<g>
	
		<path id="path54" shape-rendering="geometricPrecision" image-rendering="optimizeQuality" fill="#C4C4C4" stroke="#FFFFFF" stroke-width="0.6548" stroke-linejoin="bevel" d="
		M2808.769,1471.484c-0.107,1.672,0.861,3.832-0.32,5.02c-0.865,0.869-2.382-1.751-3.478-1.202c-1.297,0.65-0.847,2.929-1.917,3.908
		c-0.677,0.618-1.989-0.199-2.729,0.342c-1.942,1.42-3.832,3.133-4.943,5.269c-0.473,0.909,0.875,2.015,0.634,3.011
		c-0.19,0.786-1.682,0.859-1.77,1.663c-0.165,1.501,1.498,2.937,1.104,4.395c-0.465,1.713-2.51,2.564-3.408,4.097
		c-0.929,1.582-2.323,3.319-2.007,5.126c0.302,1.717,3.384,2.084,3.576,3.816c0.157,1.433-2.258,1.966-2.789,3.306
		c-0.186,0.466,1.136,0.596,1.044,1.09c-0.273,1.435-2.18,2.456-1.996,3.908c0.2,1.589,1.442,3.292,2.968,3.778
		c1.102,0.351,2.137-2.782,2.898-1.912c1.023,1.168-1.247,3.268-0.513,4.638c0.424,0.792,1.707-0.996,2.578-0.785
		c1.976,0.479,3.438,2.46,5.453,2.737c0.953,0.132,1.538-2.146,2.366-1.657c2.376,1.404,3.071,4.818,5.426,6.262
		c1.194,0.731,2.817-0.665,4.187-0.372c1.086,0.231,1.668,2.022,2.765,1.86c0.85-0.125,0.062-2.489,0.913-2.404
		c1.702,0.17,2.521,2.73,4.22,2.917c1.262,0.139,1.907-2.191,3.172-2.106c1.902,0.128,4.131,1.002,5.067,2.665
		c0.813,1.441-1.236,3.304-0.804,4.901c0.31,1.144,1.562,2.151,2.742,2.263c0.806,0.075,0.91-2.338,1.563-1.861
		c1.535,1.117,1.458,3.594,2.738,4.994c0.662,0.726,2.009,0.4,2.764,1.027c1.531,1.269,3.219,2.643,3.911,4.506
		c0.286,0.771-1.374,1.147-1.502,1.96c-0.096,0.599,0.343,1.618,0.947,1.557c1.321-0.138,2.164-2.35,3.447-2.008
		c1.118,0.298,0.817,2.167,1.227,3.252c-0.425,1.075-0.183,2.842-1.271,3.228c-1.355,0.479-2.706-1.623-4.11-1.32
		c-0.736,0.159,0.312,1.706-0.209,2.252c-0.957,1.005-2.934,0.736-3.72,1.881c-0.432,0.626,1.163,1.297,1.021,2.042
		c-0.136,0.708-1.357,0.728-1.672,1.375c-0.249,0.513,0.114,1.136,0.17,1.705c-1.413,0.292-2.858,1.288-4.243,0.878
		c-1.126-0.332-1.244-2.058-2.175-2.772c-0.325-0.25-0.983-0.17-1.218,0.164c-0.52,0.743,0.096,2.254-0.733,2.623
		c-0.957,0.427-2.665-1.954-2.997-0.959c-0.452,1.366,1.882,2.37,2.056,3.8c0.091,0.739-0.646,1.629-1.38,1.761
		c-3.082,0.557-6.385-0.683-9.395,0.184c-0.776,0.223,1.157,1.511,0.872,2.268c-0.514,1.358-1.499,3.074-2.947,3.218
		c-1.105,0.109-0.854-2.375-1.904-2.739c-1.749-0.605-3.957,1.093-5.556,0.155c-1.074-0.633,0.747-3.611-0.496-3.712
		c-1.431-0.117-2.435,2.031-2.568,3.462c-0.152,1.633,2.115,2.966,1.813,4.58c-0.201,1.063-2.192,0.605-2.939,1.392
		c-1.021,1.073-0.969,2.971-2.112,3.915c-0.57,0.471-1.463-0.239-2.193-0.358c-1.573,0.303-4.301-0.637-4.718,0.909l-0.892,3.304
		c-0.135,0.502-0.887-0.548-1.329-0.819c-0.585-1.936-0.317-4.384-1.754-5.804c-1.918-1.895-5.745-1.128-7.408-3.248
		c-0.978-1.247,1.203-3.001,1.265-4.583c0.022-0.562-0.53-1.587-1.033-1.335c-0.806,0.403-0.329,2.766-1.173,2.442
		c-1.128-0.432-0.515-2.468-1.297-3.39c-0.509-0.601-1.845-0.088-2.235-0.772c-0.507-0.89,0.49-2.152,0.042-3.074
		c-0.428-0.876-1.808-0.922-2.372-1.716c-0.559-0.785-0.091-2.15-0.828-2.77c-0.795-0.668-2.204-1.075-3.074-0.509
		c-1.134,0.738-2.267,1.479-3.402,2.218c-1.022,0.668,2.171,1.248,2.933,2.206c0.771,0.969,1.507,2.153,1.521,3.393
		c0.007,0.578-1.248,0.39-1.473,0.921c-0.316,0.749,0.441,1.725,0.055,2.44c-0.54,0.996-1.452,2.371-2.576,2.218
		c-1.939-0.264-3.622-1.755-4.899-3.238c-0.443-0.516-0.039-1.472,0.38-2.008c0.452-0.578,2.052-0.264,1.97-0.994
		c-0.118-1.038-1.925-1.143-2.319-2.107c-0.762-1.867-1.075-3.959-0.984-5.974c0.02-0.453,1.039-0.103,1.275-0.488
		c0.37-0.604-0.165-1.58,0.313-2.101c0.386-0.422,2.274,0.012,1.715-0.106c-2.358-0.497-5.37,0.573-7.161-1.042
		c-1.251-1.13-0.843-3.923,0.417-5.047c0.961-0.856,2.344,1.914,3.563,1.499c0.972-0.331,0.518-1.985,0.776-2.977
		c0.134-1.136-0.042-2.354,0.4-3.407c0.127-0.302,0.858,0.916,0.78,0.599c-0.307-1.252-1.604-2.275-1.505-3.559
		c0.063-0.816,1.266-1.037,1.897-1.555c0.371-1.441,0.742-2.882,1.114-4.322c-0.376-0.903-0.287-2.212-1.129-2.705
		c-0.882-0.518-2.467,1.083-3.059,0.249c-0.534-0.757,1.94-1.35,1.66-2.23c-0.708-2.215-3.057-3.554-4.163-5.6
		c-0.944-1.748-1.279-3.764-1.921-5.646c0.055-0.519-0.141-1.133,0.162-1.557c0.515-0.722,2.253-0.75,2.106-1.624
		c-0.815-4.854-4.174-9.098-4.728-13.986c-0.12-1.055,2.251,0.785,3.175,0.265c0.814-0.458,0.278-2.037,1.01-2.616
		c2.684-2.127,3.581-1.859,3.499-3.003c-0.074-1.03-1.637-1.63-1.584-2.66c0.047-0.917,1.759-1.147,1.829-2.061
		c0.075-0.981-1.489-1.575-1.479-2.559c0.007-0.588,1.31-0.358,1.516-0.908c1.141-3.055,1.581-6.328,2.373-9.492
		c0.433,0.123,1.047,0.155,1.337-0.186c0.626-0.731,0.258-2.206,1.101-2.667c1.251-0.687,3.006,0.378,4.271-0.28
		c0.78-0.406,0.12-2.664,0.973-2.453c1.23,0.305,1.074,2.4,2.057,3.201c0.357,0.291,1.286-0.001,1.307-0.461
		c0.131-2.868,0.426-6.018-0.896-8.566c-0.784-1.51-3.646-0.738-4.647-2.112c-1.725-2.368-1.34-5.827-2.931-8.287
		c-0.754-1.167-3.171-0.657-3.688-1.946c-0.518-1.296,0.533-2.821,1.315-3.976c0.407-0.603,1.3-1.148,1.988-0.909
		c1.901,0.658,3.117,2.726,5.033,3.342c0.648,0.208,0.993-1.304,1.663-1.188c1.533,0.264,2.622,1.776,4.121,2.189
		c1.353,0.372,2.913-0.43,4.21,0.104c1.119,0.46,1.313,2.326,2.478,2.652c1.408,0.395,2.964-1.275,4.327-0.746
		c0.736,0.286-0.635,1.738-0.156,2.368c1.472,1.93,3.251,3.94,5.554,4.71c1.739,0.582,4.158-2.388,5.403-1.043
		c1.67,1.803-0.116,4.968,0.448,7.36c0.161,0.686,0.289-1.495,0.83-1.943c0.491-0.407,1.253-0.344,1.889-0.312
		c0.806,0.04,1.789-0.037,2.362,0.529C2808.63,1469.543,2807.875,1471.479,2808.769,1471.484L2808.769,1471.484z"/>
	
		<path id="path56" shape-rendering="geometricPrecision" image-rendering="optimizeQuality" fill="#C4C4C4" stroke="#FFFFFF" stroke-width="0.6548" stroke-linejoin="bevel" d="
		M2807.991,1468.915c0.636,0.628-0.12,2.564,0.773,2.568 M2805.629,1468.386c0.807,0.04,1.789-0.038,2.362,0.529 M2803.741,1468.698
		c0.491-0.407,1.252-0.344,1.888-0.312 M2802.911,1470.641c0.161,0.686,0.288-1.495,0.83-1.943 M2802.463,1463.281
		c1.669,1.803-0.117,4.968,0.448,7.361 M2797.059,1464.325c1.739,0.582,4.158-2.389,5.404-1.044 M2791.505,1459.614
		c1.471,1.931,3.251,3.941,5.554,4.711 M2791.662,1457.246c0.735,0.286-0.636,1.738-0.157,2.368 M2787.334,1457.992
		c1.408,0.395,2.965-1.276,4.328-0.746 M2784.857,1455.339c1.118,0.46,1.313,2.326,2.477,2.652 M2780.646,1455.234
		c1.354,0.373,2.913-0.43,4.21,0.105 M2776.525,1453.045c1.532,0.264,2.622,1.776,4.121,2.189 M2774.862,1454.234
		c0.649,0.208,0.992-1.304,1.663-1.189 M2769.828,1450.892c1.902,0.658,3.118,2.726,5.034,3.342 M2767.841,1451.801
		c0.407-0.603,1.3-1.148,1.987-0.909 M2766.525,1455.777c-0.518-1.296,0.533-2.82,1.315-3.976 M2770.213,1457.724
		c-0.754-1.167-3.172-0.657-3.688-1.946 M2773.144,1466.011c-1.726-2.369-1.34-5.828-2.931-8.288 M2777.791,1468.124
		c-0.784-1.51-3.646-0.738-4.647-2.113 M2778.686,1476.689c0.132-2.867,0.427-6.018-0.895-8.565 M2777.38,1477.151
		c0.357,0.291,1.286-0.001,1.306-0.462 M2775.321,1473.95c1.231,0.305,1.076,2.4,2.059,3.201 M2774.35,1476.403
		c0.78-0.406,0.12-2.663,0.972-2.453 M2770.08,1476.683c1.251-0.687,3.006,0.378,4.27-0.28 M2768.979,1479.351
		c0.626-0.731,0.258-2.206,1.102-2.667 M2767.642,1479.537c0.434,0.123,1.047,0.155,1.337-0.186"/>
	
		<path id="path58" shape-rendering="geometricPrecision" image-rendering="optimizeQuality" fill="#C4C4C4" stroke="#FFFFFF" stroke-width="0.6548" stroke-linejoin="bevel" d="
		M2885.337,1565.083c-0.978-0.251-2.894,0.252-2.934-0.751l-0.128-3.234c-0.049-1.229-2.39-0.913-3.228-1.815
		c-1.175-1.267-1.014-3.797-2.606-4.473c-2.01-0.854-4.408,1.112-6.53,0.592c-1.404-0.343-1.815-2.427-3.158-2.963
		c-0.674-0.27-1.257,0.969-1.981,0.906c-0.458-0.038-0.307-1.193-0.762-1.144c-3.321,0.354-6.441,2.638-9.76,2.261
		c-1.296-0.146-0.48-2.887-1.598-3.551c-1.205-0.718-2.81,0.063-4.214,0.095c-0.408-1.077-0.109-2.936-1.226-3.231
		c-1.281-0.339-2.122,1.858-3.443,1.994c-0.603,0.062-1.041-0.952-0.946-1.546c0.129-0.808,1.788-1.182,1.501-1.946
		c-0.691-1.853-2.377-3.218-3.906-4.479c-0.755-0.622-2.099-0.299-2.762-1.02c-1.278-1.393-1.201-3.854-2.734-4.963
		c-0.653-0.474-0.756,1.924-1.563,1.849c-1.178-0.109-2.429-1.111-2.738-2.248c-0.432-1.589,1.615-3.438,0.803-4.87
		c-0.935-1.652-3.161-2.521-5.061-2.647c-1.264-0.084-1.91,2.229-3.168,2.093c-1.697-0.185-2.517-2.73-4.216-2.899
		c-0.852-0.084-0.065,2.264-0.911,2.389c-1.098,0.161-1.678-1.619-2.763-1.849c-1.367-0.291-2.989,1.097-4.183,0.369
		c-2.351-1.434-3.044-4.826-5.419-6.222c-0.827-0.486-1.412,1.778-2.365,1.647c-2.012-0.276-3.473-2.245-5.444-2.721
		c-0.871-0.21-2.153,1.566-2.576,0.781c-0.733-1.363,1.534-3.448,0.512-4.61c-0.761-0.864-1.795,2.249-2.895,1.9
		c-1.524-0.482-2.764-2.175-2.966-3.753c-0.183-1.443,1.722-2.458,1.994-3.883c0.094-0.491-1.228-0.62-1.042-1.084
		c0.531-1.331,2.943-1.861,2.786-3.284c-0.19-1.721-3.271-2.085-3.572-3.791c-0.316-1.796,1.077-3.523,2.005-5.095
		c0.898-1.522,2.939-2.368,3.404-4.07c0.396-1.448-1.268-2.876-1.103-4.367c0.088-0.8,1.578-0.872,1.768-1.653
		c0.24-0.99-1.105-2.089-0.633-2.992c1.111-2.123,2.997-3.824,4.937-5.235c0.739-0.539,2.052,0.274,2.728-0.341
		c1.068-0.972,0.619-3.237,1.914-3.883c1.095-0.546,2.61,2.058,3.474,1.194c1.182-1.18,0.214-3.326,0.321-4.987
		c1.771,0.007,2.959-2.056,4.663-2.529c2.265-0.629,4.671-0.841,7.017-0.72c0.789,0.041,1.314,1.472,2.049,1.187
		c1.904-0.74,3.646-2.14,4.774-3.837c0.56-0.843-1.222-2.961-0.209-3.027c1.858-0.119,4.167,1.014,4.869,2.73
		c0.672,1.644-2.012,3.313-1.68,5.058c0.232,1.232,2.511,1.085,3.06,2.212c0.489,1.006,0.407,2.512-0.348,3.341
		c-0.665,0.731-2.146-0.265-2.961,0.296c-0.709,0.487-0.222,1.935-0.949,2.395c-2.376,1.503-6.782,0.562-7.833,3.163
		c-0.857,2.128,2.748,3.717,4.421,5.295c0.514,0.484,1.308,0.947,1.986,0.75c0.627-0.181,0.418-1.586,1.068-1.637
		c0.833-0.065,1.585,0.724,2.081,1.392c1.517,2.04,2.719,4.304,3.848,6.58c0.409,0.823,0.032,2.065,0.737,2.657
		c0.941,0.791,2.586,0.226,3.573,0.958c0.512,0.38-0.13,1.396,0.271,1.892c0.809,0.998,1.851,2.029,3.112,2.282
		c1.299,0.26,2.771-0.154,3.874-0.882c1.043-0.687,1.154-2.293,2.126-3.075c1.03-0.829,2.326-1.509,3.651-1.574
		c1.103-0.053,2.166,1.884,3.068,1.251c0.917-0.643,0.673-2.515-0.068-3.353c-0.697-0.787-2.255,0.262-3.156-0.286
		c-0.472-0.287-0.358-1.21-0.026-1.647c0.559-0.737,1.454-1.555,2.376-1.449c1.482,0.171,3.005,0.994,3.906,2.175
		c1.052,1.382,0.467,3.606,1.537,4.972c0.85,1.085,2.369,1.862,3.747,1.767c0.777-0.054,0.354-1.692,1.021-2.093
		c0.693-0.417,1.844-0.542,2.432,0.013c0.792,0.75-0.011,2.54,0.9,3.143c1.275,0.842,3.297-0.369,4.57,0.476
		c0.771,0.511-0.215,1.988,0.305,2.753c0.765,1.126,1.938,2.11,3.253,2.486c0.482,0.139-0.036-1.157,0.331-1.565
		c0.41-0.454,1.602-0.096,1.705-0.697c0.111-0.639-1.985-1.357-1.336-1.423c2.436-0.248,4.987,0.018,7.299,0.821
		c2.303,0.8,3.88,3.125,6.202,3.872c0.822,0.264,1.906-0.382,2.331-1.131c0.329-0.578-1.134-1.49-0.607-1.897
		c0.684-0.53,2.221-0.416,2.578,0.372c0.64,1.416-0.901,3.216-0.306,4.653c0.478,1.149,2.973,0.86,3.104,2.096
		c0.165,1.519-2.736,2.372-2.463,3.875c0.785,4.312,2.555,8.641,5.36,12.021c1.236,1.49,3.998,0.329,5.686,1.285
		c0.706,0.399,0.175,1.701,0.686,2.33c0.39,0.477,1.122,0.632,1.74,0.646c1.596,0.038,3.873-1.809,4.761-0.491
		c2.258,3.344,1.523,7.939,2.842,11.747c0.361,1.047,2.006,1.468,2.118,2.569c0.115,1.144-1.386,1.95-1.547,3.09
		c-0.056,0.396,1.374,0.462,1.016,0.643c-0.896,0.45-2.095-0.096-2.992,0.353c-1.696,0.848-2.67,3.115-4.544,3.416
		c-1.755,0.283-3.211-1.84-4.986-1.88c-1.535-0.035-2.759,1.674-4.294,1.667c-0.846-0.004-1.041-1.593-1.879-1.696
		c-1.103-0.136-2.225,0.471-3.155,1.073c-0.6,0.387-1.166,1.051-1.222,1.763c-0.069,0.888,1.252,1.716,0.883,2.527
		c-0.759,1.67-2.768,2.472-3.835,3.968c-0.548,0.768-0.418,1.874-0.909,2.682c-0.447,0.734-1.017,1.552-1.838,1.822
		C2886.575,1565.893,2885.675,1564.416,2885.337,1565.083L2885.337,1565.083z"/>
	
		<path id="path60" shape-rendering="geometricPrecision" image-rendering="optimizeQuality" fill="#C4C4C4" stroke="#FFFFFF" stroke-width="0.6548" stroke-linejoin="bevel" d="
		M2793.54,1584.032c-0.689,1.192-2.169,2.206-2.066,3.578c0.167,2.229,2.341,3.919,2.787,6.111c0.139,0.682-1.834,1.436-1.195,1.719
		c1.252,0.556,3.263-1.521,4.09-0.433c0.929,1.221-0.081,3.263-1.008,4.484c-0.597,0.784-2.285-0.118-2.897,0.656
		c-0.667,0.842,0.458,2.345-0.17,3.217c-0.44,0.611-1.796-0.427-2.265,0.164c-0.419,0.527,0.621,1.258,0.603,1.931
		c-0.014,0.432-1.04,0.84-0.692,1.099c0.694,0.519,1.745,0.525,2.587,0.313c1.753-0.445,3.15-2.436,4.948-2.231
		c1.111,0.127,1.379,1.867,1.536,2.969c0.179,1.261-1.213,2.672-0.578,3.775c0.399,0.693,1.508-1.233,2.235-0.896
		c1.043,0.483,0.88,2.426,1.955,2.836c1.463,0.557,3.135-0.47,4.693-0.298c0.626,0.068,1.43,0.392,1.608,0.993
		c0.293,0.983-1.151,2.353-0.401,3.055c0.781,0.731,2.22-0.904,3.188-0.446c1.388,0.656,1.566,3.165,3.082,3.414
		c1.702,0.28,2.996-1.974,4.714-2.127c0.621-0.058,0.38,1.326,0.931,1.621c0.853,0.456,2.323-0.371,2.875,0.42
		c0.561,0.807-1.282,2.217-0.566,2.891c1.226,1.154,3.649,0.096,4.917,1.202c1.787,1.562,2.352,4.116,3.53,6.174
		c-2.903,1.73-5.344,4.828-8.709,5.194c-2.303,0.252-3.622-3.665-5.937-3.602c-1.848,0.05-2.384,2.903-3.957,3.87
		c-0.717,0.44-1.805,0.549-2.525,0.116c-1.388-0.834-1.822-2.852-3.261-3.593c-2.978-1.532-6.252-3.344-9.588-3.025
		c-1.772,0.171-1.791,3.187-3.217,4.251c-0.818,0.61-2.379-0.351-3.044,0.425c-1.36,1.583-1.416,4.383-1.307,4.644
		c0.111,0.26,0.532,0.584,0.331,0.781c-1.032,1.012-2.613,1.371-3.602,2.425c-0.271,0.29,0.438,0.84,0.224,1.176
		c-1.019,1.592-3.026,2.528-3.721,4.286c-0.355,0.899,1.188,1.813,0.94,2.749c-0.183,0.697-1.688,0.325-1.925,1.007
		c-0.778,2.245-0.234,4.786-0.874,7.074c-0.207,0.74-0.821,1.533-1.576,1.694c-0.723,0.153-1.815-0.217-2.016-0.927
		c-0.499-1.778,0.496-3.715,0.197-5.538c-0.301-1.829-0.227-4.543-1.965-5.2c-2.434-0.922-5.073,1.895-7.657,1.559
		c-2.162-0.281-3.528-2.78-5.648-3.294c-1.092-0.266-2.357,1.928-3.171,1.153c-1.58-1.503-0.454-4.764-2.11-6.185
		c-1.219-1.045-3.309,0.785-4.821,0.241c-1.694-0.608-2.409-2.964-4.139-3.461c-0.776-0.223-0.811,1.719-1.615,1.806
		c-3.327,0.355-3.698-2.382-4.15-1.194c-0.617,1.627-0.9,3.422-1.852,4.881c-1.133,1.738-2.666,3.223-4.279,4.531
		c-0.365,0.295-1.016,0.343-1.407,0.085c-0.686-0.453-0.648-1.868-1.464-1.979c-0.602-0.082-0.081,1.665-0.688,1.686
		c-5.837,0.189-11.747-0.028-17.49-1.095c-2.848-0.53-5.394-2.174-7.899-3.621c-1.363-0.786-2.797-1.691-3.618-3.029
		c-0.336-0.546,1.025-1.308,0.638-1.819c-0.354-0.463-1.208,0.726-1.706,0.42c-0.75-0.46-0.552-1.858-1.324-2.28
		c-0.568-0.311-1.34,0.901-1.871,0.532c-0.813-0.563-0.434-2.118-1.24-2.689c-0.759-0.538-2.047,0.385-2.791-0.172
		c-0.525-0.393,0.555-1.749-0.064-1.963c-1.438-0.496-3.181-0.291-4.554,0.365c-1.016,0.487-0.889,2.387-1.956,2.752
		c-1.55,0.532-3.421,0.301-4.904-0.396c-2.243-1.055-3.599-3.515-5.805-4.639c-2.074-1.057-4.968-0.963-5.614-1.178l3.458-4.547
		c0.658-0.439,1.205-1.507,1.974-1.316c1.149,0.283,1.401,2.627,2.571,2.444c1.052-0.166,0.213-2.335,1.029-3.015
		c0.841-0.697,2.205-0.885,3.242-0.537c0.987,0.329,1.106,2.681,2.084,2.32c1.354-0.497,0.958-2.838,2.009-3.821
		c0.628-0.588,1.87,0.081,2.548-0.446c0.953-0.741,0.854-2.532,1.944-3.052c1.262-0.603,3.053,0.916,4.201,0.116
		c0.945-0.66-0.388-2.696,0.515-3.408c0.693-0.548,1.607,1.438,2.421,1.089c0.858-0.367,0.401-1.935,1.07-2.585
		c0.565-0.551,1.557-0.999,2.275-0.672c0.619,0.281,0.086,1.468,0.552,1.962c0.664,0.708,1.639,1.111,2.576,1.367
		c0.48,0.131,1.123,0.09,1.472-0.262c0.557-0.563,0.149-2.115,0.938-2.175c1.44-0.105,2.512,1.552,3.93,1.815
		c0.808,0.151,1.638-0.289,2.382-0.635c0.765-0.357,1.823-0.641,2.081-1.441c0.221-0.685-1.615-1.545-0.997-1.917
		c1.65-0.996,4.065,0.062,5.716-0.933c0.858-0.517,0.048-2.142,0.676-2.918c0.422-0.521,1.512,0.107,1.982-0.37
		c0.896-0.909,1.551-2.147,1.734-3.407c0.104-0.707-0.258-1.757-0.956-1.925c-0.731-0.178-1.137,1.183-1.89,1.238
		c-0.481,0.036,0.964-0.692,0.861-1.161c-0.179-0.819-1.925-1.236-1.551-1.987c0.647-1.303,2.805-1.183,3.7-2.328
		c0.42-0.537,0.191-1.55-0.3-2.025c-0.74-0.719-2.623-0.094-2.909-1.085c-0.442-1.531,0.308-3.336,1.263-4.614
		c0.537-0.719,2.609,0.296,2.631-0.598c0.029-1.217-2.609-1.412-2.553-2.629c0.073-1.532,2.158-2.254,2.853-3.623
		c0.215-0.423-0.687-1.098-0.311-1.391c2.092-1.626,5.33-1.74,6.987-3.802c0.847-1.054-0.477-2.659-0.73-3.985
		c-0.353-1.838-1.223-3.641-1.093-5.505c0.096-1.379,1.952-2.4,1.739-3.766c-0.203-1.32-2.523-1.594-2.772-2.907
		c-0.152-0.79,1.666,1.074,2.34,0.631c1.24-0.813,2.644-2.283,2.397-3.742c-0.247-1.468-2.992-1.395-3.501-2.794
		c-0.426-1.171,0.8-2.36,1.202-3.54c0.435,0.331,0.882,1.345,1.304,0.998c0.71-0.584,0.21-1.886,0.706-2.652
		c0.253-0.389,0.882-0.632,1.313-0.464c0.473,0.184,0.303,1.314,0.81,1.285c1.127-0.062,1.909-1.42,3.035-1.497
		c1.323-0.091,2.78,1.815,3.845,1.027c1.199-0.884,0.03-3.08,0.718-4.398c0.273-0.529,1.16-0.349,1.757-0.354
		c3.053-0.029,6.149-0.281,9.154,0.25c2.788,0.494,5.351,1.86,8.027,2.79c-0.261,0.989,0.195,2.643-0.778,2.972
		c-1.223,0.414-2.608-2.352-3.573-1.495c-1.262,1.121-1.672,3.909-0.417,5.036c1.795,1.613,4.814,0.545,7.179,1.04
		c0.561,0.118-1.332-0.314-1.719,0.106c-0.48,0.521,0.057,1.495-0.313,2.098c-0.237,0.386-1.26,0.034-1.279,0.487
		c-0.091,2.012,0.224,4.099,0.987,5.963c0.396,0.964,2.206,1.067,2.325,2.104c0.082,0.728-1.521,0.414-1.976,0.992
		c-0.419,0.534-0.825,1.489-0.379,2.004c1.28,1.48,2.966,2.97,4.91,3.232c1.126,0.153,2.042-1.221,2.582-2.214
		c0.388-0.715-0.371-1.689-0.055-2.436c0.226-0.531,1.484-0.343,1.478-0.921c-0.016-1.236-0.754-2.418-1.527-3.387
		c-0.762-0.955-3.965-1.534-2.938-2.201c1.138-0.737,2.274-1.477,3.41-2.215c0.872-0.564,2.285-0.157,3.082,0.509
		c0.739,0.619,0.269,1.98,0.83,2.765c0.566,0.793,1.949,0.839,2.377,1.714c0.449,0.919-0.549,2.181-0.041,3.067
		c0.391,0.684,1.729,0.173,2.24,0.771c0.784,0.92,0.169,2.952,1.301,3.384c0.846,0.323,0.367-2.033,1.175-2.438
		c0.503-0.251,1.059,0.772,1.036,1.333c-0.063,1.579-2.248,3.33-1.268,4.575c1.667,2.116,5.504,1.351,7.426,3.242
		C2793.223,1579.656,2792.956,1582.1,2793.54,1584.032L2793.54,1584.032L2793.54,1584.032z"/>
	
		<path id="path62" shape-rendering="geometricPrecision" image-rendering="optimizeQuality" fill="#C4C4C4" stroke="#FFFFFF" stroke-width="0.6548" stroke-linejoin="bevel" d="
		M2677.253,1624.133c0.654-0.439,1.2-1.507,1.965-1.316c1.144,0.283,1.394,2.626,2.559,2.443c1.046-0.167,0.212-2.334,1.024-3.012
		c0.837-0.698,2.193-0.885,3.227-0.539c0.982,0.331,1.101,2.679,2.073,2.321c1.348-0.497,0.953-2.837,1.998-3.82
		c0.626-0.587,1.861,0.082,2.537-0.446c0.948-0.741,0.85-2.53,1.934-3.049c1.257-0.603,3.039,0.915,4.181,0.115
		c0.94-0.657-0.386-2.694,0.513-3.406c0.689-0.547,1.599,1.438,2.408,1.091c0.854-0.369,0.4-1.936,1.065-2.585
		c0.563-0.549,1.55-0.998,2.265-0.671c0.616,0.281,0.086,1.466,0.55,1.961c0.66,0.706,1.63,1.108,2.563,1.365
		c0.478,0.131,1.118,0.09,1.465-0.262c0.553-0.561,0.148-2.114,0.934-2.173c1.433-0.104,2.499,1.551,3.91,1.815
		c0.804,0.149,1.63-0.291,2.371-0.636c0.761-0.355,1.813-0.641,2.069-1.44c0.22-0.685-1.604-1.544-0.992-1.916
		c1.643-0.996,4.046,0.062,5.688-0.931c0.853-0.517,0.048-2.14,0.673-2.917c0.419-0.521,1.506,0.108,1.973-0.368
		c0.891-0.909,1.544-2.148,1.727-3.405c0.103-0.707-0.257-1.755-0.951-1.924c-0.729-0.178-1.133,1.183-1.881,1.237
		c-0.479,0.036,0.958-0.693,0.856-1.16c-0.178-0.818-1.915-1.236-1.544-1.986c0.645-1.301,2.794-1.182,3.683-2.326
		c0.419-0.537,0.19-1.549-0.298-2.024c-0.736-0.719-2.611-0.093-2.896-1.083c-0.44-1.531,0.307-3.335,1.257-4.611
		c0.534-0.718,2.597,0.297,2.618-0.598c0.028-1.216-2.597-1.41-2.539-2.626c0.072-1.531,2.147-2.252,2.838-3.62
		c0.212-0.423-0.683-1.099-0.309-1.39c2.08-1.626,5.304-1.738,6.952-3.8c0.843-1.053-0.474-2.657-0.727-3.982
		c-0.351-1.836-1.217-3.64-1.088-5.501c0.096-1.377,1.941-2.398,1.732-3.764c-0.204-1.319-2.513-1.592-2.761-2.904
		c-0.149-0.789,1.658,1.072,2.329,0.631c1.234-0.813,2.63-2.282,2.386-3.74c-0.246-1.468-2.979-1.394-3.483-2.791
		c-0.425-1.172,0.796-2.36,1.194-3.539c-1.074-1.161-1.857-2.69-3.227-3.48c-1.743-1.004-4.107-0.615-5.79-1.719
		c-1.201-0.786-1.117-2.873-2.348-3.612c-1.96-1.18-4.523-0.886-6.624-1.786c-0.479-0.205-0.252-1.539-0.745-1.374
		c-0.908,0.307-1.813,0.613-2.721,0.919c-1.272,0.43-1.608-2.154-2.412-3.231c-1.303-0.167-2.74,0.097-3.909-0.5
		c-0.835-0.427-0.773-2.753-1.604-2.316c-1.297,0.685-0.821,2.886-1.702,4.06c-0.281,0.376-1.496-0.37-1.41,0.092l0.274,1.499
		c0.17,0.934-1.88,0.656-2.813,0.477c-0.709-0.137-1.133-0.899-1.698-1.348c-1.175-0.764-2.918-1.027-3.524-2.289
		c-0.44-0.922,0.999-1.863,1.044-2.884c0.019-0.429-0.551,1.017-0.953,0.869c-1.27-0.465-2.001-1.925-3.262-2.416
		c-0.765-0.298-1.934,0.822-2.457,0.19c-0.561-0.68,1.111-2.011,0.461-2.604c-0.791-0.724-2.246,0.54-3.216,0.085
		c-1.037-0.487-1.277-1.971-2.211-2.638c-0.987-0.707-2.169-1.309-3.383-1.358c-1.776-0.074-3.499,1.353-5.242,1
		c-0.857-0.172-0.573-1.747-1.238-2.313c-1.718-1.459-3.818-2.4-5.729-3.599l-0.014,0.028c-1.908,1.263-4.487,1.867-5.725,3.792
		c-0.571,0.888,1.388,1.752,1.483,2.805c0.054,0.601-0.501,1.37-1.102,1.441c-1.042,0.125-2.05-1.392-3.001-0.951
		c-0.934,0.432-0.259,2.343-1.143,2.873c-1.437,0.862-3.397,0.2-4.964,0.793c-0.988,0.374-1.411,1.823-2.45,2.019
		c-0.529,0.1-0.281-1.269-0.801-1.401c-0.667-0.172-1.58,0.113-1.949,0.696c-0.659,1.04-0.215,2.518-0.776,3.613
		c-0.678,1.323-2.398,2.021-2.841,3.441c-0.33,1.063-0.11,2.557,0.756,3.256c0.907,0.732,2.712-0.694,3.493,0.171
		c1.051,1.165,1.8,3.393,0.839,4.633c-1.142,1.475-3.891,0.268-5.44,1.307c-0.743,0.498,0.44,2.576-0.453,2.649
		c-1.405,0.117-2.136-2.254-3.545-2.316c-1.626-0.071-2.855,1.816-4.479,1.962c-1.983,0.179-3.996-1.657-5.886-1.031
		c-0.896,0.298,1.438,2.043,0.786,2.726c-0.819,0.858-2.647-0.581-3.559,0.182c-0.825,0.689-0.318,2.13-0.478,3.196l0.003-0.048
		c0.32,0.942,1.427,1.95,0.96,2.83c-0.503,0.948-2.861,0.023-3.035,1.083c-0.227,1.393,2.354,2.157,2.275,3.565
		c-0.236,4.25-3.192,8.115-3.161,12.373c0.01,1.326,2.924,0.989,3.269,2.271c0.272,1.012-1.888,1.38-2.006,2.422
		c-0.115,1.016,0.747,1.95,1.422,2.719c1.269,1.441,2.438,3.437,4.322,3.81c1.368,0.271,2.134-2.347,3.526-2.256
		c1.199,0.078,1.394,2.077,2.455,2.643c0.923,0.494,2.33-0.345,3.122,0.339c0.552,0.476,0.275,1.825-0.19,2.028
		c-0.476,0.207-2.517-0.067-1.902,0.064c1.222,0.264,2.705-0.25,3.722,0.478c0.843,0.604,0.325,2.18,1.04,2.93
		c0.504,0.528,1.491,0.729,2.15,0.418c0.854-0.403,0.782-2.236,1.727-2.247c1.786-0.021,3.438,1.143,4.898,2.17
		c0.305,0.213-0.635,1.105-0.263,1.088c2.231-0.107,4.718-2.663,6.554-1.392c1.583,1.096-1.159,4.086-0.229,5.771
		c1.372,2.485,3.938,4.257,6.472,5.536c0.605,0.306,0.438-1.675,1.117-1.704c1.631-0.071,3.05,1.532,4.681,1.449
		c1.266-0.066,2.084-1.571,3.318-1.863c0.589-0.138,1.452,0.123,1.682,0.683c0.24,0.58-1.024,1.237-0.673,1.758
		c0.516,0.767,1.873,0.436,2.564,1.048c0.528,0.47,0.91,1.254,0.823,1.955c-0.089,0.722-0.588,1.548-1.282,1.767
		c-0.779,0.244-1.843-1.245-2.37-0.621c-0.836,0.992,0.163,2.692-0.372,3.874c-0.249,0.552-1.393,0.146-1.688,0.674
		c-0.239,0.428,0.808,0.945,0.552,1.362c-0.819,1.338-3.148,1.718-3.391,3.268c-0.146,0.943,2.099-0.421,2.856,0.158
		c0.498,0.379-0.688,1.481-0.196,1.868c1.231,0.963,3.173,0.574,4.457,1.466c0.538,0.375,0.28,1.281,0.419,1.922L2677.253,1624.133
		L2677.253,1624.133z"/>
	
		<path id="path64" shape-rendering="geometricPrecision" image-rendering="optimizeQuality" fill="#C4C4C4" stroke="#FFFFFF" stroke-width="0.6548" stroke-linejoin="bevel" d="
		M2885.231,1565.614c-0.972-0.254-2.878,0.253-2.917-0.757l-0.128-3.255c-0.048-1.236-2.377-0.919-3.209-1.828
		c-1.168-1.272-1.008-3.819-2.593-4.499c-1.998-0.859-4.383,1.118-6.493,0.597c-1.396-0.347-1.805-2.442-3.14-2.983
		c-0.671-0.271-1.25,0.975-1.971,0.911c-0.454-0.038-0.304-1.2-0.758-1.15c-3.301,0.356-6.405,2.655-9.703,2.275
		c-1.289-0.147-0.479-2.905-1.591-3.573c-1.198-0.722-2.792,0.063-4.188,0.095c-0.422,1.075-0.183,2.842-1.264,3.228
		c-1.346,0.479-2.687-1.623-4.083-1.319c-0.73,0.157,0.311,1.705-0.205,2.251c-0.952,1.006-2.915,0.736-3.696,1.88
		c-0.428,0.627,1.155,1.297,1.014,2.043c-0.133,0.708-1.346,0.727-1.659,1.374c-0.248,0.514,0.113,1.136,0.169,1.705
		c-1.405,0.293-2.839,1.288-4.215,0.879c-1.119-0.332-1.235-2.059-2.16-2.773c-0.322-0.249-0.976-0.17-1.208,0.165
		c-0.518,0.743,0.094,2.253-0.729,2.623c-0.95,0.427-2.647-1.954-2.976-0.96c-0.45,1.366,1.867,2.37,2.04,3.8
		c0.089,0.739-0.643,1.629-1.371,1.761c-3.06,0.557-6.341-0.683-9.329,0.184c-0.772,0.223,1.149,1.511,0.864,2.267
		c-0.509,1.359-1.489,3.075-2.926,3.219c-1.099,0.109-0.851-2.376-1.892-2.739c-1.737-0.605-3.932,1.092-5.518,0.155
		c-1.067-0.633,0.742-3.611-0.493-3.712c-1.421-0.117-2.418,2.031-2.552,3.462c-0.152,1.633,2.102,2.966,1.8,4.58
		c-0.199,1.063-2.178,0.604-2.92,1.391c-1.015,1.073-0.962,2.971-2.097,3.915c-0.567,0.471-1.454-0.238-2.18-0.357
		c-1.563,0.302-4.271-0.637-4.686,0.908l-0.885,3.304c-0.135,0.502-0.881-0.548-1.321-0.819c-0.683,1.194-2.148,2.209-2.047,3.583
		c0.164,2.234,2.319,3.926,2.761,6.122c0.137,0.684-1.816,1.438-1.185,1.723c1.24,0.556,3.233-1.525,4.053-0.436
		c0.92,1.223-0.08,3.271-0.999,4.494c-0.592,0.787-2.264-0.119-2.871,0.656c-0.661,0.845,0.455,2.35-0.168,3.224
		c-0.437,0.613-1.78-0.428-2.244,0.164c-0.415,0.528,0.616,1.259,0.597,1.934c-0.013,0.433-1.03,0.842-0.686,1.102
		c0.688,0.519,1.73,0.526,2.563,0.313c1.738-0.447,3.122-2.439,4.903-2.235c1.101,0.126,1.367,1.869,1.521,2.975
		c0.177,1.262-1.201,2.676-0.572,3.78c0.396,0.695,1.494-1.234,2.214-0.896c1.035,0.483,0.874,2.429,1.938,2.839
		c1.45,0.56,3.106-0.469,4.65-0.298c0.62,0.069,1.416,0.393,1.595,0.994c0.29,0.985-1.142,2.357-0.398,3.062
		c0.775,0.733,2.2-0.906,3.159-0.448c1.376,0.659,1.554,3.172,3.055,3.421c1.687,0.28,2.968-1.977,4.669-2.132
		c0.617-0.057,0.378,1.33,0.924,1.624c0.844,0.459,2.302-0.371,2.848,0.422c0.557,0.808-1.269,2.221-0.561,2.896
		c1.215,1.154,3.617,0.094,4.872,1.204c1.77,1.563,2.332,4.122,3.498,6.184c1.221-0.736,2.013,1.453,4.354-0.861
		c2.217-2.189,2.747-5.998,5.376-7.661c2.207-1.396,6.023,1.263,7.789-0.666c2.286-2.496,1.311-6.662,1.964-9.993
		c0.104-0.532,0.323-1.142,5.084-1.813c0.85-0.12,1.631,0.951,2.468,0.753c1.323-0.315,2.629-1.093,3.473-2.165
		c1.433-1.821,2.669-3.942,3.125-6.218c0.313-1.564-1.555-3.979-0.874-5c0.683-1.024,1.835-1.855,2.045-3.067
		c0.562-3.243-0.521-6.667,0.2-9.878c0.277-1.238,2.034-1.621,2.636-2.735c0.309-0.57-0.677-1.642-0.107-1.945
		c4.434-2.36,9.747-2.854,14.033-5.474c1.5-0.917,2.191-2.916,2.528-4.647C2886.455,1567.673,2884.931,1566.219,2885.231,1565.614
		L2885.231,1565.614L2885.231,1565.614z"/>
	
		<path id="path66" shape-rendering="geometricPrecision" image-rendering="optimizeQuality" fill="#C4C4C4" stroke="#FFFFFF" stroke-width="0.6548" stroke-linejoin="bevel" d="
		M2677.558,1624.402c-0.673,0.069-1.714-0.388-2.021,0.211c-0.345,0.676,1.068,1.404,0.827,2.123
		c-0.332,0.995-1.513,1.467-2.271,2.201c-0.647-0.215-1.484-0.142-1.943-0.642c-0.591-0.642-0.341-1.786-0.902-2.452
		c-0.653-0.776-1.581-1.38-2.56-1.656c-1.079-0.305-2.325,0.391-3.369-0.02c-2.096-0.825-3.583-2.896-5.734-3.565
		c-1.04-0.323-2.104,1.001-3.175,0.788c-0.917-0.182-1.406-2.449-2.111-1.84c-1.216,1.054,0.044,3.598-1.156,4.666
		c-0.878,0.78-2.338-0.737-3.497-0.523c-1.489,0.275-2.961,2.916-4.109,1.934c-1.508-1.292,0.947-4.586-0.534-5.908
		c-1.669-1.491-4.583,0.138-6.716-0.565c-0.527-0.175,0.435-1.339-0.02-1.654c-0.936-0.649-2.216-0.683-3.361-0.69
		c-0.672-0.003-1.58,0.073-1.91,0.656c-0.854,1.502-1.312,3.287-1.309,5.014c0.004,2.616,1.365,5.125,1.33,7.744
		c-0.015,1.173-1.383,2.032-1.48,3.203c-0.104,1.247,1.104,2.408,0.909,3.646c-0.297,1.891-2.261,3.352-2.316,5.266
		c-0.031,1.062,2.044,1.363,2.089,2.424c0.038,0.887-1.017,1.919-1.909,1.869c-2.215-0.125-3.135-0.956-4.075-1.31
		c-2.188-0.823-4.95-2.136-6.958-0.942c-1.465,0.871,0.841,3.615-0.007,5.088c-1.051,1.824-3.643,2.237-5.096,3.766
		c-0.732,0.77-0.83,1.957-1.26,2.931c-0.431,0.977-0.048,7.852-0.128,8.358c-0.141,0.894-0.75,1.806-1.55,2.239
		c-0.824,0.444-2.065,0.682-2.814,0.121c-0.91-0.684-0.401-2.407-1.248-3.166c-0.452-0.405-1.278,0.81-1.774,0.457
		c-0.746-0.531-0.189-2.563-1.104-2.505c-1.526,0.098-2.11,2.555-3.621,2.804c-1.513,0.251-3.109-0.594-4.352-1.486
		c-1.202-0.865-1.427-2.723-2.655-3.549c-0.549-0.367-1.71-0.155-1.935,0.463c-0.271,0.747,1.1,1.394,0.975,2.178
		c-0.236,1.487-0.731,3.205-1.971,4.08c-0.828,0.584-2.123-1.089-2.995-0.575c-0.73,0.431,0.341,1.958-0.297,2.517
		c-0.551,0.48-1.525-0.694-2.176-0.357c-0.995,0.517-1.12,2.105-2.13,2.593c-0.427,0.206-0.107-1.055-0.492-1.329
		c-1.231-0.879-2.614-1.684-4.106-1.952c-5.082-0.918-10.344-0.596-15.413-1.575c-0.455-0.087,0.503-1.033,0.186-1.367
		c-0.506-0.533-1.69-0.063-2.114-0.661c-0.331-0.467,0.816-1.19,0.474-1.648c-0.638-0.853-2.983-0.454-2.836-1.506
		c0.165-1.174,2.42-0.639,3.257-1.48c0.546-0.55,0.838-1.591,0.47-2.271c-0.302-0.558-1.426,0.097-1.886-0.344
		c-0.954-0.912-0.964-2.612-2.025-3.398c-1.03-0.764-2.732-0.116-3.753-0.891c-1.869-1.416-2.07-2.405-3.157-3.352
		c-1.087-0.946-1.949-2.236-3.26-2.839c-1.344-0.618-3.438,0.442-4.394-0.682c-1.422-1.67-0.582-4.433-1.61-6.368
		c-0.333-0.628-1.681,0.023-2.075-0.572c-1.105-1.675-0.421-4.462-2.038-5.658c-1.342-0.994-3.767,1.555-5.011,0.439
		c-2.024-1.811-1.427-5.327-2.95-7.57c-0.338-0.498-1.013,1.366-1.504,1.014c-1.176-0.842-1.099-2.822-2.247-3.702
		c-0.526-0.402-1.056,0.385-2.167,0.32c-0.203-1.891-0.886-3.791-0.612-5.671c0.203-1.388,0.97-2.744,1.986-3.717
		c0.322-0.31,0.74,0.948,1.131,0.73c0.855-0.48,1.792-1.378,1.751-2.351c-0.07-1.666-1.815-2.922-2.042-4.573
		c-0.065-0.482,1.267-0.139,1.333-0.62c0.188-1.355-1.549-2.987-0.683-4.051c0.683-0.835,1.993,1.438,3.04,1.158
		c1.119-0.297,1.282-2.042,2.303-2.584c0.694-0.367,1.859,0.712,2.357,0.108c0.642-0.777-0.414-2.119,0.042-3.014
		c0.369-0.723,2.123-0.411,2.116-1.22c-0.01-1.457-2.39-2.381-2.15-3.817c0.246-1.477,2.721-1.69,3.301-3.07
		c0.25-0.597-1.48,0.316-1.957-0.126c-0.593-0.552-1.131-1.651-0.685-2.327s2.04,0.411,2.421-0.301
		c0.538-1.002-1.031-2.402-0.448-3.377c0.604-1.009,2.429-0.537,3.28-1.354c0.864-0.829,1.599-2.06,1.511-3.248
		c-0.154-2.094-1.746-3.86-2.184-5.913c-0.149-0.699,0.082-1.495,0.48-2.089c0.43-0.639,1.876-0.619,1.853-1.385
		c-0.027-0.931-1.708-1.119-1.95-2.02c-0.313-1.161,0.764-2.421,0.441-3.578c-0.136-0.49-1.487,0.238-1.514-0.27
		c-0.059-1.116,0.892-2.055,1.336-3.081l-0.037,0.134c1.452-0.515,2.817-1.625,4.354-1.54c0.751,0.041,0.52,1.821,1.271,1.854
		c0.842,0.037,1.007-1.652,1.846-1.715c0.956-0.069,1.901,0.661,2.508,1.396c0.226,0.273-0.979,0.632-0.679,0.823
		c0.85,0.542,2.005,0.95,2.967,0.638c0.778-0.252,0.583-1.734,1.341-2.036c1.155-0.46,2.766,0.787,3.733,0.013
		c0.991-0.793-0.004-2.768,0.863-3.692c0.87-0.929,2.536-1.735,3.658-1.134c1.004,0.541-0.059,2.378,0.499,3.368
		c0.293,0.521,1.113,0.565,1.714,0.566c2.928,0.006,6.042,0.514,8.769-0.544c1.149-0.444,0.513-2.551,1.401-3.397
		c0.723-0.688,1.977-1.043,2.918-0.711c1.12,0.397,1.416,1.973,2.42,2.606c0.697,0.438,1.839-0.104,2.437,0.459
		c0.367,0.345-0.756,1.084-0.411,1.451c0.495,0.525,1.465,0.649,2.141,0.389c0.995-0.384,1.357-1.814,2.374-2.134
		c0.672-0.209,1.498,1.292,1.967,0.772c0.559-0.617-1.278-2.544-0.449-2.447c1.764,0.203,2.744,2.417,4.449,2.912
		c0.502,0.146,0.113-1.242,0.596-1.445c0.592-0.25,1.26,0.252,1.886,0.4c1.531,0.363,3.013,1.234,4.584,1.132
		c0.826-0.055,1.331-2.125,1.926-1.556c0.644,0.614-1.624,1.91-0.948,2.489c1.127,0.965,3.043-0.009,4.438,0.501
		c0.628,0.23,0.583,1.713,1.238,1.574c0.605-0.129-0.295-1.321,0.028-1.846c0.546-0.885,1.443-1.562,2.37-2.037
		c1.251-0.643,3.402-0.006,4.033-1.254c0.743-1.472-1.103-3.212-0.95-4.85c0.045-0.482,1.107,0.063,1.437-0.297
		c0.775-0.842,0.512-3.327,1.618-3.022c2.522,0.691,3.564,4.008,5.94,5.094c0.799,0.364,1.597-1.898,2.272-1.339
		c1.37,1.137,0.795,3.647,2.044,4.914c0.512,0.52,1.38-0.493,2.069-0.738l0.025-0.153c0.322,0.941,1.437,1.947,0.967,2.824
		c-0.506,0.947-2.878,0.024-3.053,1.082c-0.229,1.39,2.368,2.155,2.29,3.561c-0.238,4.243-3.212,8.104-3.181,12.354
		c0.01,1.325,2.942,0.988,3.289,2.268c0.274,1.01-1.899,1.378-2.018,2.418c-0.116,1.015,0.75,1.947,1.43,2.714
		c1.277,1.439,2.455,3.432,4.35,3.804c1.376,0.271,2.147-2.341,3.547-2.251c1.208,0.078,1.403,2.073,2.47,2.639
		c0.929,0.492,2.344-0.345,3.142,0.337c0.555,0.475,0.276,1.824-0.192,2.025c-0.479,0.206-2.532-0.067-1.913,0.064
		c1.23,0.264,2.721-0.249,3.744,0.478c0.848,0.602,0.328,2.177,1.047,2.926c0.506,0.527,1.499,0.728,2.163,0.417
		c0.86-0.403,0.787-2.233,1.737-2.245c1.797-0.021,3.459,1.142,4.93,2.167c0.307,0.214-0.64,1.104-0.265,1.087
		c2.245-0.107,4.747-2.66,6.595-1.391c1.593,1.095-1.167,4.08-0.231,5.763c1.38,2.481,3.962,4.251,6.511,5.527
		c0.61,0.307,0.441-1.672,1.124-1.701c1.641-0.07,3.069,1.532,4.711,1.447c1.273-0.065,2.097-1.568,3.339-1.859
		c0.592-0.138,1.461,0.122,1.692,0.681c0.241,0.579-1.031,1.235-0.678,1.756c0.519,0.765,1.885,0.436,2.58,1.047
		c0.533,0.468,0.915,1.252,0.829,1.951c-0.09,0.721-0.592,1.546-1.29,1.764c-0.785,0.244-1.855-1.242-2.385-0.62
		c-0.842,0.991,0.164,2.688-0.375,3.868c-0.252,0.552-1.4,0.144-1.698,0.672c-0.24,0.429,0.813,0.943,0.556,1.361
		c-0.826,1.336-3.168,1.715-3.411,3.263c-0.148,0.94,2.11-0.421,2.873,0.157c0.501,0.378-0.693,1.479-0.197,1.865
		c1.239,0.962,3.192,0.573,4.485,1.464c0.54,0.374,0.28,1.28,0.422,1.92L2677.558,1624.402L2677.558,1624.402z"/>
	
		<path id="path68" shape-rendering="geometricPrecision" image-rendering="optimizeQuality" fill="#C4C4C4" stroke="#FFFFFF" stroke-width="0.6548" stroke-linejoin="bevel" d="
		M2650.646,1547.805c0.963-1.243,0.212-3.475-0.84-4.641c-0.782-0.867-2.591,0.561-3.499-0.172c-0.868-0.7-1.089-2.196-0.757-3.261
		c0.443-1.425,2.167-2.124,2.845-3.449c0.563-1.098,0.118-2.578,0.778-3.62c0.37-0.584,1.285-0.871,1.954-0.698
		c0.52,0.134,0.272,1.504,0.801,1.404c1.042-0.195,1.465-1.646,2.455-2.021c1.57-0.595,3.535,0.068,4.973-0.794
		c0.886-0.531,0.209-2.446,1.145-2.879c0.953-0.442,1.964,1.077,3.007,0.953c0.602-0.072,1.159-0.842,1.104-1.444
		c-0.094-1.056-2.057-1.92-1.485-2.811c1.24-1.929,3.824-2.534,5.735-3.799c0.003-1.346-0.418-2.761,0.01-4.036
		c0.171-0.51,1.34-0.028,1.524-0.532l1.063-2.9c0.244-0.665-1.27-0.919-1.379-1.618c-0.072-0.469,0.833-0.595,0.961-1.051
		c0.146-0.526,0.207-1.28-0.213-1.624c-1.413-1.154-3.621-1.184-4.861-2.522c-0.526-0.568,0.552-1.531,0.401-2.29
		c-0.078-0.395-0.302,1.214-0.655,1.018c-0.393-0.22,0.461-1.143,0.063-1.35c-1.291-0.669-2.97-0.214-4.284-0.842
		c-1.15-0.551-2.848-1.289-2.841-2.564c0.005-0.971,2.416,0.31,2.859-0.553c0.35-0.683-2.188-0.539-1.929-1.26
		c0.305-0.85,2.149,0.088,2.626-0.678c0.476-0.764-0.867-1.798-0.56-2.644c0.186-0.512,1.765,0.262,1.61-0.258
		c-0.208-0.708-2.17-0.278-1.98-0.99c0.269-1.005,1.786-1.077,2.678-1.614c0.06-0.695,0.752-1.692,0.177-2.082
		c-1.627-1.101-3.775-1.098-5.666-1.635c-0.35-0.099-1.225,0.047-1.058-0.276c0.363-0.701,1.736-0.62,1.918-1.386
		c0.124-0.523-1.459-0.282-1.391-0.814c0.078-0.608,1.253-0.391,1.609-0.888c0.83-1.162,1.936-2.464,1.805-3.885
		c-0.1-1.075-2.104-1.167-2.367-2.214c-0.45-1.792,0.789-3.717,0.423-5.528c-0.223-1.105-0.956-2.569-2.078-2.669
		c-1.272-0.114-1.87,2.075-3.143,2.202c-1.16,0.115-1.96-1.455-3.119-1.582c-0.896-0.098-1.63,1.005-2.531,0.957
		c-0.708-0.038-1.575-0.504-1.767-1.187c-0.227-0.807,1.125-1.648,0.755-2.398c-0.395-0.802-1.86-0.41-2.463-1.07
		c-0.285-0.311,0.741-0.996,0.378-1.207c-1.346-0.78-3.217-0.33-4.515-1.189c-0.448-0.296,0.607-1.104,0.346-1.571
		c-0.392-0.7-2.213-0.594-1.987-1.364c0.305-1.034,2.233-0.656,2.841-1.544c0.351-0.513-0.78-1.196-0.566-1.78
		c0.157-0.429,1.067,0.055,1.334-0.313c0.427-0.587,0.7-1.455,0.445-2.133c-0.436-1.163-2.033-1.701-2.338-2.904
		c-0.242-0.954,1.076-1.85,0.884-2.813c-0.26-1.302-2.168-2.05-2.118-3.376c0.039-1.02,1.551-1.329,2.327-1.993
		c-1.046-0.326-2.315-0.252-3.139-0.974c-1.011-0.885-0.949-2.648-1.978-3.511c-0.676-0.568-1.976,0.246-2.625-0.35
		c-1.229-1.127-1.266-3.209-2.493-4.339c-0.563-0.519-1.614-0.419-2.297-0.072c-0.462,0.234-0.002,1.69-0.477,1.482
		c-1.222-0.536-1.622-2.209-2.762-2.903c-0.487-0.296-1.477-0.342-1.707,0.182c-0.459,1.046,0.861,2.556,0.123,3.429
		c-1.023,1.213-3.306,0.602-4.453,1.703c-0.463,0.444,1.102,1.095,0.9,1.707c-0.315,0.957-1.153,2.128-2.161,2.117
		c-1.982-0.022-3.722-3.039-5.521-2.208c-1.437,0.664,0.677,3.313,0.015,4.752c-0.288,0.626-1.518-0.803-2.042-0.354
		c-0.634,0.542,0.109,1.826-0.425,2.467c-0.503,0.601-1.676,0.182-2.241,0.727c-0.297,0.288,0.628,1.163,0.218,1.225
		c-1.39,0.211-2.774-0.769-4.172-0.622c-1.154,0.122-2.249,2.065-3.197,1.394c-1.146-0.812,0.407-3.297-0.703-4.156
		c-0.78-0.603-1.375,1.758-2.36,1.784c-0.772,0.02-0.828-1.762-1.596-1.683c-0.894,0.092-0.905,1.82-1.781,2.032
		c-0.552,0.134-0.705-0.895-1.058-1.341c-0.741,0.365-2.114,0.276-2.226,1.094c-0.247,1.8,2.11,3.635,1.349,5.284
		c-0.506,1.096-2.648-1.148-3.602-0.407c-0.957,0.743,0.546,3.01-0.512,3.6c-0.97,0.541-1.776-1.459-2.855-1.722
		c-0.449-0.109-1.192,0.281-1.175,0.744c0.05,1.419,1.266,2.63,1.338,4.049c0.084,1.632,0.511,3.974-0.884,4.824
		c-1.857,1.132-4.443-0.953-6.521-0.309c-1.127,0.35-0.8,2.77-1.967,2.945c-1.66,0.249-2.979-1.738-4.644-1.955
		c-0.442-0.058,0.072,1.094-0.323,1.305c-0.858,0.457-1.921,0.488-2.891,0.409c-2.218-0.18-4.398-0.704-6.574-1.178
		c-0.882-0.193-1.694-0.971-2.582-0.817c-1.035,0.179-2.276,0.737-2.642,1.723c-0.408,1.1,1.416,2.502,0.721,3.448
		c-0.582,0.793-2.034-0.89-2.917-0.457c-0.521,0.256,0.827,1.357,0.363,1.712c-1.634,1.254-4.1,1.095-5.707,2.387
		c-0.834,0.671-0.37,2.211-1.046,3.044c-0.384,0.473-1.253,0.743-1.777,0.434c-0.951-0.563-0.919-2.95-1.982-2.657
		c-2.043,0.565-2.602,3.605-4.542,4.463c-1.744,0.77-3.89,0.605-5.723,0.076c-0.567-0.163,0.353-2.108-0.127-1.766
		c-1.868,1.332-2.591,4.013-4.596,5.133c-1.376,0.77-3.23-0.4-4.73,0.084c-1.551,0.501-3.29,1.307-4.043,2.751
		c-0.704,1.351,0.705,3.121,0.223,4.566c-0.174,0.523-1.191-0.979-1.561-0.567c-0.662,0.737,0.228,2.315-0.557,2.925
		c-0.732,0.569-1.922-0.735-2.764-0.346c-0.77,0.355-0.845,1.473-1.268,2.211c0.543,1.066,1.466,2.014,1.629,3.2
		c0.055,0.397-0.978-0.432-1.203-0.098c-0.671,0.994-2.196,3.075-1.054,3.443c2.798,0.903,5.83-1.067,8.767-0.957
		c0.597,0.023,1.52,0.829,1.201,1.336c-0.466,0.745-2.045,0.034-2.525,0.771c-0.309,0.473,0.843,0.783,1.354,1.023
		c2.01,0.946,3.973,2.221,6.175,2.52c1.269,0.172,2.512-1.75,3.658-1.182c1.687,0.836,1.659,3.628,3.264,4.615
		c1.019,0.626,3.718-1.603,3.56-0.419l-0.383,2.862c-0.227,1.695,3.229,1.151,4.895,1.534c0.531,0.123,1.458-0.544,1.636-0.031
		c0.232,0.672-1.153,1.202-0.989,1.895l1.17,4.944c0.142,0.6-1.656-0.647-1.85-0.063c-1.294,3.906-2.3,8.044-2.157,12.16
		c0.031,0.89,2.645-0.252,2.601,0.64c-0.05,1.043-2.018,0.789-2.709,1.57c-0.607,0.686-0.11,2.243-0.963,2.575
		c-0.699,0.272-0.873-1.593-1.623-1.564c-1.355,0.052-3.054,0.556-3.671,1.765l-1.769,3.463c-0.215,0.421,0.262,1.117,0.724,1.22
		c1.092,0.243,2.875-1.327,3.343-0.313c0.443,0.96-2.772,0.067-2.975,1.105c-0.221,1.13,2.623,1.541,2.245,2.629
		c-0.348,0.999-4.121-0.435-3.179,0.051l5.772,2.972c2.547,1.312-1.589,5.649-1.3,8.502c0.072,0.716,1.782-0.63,2.156-0.016
		c0.625,1.022,0.024,2.401,0.036,3.604c1.446-0.516,2.806-1.63,4.336-1.546c0.747,0.043,0.517,1.829,1.266,1.862
		c0.838,0.037,1.001-1.659,1.836-1.721c0.952-0.071,1.894,0.663,2.498,1.4c0.224,0.274-0.975,0.633-0.676,0.826
		c0.846,0.544,1.996,0.954,2.954,0.641c0.774-0.253,0.581-1.742,1.335-2.044c1.149-0.461,2.753,0.79,3.716,0.014
		c0.986-0.796-0.004-2.778,0.859-3.706c0.866-0.931,2.524-1.741,3.642-1.137c0.999,0.542-0.059,2.386,0.496,3.379
		c0.292,0.523,1.108,0.568,1.708,0.569c2.915,0.006,6.015,0.514,8.73-0.546c1.144-0.446,0.51-2.561,1.395-3.409
		c0.719-0.69,1.968-1.049,2.906-0.714c1.115,0.398,1.411,1.979,2.411,2.614c0.694,0.442,1.831-0.104,2.426,0.461
		c0.365,0.348-0.753,1.088-0.409,1.455c0.492,0.527,1.458,0.654,2.132,0.392c0.99-0.385,1.351-1.821,2.363-2.14
		c0.669-0.212,1.491,1.295,1.959,0.773c0.556-0.619-1.273-2.552-0.448-2.456c1.756,0.205,2.732,2.427,4.429,2.924
		c0.501,0.146,0.207-1.102,0.594-1.45c0.208-0.188,0.547,0.115,0.821,0.175c0.352,0.074,0.707,0.141,1.056,0.227
		c1.523,0.367,3,1.238,4.565,1.135c0.822-0.055,1.325-2.131,1.917-1.561c0.641,0.616-1.617,1.917-0.944,2.497
		c1.122,0.969,3.029-0.009,4.419,0.503c0.625,0.231,0.58,1.719,1.232,1.581c0.603-0.13-0.293-1.328,0.028-1.854
		c0.543-0.886,1.437-1.566,2.36-2.044c1.245-0.645,3.387-0.005,4.015-1.258c0.74-1.477-1.098-3.223-0.945-4.865
		c0.044-0.485,1.103,0.062,1.431-0.298c0.772-0.845,0.509-3.338,1.611-3.033c2.512,0.693,3.549,4.021,5.914,5.11
		c0.796,0.366,1.59-1.904,2.262-1.343c1.364,1.14,0.793,3.66,2.036,4.932c0.51,0.521,1.666-0.128,2.061-0.741
		c0.584-0.908-0.348-2.512,0.479-3.203c0.912-0.764,2.744,0.678,3.564-0.181c0.654-0.686-1.685-2.434-0.787-2.731
		c1.894-0.628,3.911,1.213,5.897,1.034c1.626-0.147,2.857-2.038,4.487-1.968c1.412,0.063,2.144,2.44,3.552,2.321
		c0.895-0.074-0.29-2.155,0.455-2.654C2646.749,1548.073,2649.503,1549.282,2650.646,1547.805L2650.646,1547.805z"/>
	
		<path id="path70" shape-rendering="geometricPrecision" image-rendering="optimizeQuality" fill="#C4C4C4" stroke="#FFFFFF" stroke-width="0.6548" stroke-linejoin="bevel" d="
		M2587.915,1488.819c-0.845,0.243-2.103-0.694-2.639,0.007c-0.737,0.964,0.633,2.727-0.155,3.65
		c-0.664,0.779-2.102,0.468-3.062,0.116c-0.687-0.252-0.642-1.883-1.358-1.737c-2.088,0.426-3.932,1.79-5.579,3.151
		c-0.51,0.422,1.416-0.523,1.971-0.169c1.163,0.74,2.78,1.76,2.702,3.144c-0.069,1.211-2.461,0.945-2.999,2.031
		c-0.269,0.544,1.346,0.055,1.737,0.517c0.777,0.916,0.698,2.391,1.496,3.288c0.403,0.453,1.691-0.211,1.772,0.392
		c0.127,0.944-1.816,1.651-1.383,2.498c0.521,1.02,2.601,0.165,3.233,1.119c0.446,0.673-1.144,1.39-1.042,2.193
		c0.058,0.452,1.373-0.257,1.343,0.197c-0.044,0.688-1.972,1.016-1.451,1.463c1.354,1.162,3.383,2.184,5.082,1.651
		c1.063-0.333-0.596-2.716,0.321-3.348c1.251-0.862,3.147,0.58,4.546-0.007c1.079-0.454,1.165-2.154,2.138-2.807
		c0.76-0.51,1.933,0.046,2.706-0.443c0.311-0.197-0.683-0.938-0.336-1.06c1.116-0.393,2.387,0.155,3.548-0.074
		c0.354-0.069,0.419-0.888,0.76-0.775c1.544,0.513,2.662,2.031,4.235,2.436c0.432,0.111-0.354-1.051-0.021-1.351
		c0.315-0.283,1.192,0.671,1.247,0.249c0.238-1.872-1.236-3.875-0.558-5.634c0.504-1.307,2.659-1.121,3.572-2.177
		c0.496-0.574,0.743-1.674,0.272-2.268c-0.785-0.988-2.518-0.751-3.391-1.662c-0.421-0.439,0.554-1.514,0.04-1.838
		c-1.229-0.774-3.142,0.083-4.275-0.83c-0.692-0.557,0.637-2.158-0.081-2.679c-1.319-0.955-3.347-0.129-4.799-0.861
		c-0.542-0.273,0.148-1.879-0.45-1.778C2593.854,1485.963,2591.037,1487.917,2587.915,1488.819z"/>
	
		<path id="path72" shape-rendering="geometricPrecision" image-rendering="optimizeQuality" fill="#C4C4C4" stroke="#FFFFFF" stroke-width="0.6548" stroke-linejoin="bevel" d="
		M2524.854,1622.698c-1.101-0.065-2.403-0.829-3.304-0.193c-0.891,0.631,0.204,3.234-0.886,3.158
		c-2.104-0.148-3.533-2.315-5.216-3.587c-0.651-0.494-1.585-0.905-1.768-1.7c-0.537-2.33,0.898-5.084-0.274-7.167
		c-1.86-3.308-4.949-5.944-8.199-7.903c-1.098-0.662-2.547,0.975-3.793,0.666c-1.546-0.384-3.113-1.287-4.01-2.604
		c-0.812-1.19,0.123-3.075-0.679-4.271c-1.018-1.52-3.271-1.848-4.392-3.297c-1.065-1.376-0.847-3.487-1.919-4.856
		c-0.915-1.168-2.827-1.235-3.758-2.391c-0.799-0.992-0.224-1.935-0.206-2.531c0.018-0.598,0.417-1.32,0.053-1.792
		c-0.356-0.462-1.25-0.01-1.715-0.362c-1.628-1.238-2.601-3.308-4.398-4.287c-1.459-0.795-3.318-1.224-4.925-0.793
		c-0.667,0.18,0.872,2.071,0.181,2.068c-2.662-0.008-5.647-0.407-7.708-2.092c-1.502-1.226-0.699-3.897-1.676-5.573
		c-0.793-1.361-2.106-2.415-3.454-3.227c-1.128-0.681-2.904-0.161-3.789-1.139c-1.115-1.231-1.437-3.083-1.534-4.74
		c-0.105-1.775,1.673-3.626,0.951-5.25c-0.614-1.381-3.359-0.578-4.123-1.88c-1.395-2.375-0.869-5.4-1.485-8.063
		c-0.165-0.709-0.19-1.077-0.569-1.294c-0.648-0.368-2.001,0.528-2.235-0.18c-0.757-2.301,1.058-5.207-0.219-7.264
		c-1.041-1.678-4.124-0.691-5.557-2.048c-1.677-1.584-3.654-3.921-3.14-6.171c0.458-2.007,4.165-1.477,5.285-3.204
		c0.953-1.469-0.392-3.601,0.198-5.247c0.228-0.636,1.534-0.101,1.917-0.657c0.407-0.587-0.314-1.516,0.019-2.146
		c1.598-3.026,4.12-4.703,3.95-5.367c-0.17-0.663,0.024-1.567-0.513-1.988l0.513,1.988c1.058,0.497,2.02,1.664,3.176,1.491
		c1.536-0.229,2.35-2.664,3.896-2.549c1.244,0.092,1.123,2.447,2.24,3.004c0.641,0.32-0.953-1.61-0.436-2.103
		c0.728-0.694,2.218,0.292,2.998-0.339c0.444-0.358-1.123-1.384-0.597-1.604c2.432-1.02,5.152-1.554,7.785-1.416
		c1.185,0.063,1.783,1.828,2.958,1.98c1.005,0.131,1.771-1.292,2.783-1.231c1.073,0.064,1.751,1.685,2.821,1.57
		c1.037-0.111,1.92-1.145,2.306-2.113c0.506-1.27-0.642-2.995,0.167-4.096c0.585-0.797,2.077,0.271,2.963-0.167
		c0.373-0.184-0.45-1.009-0.108-1.247c1.677-1.163,3.909-1.356,5.572-2.538c0.858-0.609,0.811-2.124,1.722-2.647
		c0.415-0.239,0.248,1.131,0.712,1.251c1.26,0.325,2.687-0.515,3.905-0.057c1.919,0.722,3.278,4.38,5.098,3.44
		c1.796-0.927-1.082-4.347-0.019-6.065c0.816-1.319,3.15-0.417,4.5-1.177c0.495-0.28,0.754-1.132,0.492-1.637
		c-0.253-0.487-1.383,0.05-1.584-0.461c-0.294-0.747-0.025-1.73,0.469-2.363c0.28-0.36,0.917,0.001,1.375,0.001
		c0.584-0.136,1.241-0.717,1.751-0.405c0.566,0.346-0.001,1.869,0.664,1.88c0.804,0.014,0.801-2.108,1.56-1.843
		c1.043,0.366,0.536,2.496,1.551,2.935c0.793,0.342,1.5-0.863,2.25-1.295c0.542,1.062,1.46,2.006,1.623,3.187
		c0.055,0.396-0.974-0.43-1.198-0.098c-0.668,0.99-2.187,3.062-1.05,3.429c2.786,0.899,5.805-1.063,8.729-0.952
		c0.595,0.022,1.513,0.825,1.197,1.33c-0.465,0.741-2.037,0.035-2.515,0.769c-0.307,0.471,0.839,0.779,1.349,1.019
		c2.001,0.941,3.956,2.211,6.149,2.508c1.264,0.172,2.501-1.742,3.643-1.176c1.68,0.833,1.652,3.612,3.25,4.595
		c1.014,0.624,3.702-1.596,3.544-0.418l-0.381,2.851c-0.226,1.687,3.215,1.145,4.873,1.527c0.53,0.122,1.453-0.542,1.63-0.03
		c0.232,0.669-1.147,1.196-0.985,1.887l1.166,4.923c0.141,0.597-1.649-0.645-1.842-0.063c-1.289,3.889-2.291,8.01-2.148,12.106
		c0.031,0.888,2.633-0.25,2.59,0.639c-0.05,1.038-2.009,0.786-2.698,1.563c-0.605,0.683-0.109,2.233-0.958,2.563
		c-0.696,0.271-0.87-1.587-1.617-1.558c-1.35,0.052-3.041,0.554-3.656,1.758l-1.761,3.448c-0.213,0.42,0.262,1.112,0.721,1.215
		c1.088,0.241,2.862-1.322,3.329-0.312c0.44,0.956-2.761,0.067-2.963,1.101c-0.22,1.125,2.612,1.535,2.235,2.617
		c-0.346,0.996-4.104-0.433-3.165,0.052l5.748,2.959c2.536,1.306-1.583,5.625-1.294,8.465c0.072,0.712,1.774-0.626,2.147-0.018
		c0.623,1.021,0.024,2.393,0.036,3.59c-0.441,1.025-1.383,1.963-1.325,3.079c0.026,0.507,1.366-0.22,1.501,0.269
		c0.318,1.156-0.748,2.415-0.438,3.575c0.24,0.899,1.907,1.088,1.934,2.018c0.022,0.767-1.411,0.746-1.837,1.385
		c-0.395,0.593-0.624,1.388-0.477,2.087c0.434,2.051,2.013,3.816,2.166,5.907c0.087,1.188-0.642,2.418-1.499,3.247
		c-0.843,0.816-2.652,0.344-3.251,1.353c-0.578,0.974,0.978,2.373,0.444,3.374c-0.378,0.712-1.958-0.374-2.4,0.301
		c-0.442,0.674,0.091,1.773,0.679,2.325c0.473,0.441,2.188-0.47,1.94,0.126c-0.575,1.379-3.028,1.593-3.272,3.067
		c-0.238,1.436,2.122,2.357,2.132,3.813c0.006,0.809-1.733,0.497-2.099,1.219c-0.452,0.895,0.595,2.235-0.042,3.012
		c-0.494,0.604-1.649-0.477-2.337-0.107c-1.012,0.541-1.174,2.284-2.284,2.581c-1.038,0.278-2.336-1.991-3.013-1.157
		c-0.86,1.063,0.863,2.692,0.676,4.048c-0.066,0.479-1.387,0.138-1.321,0.619c0.224,1.649,1.954,2.905,2.024,4.569
		c0.041,0.972-0.889,1.869-1.736,2.348c-0.388,0.22-0.802-1.039-1.121-0.729c-1.007,0.973-1.769,2.326-1.97,3.713
		C2523.975,1618.912,2524.653,1620.81,2524.854,1622.698L2524.854,1622.698z"/>
	
		<path id="path74" shape-rendering="geometricPrecision" image-rendering="optimizeQuality" fill="#C4C4C4" stroke="#FFFFFF" stroke-width="0.6548" stroke-linejoin="bevel" d="
		M2603.359,1408.458c0.863,2.053,4.475,0.825,6.453,1.867c0.67,0.353,0.259,1.787,0.971,2.045c1.6,0.582,3.751,1.19,5.111,0.17
		c1.725-1.295,0.532-5.165,2.553-5.922c3.847-1.441,8.65,2.165,12.328,0.343c1.816-0.899-1.189-3.971-0.957-5.973
		c0.208-1.792,1.968-3.157,2.229-4.941c0.121-0.83-0.44-1.822-1.178-2.226c-0.437-0.24-0.67,1.022-1.164,0.942
		c-0.667-0.108-1.439-0.704-1.485-1.372c-0.061-0.901,0.58-1.788,1.227-2.419c0.716-0.699,1.667-1.372,2.67-1.386
		c1.984-0.027,4.091,0.297,5.815,1.272c0.546,0.31-0.652,1.345-0.291,1.856c0.38,0.539,1.274,0.396,1.931,0.47
		c0.35,0.04,0.911,0.19,1.049-0.131c0.323-0.75-0.376-1.763,0.065-2.449c0.39-0.607,1.614-1.392,2.024-0.797
		c0.718,1.04-1.1,3.229,0.04,3.786c1.492,0.73,3.132-1.639,4.781-1.425c0.734,0.095,0.049,1.651,0.617,2.126
		c0.504,0.422,1.49-0.396,1.98,0.042c0.786,0.706,1.374,1.84,1.288,2.891c-0.079,0.973-1.583,1.42-1.715,2.389
		c-0.211,1.534,0.14,3.198,0.756,4.587c0.617,1.388,1.862,2.719,2.821,3.47c0.958,0.75,2.041,0.411,2.702,0.853
		c0.661,0.442,0.81,0.282,1.035,1.642c0.227,1.361-0.227,4.283,0.293,6.332c0.125,0.493,1.02,0.8,1.444,0.518
		c1.377-0.915,1.66-3.594,3.313-3.68c2.565-0.132,4.555,2.456,7.027,3.149c0.118,0.81-0.075,1.732,0.349,2.432
		c0.568,0.935,2.245,1.118,2.458,2.189c0.41,2.075-0.982,4.195-0.771,6.3c0.123,1.219,1.631,2.034,1.728,3.257
		c0.06,0.73-1.548,1.062-1.326,1.761c0.363,1.151,2.574,1.264,2.669,2.468c0.115,1.469-2.014,2.392-2.176,3.859
		c-0.066,0.593,1.358,0.161,1.672,0.67c0.313,0.511-0.436,1.259-0.159,1.792c0.764,1.474,3.17,2.241,3.113,3.898
		c-0.04,1.142-2.14,1.118-3.29,1.053c-0.607-0.034-0.656-1.278-1.263-1.308c-1.38-0.067-2.696,1.473-4.009,1.047
		c-1.35-0.438-1.605-2.396-2.744-3.239c-0.386-0.286,0.61,1.068,0.273,1.41c-0.755,0.766-2.492,0.347-2.96,1.313
		c-0.604,1.246,1.08,2.981,0.32,4.142c-0.658,1.005-2.469,1.327-3.541,0.773c-0.966-0.497-0.175-2.357-0.967-3.096
		c-0.404-0.377-0.241,1.56-0.788,1.461c-0.968-0.175-1.267-1.599-2.164-1.997c-1.618-0.716-3.454-1.706-5.166-1.249
		c-1.519,0.406-1.592,3.437-3.166,3.481c-2.153,0.061-3.723-2.158-5.585-3.236c-1.039-0.321-2.3-0.249-3.118-0.961
		c-1.004-0.873-0.943-2.613-1.965-3.464c-0.672-0.561-1.962,0.242-2.608-0.346c-1.221-1.112-1.257-3.167-2.476-4.281
		c-0.56-0.512-1.604-0.414-2.282-0.071c-0.458,0.231-0.002,1.668-0.474,1.462c-1.214-0.528-1.611-2.179-2.743-2.864
		c-0.484-0.292-1.467-0.337-1.695,0.179c-0.456,1.033,0.854,2.522,0.123,3.384c-1.017,1.197-3.285,0.594-4.423,1.68
		c-0.46,0.438,1.094,1.081,0.894,1.684c-0.313,0.944-1.145,2.1-2.146,2.089c-1.968-0.023-3.697-2.999-5.484-2.179
		c-1.427,0.655,0.673,3.27,0.015,4.688c-0.286,0.619-1.506-0.792-2.028-0.35c-0.629,0.535,0.108,1.802-0.422,2.434
		c-0.499,0.593-1.665,0.18-2.226,0.717c-0.296,0.284,0.624,1.148,0.216,1.209c-1.38,0.208-2.755-0.759-4.145-0.614
		c-1.146,0.121-2.233,2.038-3.176,1.376c-1.139-0.802,0.404-3.254-0.698-4.102c-0.774-0.594-1.365,1.735-2.344,1.761
		c-0.768,0.02-0.822-1.739-1.586-1.661c-0.888,0.091-0.899,1.795-1.768,2.004c-0.549,0.132-0.701-0.882-1.051-1.323
		c-0.381-0.822-0.458-1.874-1.146-2.468c-0.533-0.46-1.737,0.281-2.096-0.324c-2.649-4.468-4.565-9.338-6.491-14.157
		c-0.278-0.696-0.397-1.576-0.062-2.246c0.392-0.783,1.721-0.861,2.028-1.679c0.389-1.033-0.612-2.303-0.153-3.307
		c0.479-1.046,1.61-1.752,2.675-2.199c0.354-0.148,0.808,1.054,0.922,0.69c0.37-1.173-0.456-2.557,0.026-3.689
		c0.335-0.79,1.978-0.593,2.152-1.432c0.25-1.204-1.633-2.395-1.128-3.516c0.413-0.915,1.967-0.651,2.973-0.576
		c0.287,0.021-0.618,0.6-0.387,0.77c0.979,0.717,2.163,1.218,3.363,1.415c0.849,0.138,2.081,0.272,2.542-0.45
		c0.796-1.248-0.266-3.163,0.549-4.397c0.46-0.697,1.787,0.194,2.51-0.229C2602.896,1409.964,2602.997,1409.081,2603.359,1408.458
		L2603.359,1408.458z"/>
	
		<path id="path76" shape-rendering="geometricPrecision" image-rendering="optimizeQuality" fill="#C4C4C4" stroke="#FFFFFF" stroke-width="0.6548" stroke-linejoin="bevel" d="
		M2767.605,1479.709c-0.788,3.147-1.226,6.405-2.36,9.444c-0.204,0.547-1.502,0.318-1.508,0.903c-0.012,0.98,1.546,1.57,1.471,2.546
		c-0.07,0.91-1.773,1.139-1.82,2.051c-0.052,1.025,1.502,1.623,1.576,2.647c0.082,1.139-0.812,0.871-3.481,2.988
		c-0.728,0.577-0.194,2.147-1.005,2.603c-0.92,0.517-3.278-1.314-3.16-0.264c0.553,4.865,3.894,9.088,4.705,13.917
		c0.145,0.869-1.584,0.897-2.096,1.615c-0.301,0.422-0.107,1.032-0.161,1.549c0.639,1.873,0.972,3.877,1.912,5.617
		c1.1,2.036,3.437,3.369,4.141,5.572c0.28,0.877-2.183,1.467-1.65,2.219c0.588,0.831,2.166-0.763,3.043-0.247
		c0.837,0.491,0.749,1.794,1.123,2.691c-0.368,1.434-0.738,2.867-1.107,4.301c-0.63,0.516-1.828,0.735-1.89,1.548
		c-0.098,1.277,1.192,2.295,1.497,3.54c0.078,0.316-0.648-0.895-0.775-0.594c-0.44,1.048-0.267,2.26-0.399,3.389
		c-2.655-0.927-5.199-2.289-7.968-2.781c-2.981-0.53-6.057-0.278-9.087-0.249c-0.594,0.006-1.472-0.174-1.744,0.354
		c-0.682,1.313,0.478,3.502-0.713,4.386c-1.057,0.784-2.503-1.116-3.815-1.024c-1.118,0.077-1.894,1.429-3.014,1.492
		c-0.503,0.028-0.334-1.101-0.804-1.282c-0.429-0.167-1.053,0.076-1.303,0.463c-0.493,0.764,0.003,2.063-0.7,2.643
		c-0.42,0.347-0.864-0.664-1.296-0.994c-1.072-1.159-1.854-2.685-3.22-3.473c-1.738-1.002-4.098-0.613-5.776-1.714
		c-1.197-0.785-1.113-2.865-2.341-3.604c-1.955-1.177-4.513-0.884-6.608-1.782c-0.478-0.204-0.252-1.535-0.743-1.368
		c-0.904,0.304-1.81,0.609-2.713,0.915c-1.27,0.428-1.604-2.149-2.407-3.225c-1.299-0.166-2.733,0.099-3.899-0.498
		c-0.834-0.426-0.772-2.747-1.601-2.31c-1.294,0.682-0.819,2.878-1.697,4.048c-0.28,0.375-1.491-0.37-1.408,0.094l0.273,1.493
		c0.171,0.933-1.874,0.655-2.805,0.476c-0.708-0.137-1.131-0.897-1.695-1.345c-1.172-0.762-2.911-1.024-3.515-2.283
		c-0.44-0.919,0.995-1.859,1.041-2.877c0.02-0.427-0.549,1.015-0.951,0.868c-1.266-0.464-1.997-1.92-3.254-2.41
		c-0.762-0.298-1.928,0.819-2.45,0.189c-0.56-0.677,1.107-2.007,0.46-2.599c-0.79-0.721-2.24,0.539-3.208,0.085
		c-1.035-0.486-1.275-1.966-2.206-2.631c-0.985-0.704-2.163-1.305-3.374-1.355c-1.771-0.073-3.49,1.349-5.229,0.999
		c-0.854-0.173-0.571-1.743-1.235-2.307c-1.714-1.456-3.81-2.395-5.714-3.591c0.003-1.34-0.416-2.749,0.01-4.018
		c0.17-0.508,1.335-0.028,1.519-0.53l1.059-2.888c0.242-0.663-1.264-0.915-1.374-1.611c-0.072-0.467,0.831-0.592,0.957-1.046
		c0.147-0.524,0.207-1.274-0.213-1.617c-1.405-1.149-3.604-1.179-4.839-2.511c-0.524-0.566,0.55-1.525,0.4-2.28
		c-0.078-0.393-0.302,1.209-0.652,1.013c-0.391-0.219,0.459-1.137,0.063-1.343c-1.286-0.667-2.958-0.213-4.266-0.838
		c-1.146-0.548-2.835-1.283-2.829-2.553c0.005-0.967,2.405,0.309,2.846-0.55c0.35-0.68-2.178-0.537-1.92-1.255
		c0.304-0.846,2.14,0.087,2.615-0.675c0.475-0.762-0.862-1.791-0.557-2.633c0.184-0.509,1.757,0.261,1.604-0.258
		c-0.208-0.704-2.161-0.276-1.972-0.984c0.268-1.001,1.777-1.072,2.666-1.607c0.382,0.566,0.528,1.409,1.146,1.7
		c0.419,0.196,0.905-0.279,1.274-0.557c2.441-1.837,4.35-4.491,7.125-5.766c0.694-0.32,0.548,1.761,1.302,1.893
		c1.485,0.259,2.936-1.024,4.438-0.891c1.133,0.101,1.901,1.605,3.037,1.558c1.35-0.057,2.707-0.833,3.611-1.833
		c0.494-0.546-0.354-1.597,0.05-2.21c0.55-0.832,1.521-1.445,2.498-1.649c0.714-0.149,1.709,0.062,2.079,0.689
		c0.524,0.886-0.374,2.202,0.151,3.088c0.433,0.729,1.535,1.397,2.312,1.059c2.282-0.995,3.474-3.937,5.864-4.627
		c1.786-0.515,4.033,0.121,5.407,1.375c1.291,1.179,0.312,3.799,1.576,5.006c0.917,0.873,2.713-0.53,3.798,0.122
		c0.801,0.482,0.136,2.076,0.854,2.675c0.675,0.563,1.857-0.185,2.627,0.236c0.933,0.509,1.212,1.842,2.135,2.369
		c0.758,0.433,1.858-0.132,2.597,0.332c0.823,0.519,0.729,2.306,1.698,2.373c1.278,0.088,1.999-1.848,3.269-2.027
		c0.514-0.072-0.087,1.425,0.428,1.505c0.88,0.137,1.569-1.077,2.46-1.051c1.282,0.038,2.536,1.862,3.654,1.23
		c0.832-0.471-1.692-1.658-1.333-2.543c0.453-1.115,2.544-0.772,3.113-1.832c0.317-0.591-1.806-1.102-1.299-1.539
		c2.783-2.395,6.73-3.156,9.523-5.537c0.787-0.671-0.476-2.955,0.553-3.056c2.54-0.249,4.871,1.523,7.307,2.286
		c0.728,1.515,2.336,2.504,3.817,3.294c1.642,0.875,3.593,2.205,5.351,1.594c1.632-0.568,1.544-3.154,2.732-4.409
		c0.698-0.735,2.14-0.526,2.727-1.352c1.03-1.448,0.909-3.483,1.804-5.017c0.533-0.916,1.347-1.828,2.362-2.126
		C2766.678,1478.556,2767.029,1479.547,2767.605,1479.709L2767.605,1479.709z"/>
	
		<path id="path78" shape-rendering="geometricPrecision" image-rendering="optimizeQuality" fill="#C4C4C4" stroke="#FFFFFF" stroke-width="0.6548" stroke-linejoin="bevel" d="
		M2715.718,1430.154c0.675,0.401,0.423,1.842,1.183,2.041c0.857,0.225,1.938-0.356,2.421-1.098c0.756-1.163-0.372-3.592,0.933-4.056
		c2.494-0.884,5.589-0.388,7.885,0.925c3.083,1.763,5.013,5.048,7.304,7.761c0.314,0.374,0.767,1.043,0.436,1.403
		c-0.713,0.775-2.316,0.391-2.899,1.272c-0.44,0.667,0.801,1.605,0.503,2.348c-0.24,0.597-1.568,0.176-1.765,0.789
		c-0.174,0.544,1.275,0.792,1.087,1.332c-0.447,1.275-1.412,2.511-2.637,3.085c-1.19,0.559-2.816-0.661-3.949,0.008
		c-0.895,0.529-0.259,2.263-1.048,2.943c-0.457,0.394-1.174-0.804-1.725-0.555c-1.306,0.591-2.55,1.567-3.263,2.813
		c-0.341,0.592,0.951,1.462,0.513,1.985c-0.359,0.428-0.813-1.007-1.37-0.966c-0.473,0.034-0.871,0.653-0.872,1.129
		c-0.002,1.184,0.059,2.577,0.858,3.449c0.478,0.521,1.582-0.688,2.111-0.22c1.541,1.365,2.542,6.716,3.097,5.984
		c0.26-0.343,0.827-2.459,1.94-2.733c1.286-0.316,3.041-0.527,3.951,0.436c1.436,1.516,0.67,4.361,2.063,5.919
		c0.802,0.896,2.697-0.409,3.585,0.4c3.598,3.281,6.88,7.056,9.257,11.308c1.465,2.622,0.676,6.085,1.976,8.794
		c-2.45-0.768-4.799-2.553-7.355-2.302c-1.036,0.102,0.236,2.4-0.557,3.076c-2.813,2.397-6.786,3.164-9.588,5.575
		c-0.512,0.439,1.628,0.955,1.308,1.549c-0.574,1.066-2.678,0.722-3.135,1.845c-0.363,0.891,2.181,2.086,1.341,2.56
		c-1.125,0.636-2.387-1.201-3.679-1.239c-0.896-0.026-1.59,1.197-2.477,1.058c-0.517-0.08,0.088-1.587-0.432-1.514
		c-1.276,0.18-2.002,2.129-3.289,2.041c-0.976-0.068-0.883-1.867-1.71-2.389c-0.743-0.467-1.851,0.102-2.613-0.334
		c-0.93-0.531-1.212-1.872-2.149-2.385c-0.775-0.424-1.965,0.33-2.646-0.237c-0.723-0.604-0.053-2.208-0.859-2.694
		c-1.092-0.657-2.9,0.757-3.822-0.123c-1.274-1.214-0.289-3.853-1.589-5.04c-1.382-1.263-3.646-1.903-5.443-1.384
		c-2.407,0.694-3.606,3.657-5.903,4.658c-0.782,0.341-1.893-0.333-2.327-1.066c-0.529-0.892,0.375-2.217-0.152-3.108
		c-0.374-0.632-1.374-0.844-2.095-0.694c-0.981,0.205-1.96,0.822-2.513,1.66c-0.409,0.618,0.446,1.675-0.051,2.225
		c-0.911,1.006-2.278,1.788-3.636,1.845c-1.144,0.048-1.918-1.467-3.058-1.569c-1.512-0.134-2.973,1.159-4.468,0.898
		c-0.76-0.133-0.612-2.228-1.312-1.907c-2.794,1.284-4.717,3.956-7.174,5.805c-0.372,0.28-0.861,0.759-1.283,0.561
		c-0.622-0.292-0.77-1.141-1.154-1.711c0.06-0.696,0.754-1.696,0.178-2.086c-1.63-1.104-3.785-1.101-5.68-1.639
		c-0.351-0.1-1.228,0.047-1.061-0.277c0.363-0.703,1.74-0.622,1.923-1.39c0.125-0.524-1.462-0.283-1.395-0.816
		c0.078-0.61,1.257-0.392,1.613-0.89c0.833-1.165,1.941-2.47,1.809-3.894c-0.1-1.078-2.109-1.171-2.373-2.22
		c-0.45-1.796,0.791-3.726,0.424-5.542c-0.224-1.108-0.958-2.576-2.083-2.676c-1.275-0.113-1.875,2.082-3.15,2.208
		c-1.163,0.115-1.965-1.458-3.126-1.586c-0.898-0.099-1.635,1.007-2.538,0.959c-0.709-0.038-1.579-0.505-1.771-1.189
		c-0.228-0.809,1.127-1.652,0.757-2.405c-0.396-0.804-1.864-0.411-2.47-1.072c-0.285-0.312,0.743-0.999,0.379-1.21
		c-1.349-0.782-3.225-0.331-4.525-1.192c-0.449-0.297,0.608-1.107,0.346-1.576c-0.393-0.702-2.219-0.596-1.991-1.367
		c0.305-1.037,2.238-0.658,2.847-1.548c0.353-0.515-0.781-1.199-0.566-1.785c0.157-0.43,1.069,0.056,1.337-0.313
		c0.428-0.588,0.702-1.458,0.446-2.138c-0.437-1.166-2.038-1.705-2.344-2.912c-0.242-0.955,1.079-1.854,0.886-2.82
		c-0.26-1.305-2.174-2.054-2.122-3.384c0.039-1.023,1.555-1.332,2.332-1.998c1.88,1.096,3.463,3.351,5.637,3.288
		c1.588-0.045,1.662-3.125,3.194-3.537c1.727-0.465,3.58,0.541,5.212,1.269c0.907,0.404,1.207,1.85,2.184,2.028
		c0.552,0.101,0.387-1.867,0.795-1.484c0.799,0.75,0.001,2.641,0.975,3.146c1.083,0.561,2.91,0.235,3.574-0.786
		c0.767-1.179-0.932-2.941-0.323-4.208c0.472-0.981,2.226-0.555,2.987-1.333c0.339-0.347-0.665-1.722-0.275-1.432
		c1.148,0.856,1.406,2.846,2.769,3.29c1.325,0.433,2.653-1.132,4.046-1.063c0.612,0.03,0.662,1.294,1.273,1.329
		c1.162,0.065,3.28,0.089,3.32-1.07c0.058-1.685-2.37-2.463-3.143-3.96c-0.277-0.541,0.477-1.301,0.161-1.821
		c-0.315-0.517-1.754-0.078-1.688-0.68c0.165-1.49,2.313-2.428,2.197-3.921c-0.096-1.223-2.326-1.338-2.694-2.507
		c-0.224-0.71,1.398-1.047,1.339-1.789c-0.098-1.243-1.62-2.07-1.744-3.309c-0.214-2.139,1.192-4.292,0.777-6.4
		c-0.214-1.088-1.906-1.273-2.479-2.223c-0.429-0.711-0.233-1.648-0.351-2.471c1.531,0.432,3.277-0.4,4.77,0.147
		c2.755,1.01,4.715,4.003,7.621,4.404c2.75,0.379,5.638-3.668,8.019-2.246c2.808,1.68,0.745,7.464,3.543,9.16
		c2.654,1.609,6.33-2.605,9.202-1.431c2.07,0.847,2.499,3.988,2.516,6.226c0.009,1.085-2.534,1.066-2.451,2.149
		c0.08,1.018,1.705,1.391,2.728,1.402c0.857,0.01,1.746-0.613,2.192-1.344c0.604-0.989,0.177-2.372,0.703-3.403
		c0.53-1.039,1.198-2.463,2.359-2.589C2712.326,1428.187,2714.142,1429.216,2715.718,1430.154L2715.718,1430.154z"/>
	
		<path id="path80" shape-rendering="geometricPrecision" image-rendering="optimizeQuality" fill="#C4C4C4" stroke="#FFFFFF" stroke-width="0.6548" stroke-linejoin="bevel" d="
		M2452.432,1514.874c-0.169-0.662,0.024-1.563-0.512-1.984c-1.505-1.18-4.253-0.802-5.177-2.477
		c-0.606-1.099,1.677-1.953,2.077-3.142c0.133-0.396-0.361-0.777-0.66-1.07c-0.597-0.586-1.159-1.449-1.993-1.534
		c-0.815-0.083-1.45,1.439-2.198,1.104c-0.639-0.287,0.512-1.65-0.021-2.103c-1.23-1.042-3.16-0.868-4.516-1.742
		c-0.915-0.589-1.156-1.951-2.086-2.515c-0.338-0.206-0.734,0.933-1.004,0.642c-0.503-0.543,0.204-1.787-0.421-2.182
		c-1.197-0.755-3.126,0.21-4.185-0.73c-0.577-0.512,1.468-1.447,1.022-2.075c-1.285-1.809-4.019-2.198-5.329-3.988
		c-0.72-0.983-0.511-2.454-0.267-3.647c0.218-1.061,1.527-1.75,1.596-2.831c0.076-1.211-0.463-2.476-1.203-3.437
		c-0.62-0.804-2.024-0.725-2.631-1.539c-0.553-0.743,0.151-2.12-0.549-2.725c-0.784-0.678-2.156,0.044-3.085-0.417
		c-0.644-0.319-1.609-1.105-1.275-1.74c0.695-1.318,3.354-1.188,3.595-2.658c0.301-1.839-3.392-3.56-2.325-5.087
		c1.104-1.581,4.298-1.09,5.784,0.137c1.423,1.175-0.182,4.022,0.986,5.453c0.812,0.995,2.631-0.02,3.828,0.441
		c0.479,0.184,0.967,0.854,0.782,1.333c-0.288,0.744-2.188,0.757-1.875,1.492c0.623,1.468,3.129,1.492,3.761,2.956
		c0.388,0.9-1.301,1.633-1.359,2.613c-0.049,0.846,0.384,1.811,1.068,2.31c0.812,0.593,2.567,1.555,2.951,0.627
		c1.025-2.476-0.555-5.445,0.121-8.037c0.162-0.619,1.41,1.174,1.802,0.669c0.527-0.676-0.622-1.743-0.335-2.549
		c0.443-1.252,1.582-2.136,2.374-3.203c0.792-1.066-0.461,0.197,0,0c0.461-0.196,1.217-0.117,1.382-0.587
		c0.334-0.95-0.698-2.203-0.111-3.021c0.469-0.652,1.756,0.302,2.404-0.169c1.233-0.898,1.539-2.762,2.798-3.621
		c0.448-0.305,1.15,1.164,1.459,0.719c1.08-1.554,0.172-4.405,1.786-5.391c3.541-2.163,8.529-1.214,9.312-1.389
		c0.782-0.175,1.59-0.791,2.345-0.522c1.029,0.365,1.393,2.587,2.417,2.213c1.364-0.499,0.954-2.897,2.052-3.847
		c1.251-1.083,2.934-1.943,4.587-1.901c0.743,0.019,0.302,2.482,0.899,2.042c0.935-0.69-0.206-3.731,0.897-3.369
		c3.808,1.25,10.14,9.452,8.995,6.619c-0.117-0.292-0.516-0.744-0.353-0.873l0.353,0.873c0.643,0.563,1.09,1.527,1.928,1.688
		c1.115,0.214,2.212-0.797,3.34-0.673c1.939,0.214,4.181,0.339,5.611,1.665c0.766,0.71-0.796,2.107-0.473,3.102
		c0.195,0.601,1.102,0.805,1.73,0.767c2.301-0.139,4.525-1.674,6.794-1.281c1.106,0.192,1.878,1.667,1.894,2.79
		c0.034,2.361-1.625,4.505-1.759,6.862c-0.026,0.459,1.129-0.108,1.349,0.295c0.43,0.785,0.507,1.809,0.278,2.676
		c-0.119,0.45-1.328,0.302-1.188,0.749c0.321,1.017,1.816,1.349,2.167,2.356c0.171,0.489-1.074,0.776-0.904,1.265
		c0.18,0.518,1.224,0.122,1.545,0.565c0.889,1.231,1.452,2.697,1.868,4.157c0.128,0.449,0.068,1.071-0.289,1.375
		c-0.334,0.284-1.315-0.45-1.316-0.011c-0.002,0.85,1.862,1.547,1.309,2.192s-1.518-1.038-2.365-0.964
		c-0.693,0.06-2.071,0.775-1.626,1.31c0.733,0.882,2.441,0.076,3.354,0.769c0.976,0.74,1.232,2.119,1.847,3.18
		c-0.457,0-1.092-0.36-1.373-0.002c-0.492,0.63-0.761,1.612-0.467,2.357c0.201,0.511,1.328-0.025,1.581,0.46
		c0.262,0.502,0.003,1.354-0.491,1.632c-1.347,0.759-3.675-0.141-4.489,1.175c-1.06,1.714,1.811,5.126,0.02,6.051
		c-1.816,0.938-3.172-2.713-5.086-3.432c-1.215-0.456-2.639,0.382-3.896,0.057c-0.463-0.12-0.296-1.485-0.71-1.247
		c-0.91,0.521-0.861,2.032-1.718,2.641c-1.658,1.179-3.884,1.371-5.558,2.531c-0.341,0.237,0.48,1.061,0.108,1.245
		c-0.884,0.437-2.372-0.629-2.956,0.166c-0.807,1.098,0.338,2.819-0.166,4.086c-0.385,0.965-1.267,1.997-2.301,2.107
		c-1.066,0.114-1.743-1.502-2.814-1.566c-1.009-0.061-1.774,1.358-2.776,1.228c-1.173-0.151-1.769-1.913-2.951-1.975
		c-2.627-0.138-5.341,0.394-7.766,1.412c-0.524,0.219,1.038,1.243,0.595,1.6c-0.779,0.63-2.265-0.354-2.991,0.338
		c-0.516,0.492,1.075,2.417,0.436,2.099c-1.115-0.556-0.993-2.905-2.235-2.997c-1.543-0.115-2.354,2.313-3.887,2.543
		C2454.447,1516.532,2453.488,1515.369,2452.432,1514.874L2452.432,1514.874z"/>
	
		<path id="path82" shape-rendering="geometricPrecision" image-rendering="optimizeQuality" fill="#C4C4C4" stroke="#FFFFFF" stroke-width="0.6548" stroke-linejoin="bevel" d="
		M2482.204,1459.159c-0.119-0.294-0.521-0.75-0.357-0.88c0.855-0.682,2.232-0.355,3.135-0.968c1.014-0.69,1.999-1.635,2.396-2.793
		c0.795-2.315-0.49-5.374,1.059-7.267c0.871-1.065,2.616,1.287,3.979,1.106c1.343-0.178,2.149-1.881,3.487-2.089
		c0.502-0.078-0.126,1.297,0.344,1.486c1.279,0.516,3.238,1.375,4.125,0.321c2.292-2.726,2.063-6.911,3.953-9.928
		c0.41-0.655,1.656-0.482,2.321-0.087c0.609,0.361,0.177,1.689,0.833,1.959c0.742,0.305,1.876,0.005,2.314-0.666
		c0.561-0.856-0.476-2.25,0.134-3.072c0.624-0.84,2.295-0.267,2.946-1.086c0.771-0.972-0.435-3.738,0.799-3.635
		c1.653,0.138,1.771,2.868,3.026,3.954c0.941,0.814,2.2,1.988,3.381,1.592c1.909-0.64,3.316-2.462,4.349-4.189
		c0.315-0.527-1.073-1.043-0.874-1.625c0.385-1.121,2.14-1.505,2.349-2.671c0.204-1.136-1.984-2.295-1.289-3.215
		c0.899-1.189,2.956-0.459,4.385-0.881c1.954-0.576,3.701-2.03,5.734-2.104c1.192-0.043,1.91,1.842,3.104,1.788
		c0.83-0.039,0.66-1.921,1.485-1.997c2.484-0.229,4.907,0.955,7.391,1.182c0.614,0.056,1.369,0.086,1.819-0.334
		c0.447-0.418-0.069-1.448,0.442-1.787c0.46-0.305,1.344,0.921,1.6,0.432c1.008-1.921,0.282-4.536,1.495-6.333
		c0.458-0.679,1.643,0.911,2.389,0.573c1.571-0.712,2.205-3.035,3.885-3.418c1.157-0.264,1.904,1.535,3.052,1.83
		c0.453,0.117,0.773-0.541,1.198-0.736c4.178-1.924,8.764-3.083,12.602-5.617c0.895-0.591-0.337-2.765,0.664-3.148
		c3.507-1.34,7.737,0.114,11.181-1.379c1.232-0.534,1.885-2.896,0.998-3.903c-1.507-1.711-4.417-1.257-6.452-2.288
		c-0.455-0.229-0.954-0.888-0.729-1.344c0.284-0.575,1.401-0.235,1.771-0.759c0.283-0.401,0.279-1.371-0.205-1.463
		c-0.94-0.179-1.775,0.961-2.731,0.901c-0.772-0.049-1.983-0.428-1.986-1.201c-0.006-1.647,1.673-2.914,1.968-4.533
		c0.104-0.576-1.06-0.981-0.862-1.531c0.3-0.833,1.149-1.749,2.032-1.709c1.041,0.047,1.486,1.583,2.475,1.913
		c1.042,0.348,2.288-0.414,3.299,0.016c0.926,0.394,1.018,2.186,2.022,2.247c1.218,0.075,1.898-1.824,3.113-1.932
		c1.044-0.094,1.836,1.785,2.813,1.407c0.854-0.332-0.366-2.932,0.521-2.702c0.913,0.237-0.562,2.056-0.025,2.832
		c0.481,0.696,1.775,0.159,2.447,0.67c0.371,0.282-0.196,1.237,0.248,1.379c0.663,0.211,1.399-1.053,1.978-0.669
		c1.229,0.813,2.498,2.166,2.515,3.64c0.028,2.412-3.774,4.854-2.393,6.832c1.2,1.718,5.067-3.348,6.098-1.524
		c1.424,2.519-3.327,5.727-2.21,8.4c-0.366,0.633-0.468,1.532-1.099,1.902c-0.73,0.429-2.068-0.477-2.533,0.232
		c-0.824,1.253,0.249,3.199-0.555,4.466c-0.464,0.733-1.708,0.598-2.564,0.458c-1.212-0.2-2.407-0.708-3.395-1.438
		c-0.233-0.171,0.681-0.76,0.391-0.781c-1.014-0.078-2.583-0.344-3,0.585c-0.51,1.139,1.39,2.348,1.139,3.572
		c-0.176,0.852-1.833,0.651-2.172,1.454c-0.486,1.15,0.347,2.556-0.026,3.748c-0.116,0.37-0.574-0.851-0.931-0.701
		c-1.074,0.453-2.216,1.171-2.699,2.233c-0.463,1.019,0.546,2.309,0.154,3.359c-0.31,0.831-1.65,0.91-2.046,1.706
		c-0.338,0.68-0.218,1.574,0.063,2.281c1.943,4.896,3.877,9.844,6.55,14.383c0.362,0.614,1.576-0.139,2.114,0.328
		c0.695,0.603,0.771,1.671,1.156,2.507c-0.743,0.365-2.119,0.276-2.231,1.097c-0.248,1.804,2.115,3.643,1.352,5.296
		c-0.508,1.099-2.654-1.15-3.611-0.408c-0.958,0.745,0.547,3.018-0.513,3.609c-0.973,0.542-1.78-1.463-2.862-1.727
		c-0.45-0.11-1.195,0.282-1.179,0.746c0.05,1.422,1.269,2.636,1.342,4.058c0.085,1.637,0.512,3.983-0.886,4.836
		c-1.861,1.134-4.454-0.955-6.537-0.309c-1.129,0.35-0.801,2.776-1.972,2.952c-1.664,0.25-2.985-1.742-4.655-1.959
		c-0.443-0.058,0.073,1.097-0.323,1.307c-0.86,0.459-1.926,0.489-2.897,0.411c-2.224-0.181-4.409-0.706-6.59-1.181
		c-0.884-0.193-1.697-0.973-2.588-0.819c-1.038,0.18-2.282,0.739-2.648,1.727c-0.409,1.103,1.419,2.508,0.723,3.457
		c-0.583,0.794-2.039-0.893-2.923-0.458c-0.523,0.256,0.829,1.36,0.364,1.716c-1.639,1.256-4.11,1.097-5.721,2.393
		c-0.836,0.672-0.371,2.216-1.049,3.052c-0.385,0.474-1.256,0.745-1.782,0.435c-0.953-0.563-0.92-2.958-1.986-2.663
		c-2.049,0.566-2.608,3.614-4.554,4.474c-1.748,0.773-3.899,0.606-5.736,0.077c-0.569-0.164,0.353-2.114-0.128-1.771
		c-1.873,1.335-2.597,4.022-4.607,5.146c-1.379,0.771-3.238-0.401-4.742,0.084c-1.554,0.502-3.297,1.31-4.053,2.758
		c-0.706,1.353,0.707,3.128,0.224,4.577c-0.175,0.525-1.195-0.981-1.565-0.568c-0.663,0.74,0.228,2.322-0.558,2.932
		c-0.735,0.57-1.927-0.736-2.771-0.347c-0.772,0.357-0.847,1.477-1.271,2.216c-0.755,0.435-1.466,1.648-2.265,1.304
		c-1.022-0.442-0.511-2.586-1.562-2.954c-0.764-0.268-0.761,1.868-1.569,1.855c-0.669-0.012-0.098-1.544-0.668-1.893
		c-0.514-0.313-1.174,0.272-1.762,0.409c-0.621-1.07-0.88-2.462-1.864-3.209c-0.922-0.7-2.646,0.114-3.386-0.776
		c-0.449-0.539,0.942-1.261,1.641-1.322c0.855-0.075,1.828,1.624,2.387,0.973c0.559-0.65-1.323-1.354-1.321-2.212
		c0.001-0.442,0.992,0.298,1.329,0.011c0.36-0.306,0.421-0.934,0.292-1.387c-0.42-1.474-0.988-2.953-1.885-4.195
		c-0.324-0.447-1.377-0.047-1.56-0.57c-0.171-0.494,1.085-0.784,0.913-1.277c-0.355-1.016-1.863-1.35-2.188-2.377
		c-0.143-0.45,1.078-0.301,1.198-0.755c0.231-0.875,0.154-1.908-0.28-2.701c-0.222-0.406-1.388,0.167-1.361-0.297
		c0.135-2.378,1.809-4.542,1.775-6.924c-0.016-1.134-0.795-2.623-1.911-2.816c-2.291-0.396-4.535,1.152-6.856,1.293
		c-0.635,0.039-1.55-0.167-1.748-0.773c-0.325-1.003,1.25-2.414,0.478-3.13c-1.443-1.338-3.706-1.464-5.663-1.68
		c-1.138-0.125-2.245,0.896-3.371,0.679C2483.302,1460.701,2482.851,1459.727,2482.204,1459.159L2482.204,1459.159z"/>
</g>
</svg>
