<svg enable-background="new 0 0 500 286.25" height="286.25" viewBox="0 0 500 286.25" width="500" xmlns="http://www.w3.org/2000/svg"><g fill="#c9c9c9" image-rendering="optimizeQuality" shape-rendering="geometricPrecision" stroke="#fff" stroke-linejoin="bevel"><path d="m389.396 86.76c-.107 1.668.857 3.822-.321 5.006-.862.867-2.376-1.746-3.469-1.198-1.292.647-.845 2.921-1.911 3.897-.675.616-1.984-.198-2.724.341-1.937 1.417-3.82 3.125-4.93 5.255-.473.906.873 2.01.633 3.003-.189.783-1.678.856-1.765 1.659-.165 1.496 1.494 2.929 1.1 4.382-.464 1.709-2.503 2.558-3.398 4.086-.927 1.578-2.315 3.311-2 5.113.301 1.711 3.376 2.078 3.564 3.805.157 1.429-2.252 1.961-2.782 3.297-.184.465 1.136.595 1.041 1.087-.271 1.431-2.173 2.45-1.988 3.898.198 1.584 1.438 3.283 2.96 3.767 1.098.35 2.131-2.774 2.89-1.907 1.021 1.166-1.242 3.259-.51 4.626.422.789 1.701-.994 2.571-.783 1.969.478 3.428 2.454 5.438 2.731.95.131 1.534-2.141 2.361-1.653 2.369 1.4 3.062 4.806 5.408 6.245 1.191.729 2.813-.662 4.177-.371 1.083.232 1.664 2.017 2.758 1.854.847-.123.062-2.481.91-2.396 1.695.169 2.515 2.725 4.209 2.91 1.259.138 1.901-2.186 3.163-2.101 1.896.128 4.119 1 5.055 2.658.81 1.438-1.232 3.293-.803 4.889.309 1.141 1.559 2.146 2.733 2.257.805.073.908-2.331 1.562-1.855 1.53 1.114 1.454 3.582 2.729 4.98.66.724 2.003.399 2.757 1.022 1.526 1.268 3.211 2.637 3.9 4.496.286.77-1.371 1.145-1.499 1.955-.094.596.343 1.612.944 1.551 1.318-.136 2.16-2.342 3.438-2.002 1.114.297.814 2.162 1.224 3.242-.422 1.073-.183 2.836-1.269 3.221-1.352.479-2.698-1.619-4.1-1.316-.734.158.312 1.701-.207 2.246-.955 1.003-2.927.732-3.711 1.873-.431.628 1.16 1.294 1.018 2.039-.134.705-1.352.725-1.667 1.369-.248.513.114 1.135.171 1.701-1.411.293-2.852 1.284-4.231.877-1.123-.332-1.24-2.054-2.17-2.767-.322-.248-.979-.17-1.214.164-.52.741.096 2.247-.731 2.616-.953.426-2.657-1.948-2.987-.957-.452 1.361 1.874 2.365 2.048 3.789.091.738-.645 1.625-1.377 1.757-3.07.555-6.366-.681-9.366.184-.775.222 1.152 1.507.867 2.263-.512 1.354-1.494 3.063-2.938 3.207-1.104.108-.853-2.367-1.898-2.73-1.745-.604-3.946 1.09-5.54.154-1.072-.631.744-3.602-.494-3.702-1.428-.117-2.431 2.026-2.563 3.452-.153 1.63 2.11 2.959 1.807 4.568-.199 1.062-2.187.604-2.931 1.387-1.019 1.07-.968 2.965-2.105 3.906-.57.471-1.461-.238-2.188-.357-1.569.302-4.291-.635-4.705.906l-.89 3.295c-.135.502-.884-.545-1.326-.816-.582-1.932-.315-4.372-1.749-5.788-1.911-1.89-5.729-1.124-7.388-3.239-.976-1.242 1.199-2.992 1.263-4.57.021-.561-.531-1.582-1.031-1.332-.805.404-.329 2.76-1.169 2.438-1.127-.432-.516-2.461-1.295-3.381-.509-.6-1.841-.089-2.229-.771-.507-.888.487-2.146.041-3.064-.426-.874-1.803-.92-2.365-1.712-.559-.782-.09-2.146-.824-2.763-.794-.666-2.2-1.072-3.067-.508-1.131.737-2.262 1.477-3.393 2.213-1.021.666 2.164 1.246 2.924 2.199.771.967 1.504 2.148 1.519 3.383.008.578-1.244.389-1.47.92-.313.746.44 1.721.056 2.435-.537.992-1.449 2.364-2.57 2.212-1.934-.264-3.61-1.752-4.885-3.229-.443-.516-.039-1.471.379-2.004.45-.576 2.046-.264 1.964-.992-.117-1.034-1.92-1.139-2.313-2.102-.76-1.861-1.07-3.947-.981-5.955.021-.455 1.037-.104 1.272-.488.368-.603-.165-1.576.312-2.096.387-.421 2.269.012 1.711-.105-2.353-.496-5.356.57-7.142-1.039-1.249-1.128-.842-3.913.414-5.033.96-.855 2.339 1.908 3.556 1.495.97-.33.516-1.979.772-2.97.135-1.133-.041-2.348.4-3.397.127-.301.855.913.777.597-.307-1.248-1.601-2.269-1.5-3.549.061-.813 1.262-1.033 1.893-1.551.369-1.438.74-2.874 1.111-4.311-.375-.901-.287-2.207-1.127-2.699-.878-.516-2.461 1.082-3.051.249-.531-.755 1.937-1.345 1.655-2.224-.706-2.211-3.049-3.545-4.149-5.585-.942-1.743-1.278-3.753-1.917-5.63.055-.518-.142-1.13.161-1.553.514-.72 2.246-.749 2.101-1.62-.813-4.84-4.162-9.073-4.715-13.949-.119-1.053 2.245.783 3.168.265.812-.457.276-2.031 1.006-2.609 2.678-2.122 3.571-1.854 3.489-2.995-.073-1.027-1.632-1.626-1.578-2.653.046-.914 1.753-1.144 1.823-2.056.073-.979-1.485-1.57-1.476-2.552.006-.586 1.308-.356 1.511-.905 1.141-3.046 1.577-6.312 2.367-9.466.433.122 1.044.154 1.334-.186.622-.729.257-2.2 1.098-2.661 1.247-.684 2.999.378 4.259-.278.777-.405.12-2.656.971-2.446 1.228.303 1.072 2.393 2.052 3.192.356.29 1.281 0 1.304-.46.131-2.86.425-6.001-.895-8.542-.78-1.506-3.635-.736-4.634-2.107-1.722-2.362-1.337-5.812-2.923-8.265-.753-1.163-3.163-.655-3.678-1.941-.519-1.292.531-2.813 1.312-3.966.406-.6 1.296-1.143 1.982-.906 1.896.656 3.108 2.718 5.021 3.333.646.208.99-1.301 1.659-1.186 1.528.263 2.615 1.771 4.108 2.184 1.351.371 2.905-.429 4.198.104 1.116.459 1.31 2.32 2.472 2.645 1.403.394 2.955-1.272 4.315-.744.734.285-.634 1.734-.156 2.362 1.468 1.925 3.243 3.93 5.538 4.698 1.735.581 4.146-2.382 5.391-1.041 1.665 1.798-.115 4.955.446 7.341.161.684.287-1.49.828-1.938.489-.406 1.25-.343 1.883-.311.806.04 1.785-.038 2.357.528.631.62-.122 2.551.769 2.555z" stroke-width=".2416"/><path d="m465.759 180.107c-.974-.25-2.886.252-2.925-.748l-.128-3.226c-.049-1.226-2.385-.911-3.22-1.812-1.172-1.264-1.012-3.786-2.601-4.461-2.005-.852-4.396 1.109-6.513.592-1.4-.344-1.811-2.421-3.149-2.956-.673-.271-1.254.966-1.977.903-.456-.039-.306-1.189-.76-1.141-3.313.354-6.424 2.631-9.733 2.254-1.292-.146-.479-2.879-1.594-3.541-1.201-.715-2.802.063-4.202.094-.407-1.073-.108-2.926-1.223-3.223-1.278-.337-2.116 1.854-3.436 1.989-.601.063-1.037-.948-.941-1.541.127-.806 1.781-1.181 1.497-1.94-.69-1.849-2.371-3.209-3.896-4.469-.754-.619-2.093-.299-2.753-1.018-1.276-1.389-1.2-3.842-2.728-4.949-.652-.473-.757 1.919-1.561 1.844-1.175-.107-2.423-1.107-2.73-2.242-.431-1.582 1.61-3.428.802-4.855-.935-1.646-3.152-2.514-5.048-2.641-1.262-.084-1.904 2.225-3.16 2.088-1.692-.187-2.51-2.724-4.203-2.893-.849-.084-.064 2.26-.909 2.383-1.095.16-1.673-1.614-2.755-1.844-1.364-.29-2.98 1.094-4.171.368-2.346-1.43-3.038-4.813-5.406-6.205-.824-.485-1.407 1.773-2.356 1.643-2.007-.276-3.463-2.239-5.432-2.714-.868-.209-2.146 1.562-2.568.778-.73-1.359 1.529-3.439.51-4.597-.759-.862-1.789 2.241-2.887 1.895-1.52-.481-2.757-2.17-2.957-3.744-.183-1.438 1.717-2.452 1.987-3.874.094-.489-1.223-.618-1.038-1.08.529-1.327 2.936-1.857 2.778-3.276-.19-1.716-3.262-2.081-3.563-3.782-.315-1.79 1.073-3.513 1.999-5.081.896-1.519 2.932-2.362 3.395-4.06.396-1.444-1.264-2.868-1.099-4.355.088-.797 1.572-.87 1.763-1.648.24-.988-1.103-2.083-.632-2.985 1.106-2.116 2.99-3.813 4.925-5.221.736-.536 2.046.273 2.72-.339 1.066-.969.617-3.229 1.907-3.872 1.093-.545 2.604 2.052 3.467 1.19 1.178-1.177.213-3.317.318-4.974 1.768.006 2.952-2.051 4.652-2.522 2.258-.627 4.655-.838 6.997-.717.786.04 1.311 1.468 2.043 1.184 1.898-.738 3.636-2.134 4.761-3.827.56-.84-1.218-2.954-.207-3.019 1.854-.119 4.156 1.01 4.854 2.723.673 1.639-2.006 3.305-1.676 5.044.232 1.229 2.504 1.083 3.051 2.207.491 1.003.406 2.505-.346 3.333-.663.729-2.141-.264-2.952.295-.707.486-.222 1.93-.945 2.388-2.37 1.5-6.766.561-7.813 3.155-.857 2.123 2.74 3.707 4.408 5.28.512.483 1.304.945 1.979.75.626-.182.417-1.583 1.066-1.633.83-.065 1.58.722 2.075 1.388 1.51 2.034 2.711 4.293 3.837 6.563.407.821.031 2.06.734 2.651.938.789 2.579.224 3.563.955.512.379-.13 1.393.27 1.888.807.996 1.847 2.023 3.105 2.275 1.295.26 2.763-.153 3.862-.878 1.04-.686 1.15-2.287 2.12-3.067 1.026-.827 2.319-1.506 3.642-1.57 1.101-.053 2.16 1.878 3.061 1.248.916-.642.673-2.509-.067-3.344-.695-.785-2.249.261-3.148-.285-.47-.286-.355-1.207-.024-1.643.557-.735 1.45-1.551 2.368-1.445 1.479.171 2.998.991 3.896 2.169 1.049 1.378.465 3.597 1.533 4.959.848 1.082 2.361 1.857 3.734 1.761.776-.054.355-1.688 1.02-2.087.689-.416 1.84-.541 2.425.013.79.748-.011 2.533.898 3.133 1.271.841 3.287-.367 4.558.475.771.51-.214 1.983.304 2.746.763 1.124 1.936 2.104 3.244 2.479.482.139-.034-1.154.331-1.561.409-.453 1.599-.097 1.701-.696.111-.637-1.98-1.354-1.333-1.419 2.428-.247 4.975.018 7.278.819 2.298.798 3.871 3.117 6.188 3.861.819.263 1.901-.382 2.324-1.128.328-.576-1.131-1.486-.606-1.893.684-.529 2.216-.414 2.571.371.639 1.412-.898 3.208-.304 4.641.475 1.146 2.963.858 3.097 2.09.164 1.514-2.73 2.365-2.457 3.865.782 4.301 2.547 8.618 5.346 11.989 1.233 1.486 3.987.328 5.671 1.281.702.398.175 1.697.684 2.322.388.477 1.119.633 1.735.646 1.592.038 3.862-1.803 4.748-.489 2.252 3.334 1.519 7.918 2.833 11.716.36 1.043 2.001 1.465 2.112 2.563.116 1.14-1.381 1.944-1.541 3.081-.057.394 1.369.462 1.013.64-.894.45-2.09-.094-2.984.354-1.691.845-2.662 3.105-4.53 3.406-1.751.28-3.203-1.834-4.975-1.875-1.531-.035-2.75 1.668-4.282 1.661-.842-.004-1.038-1.589-1.874-1.69-1.1-.137-2.218.469-3.146 1.07-.599.387-1.162 1.049-1.219 1.758-.068.886 1.247 1.711.88 2.521-.757 1.666-2.761 2.464-3.824 3.957-.546.766-.415 1.87-.906 2.674-.446.732-1.015 1.549-1.832 1.819-2.161.717-3.058-.757-3.395-.093z" stroke-width=".2407"/><path d="m374.208 199.008c-.688 1.188-2.164 2.199-2.061 3.568.165 2.224 2.334 3.906 2.777 6.094.139.682-1.829 1.434-1.19 1.716 1.249.554 3.254-1.518 4.078-.435.926 1.219-.08 3.256-1.006 4.474-.595.784-2.278-.116-2.89.655-.666.841.457 2.338-.171 3.209-.438.609-1.789-.426-2.257.163-.418.526.62 1.254.6 1.926-.012.431-1.036.837-.689 1.097.693.517 1.741.522 2.581.311 1.747-.443 3.142-2.43 4.935-2.225 1.107.125 1.376 1.861 1.531 2.959.179 1.26-1.21 2.666-.575 3.768.397.689 1.504-1.229 2.229-.895 1.041.481.878 2.418 1.95 2.827 1.459.558 3.127-.467 4.681-.297.626.069 1.427.39 1.604.99.292.979-1.149 2.347-.4 3.047.779.729 2.216-.901 3.181-.444 1.385.654 1.563 3.156 3.075 3.404 1.695.279 2.985-1.968 4.698-2.122.62-.057.381 1.324.93 1.617.85.455 2.315-.371 2.865.42.562.804-1.275 2.21-.563 2.883 1.222 1.149 3.639.095 4.903 1.199 1.779 1.558 2.346 4.104 3.52 6.155-2.895 1.728-5.329 4.816-8.685 5.182-2.297.251-3.612-3.656-5.921-3.593-1.843.05-2.378 2.896-3.946 3.86-.714.438-1.8.549-2.52.115-1.383-.832-1.815-2.844-3.252-3.582-2.97-1.527-6.235-3.337-9.563-3.018-1.769.169-1.786 3.178-3.208 4.238-.816.608-2.372-.351-3.036.424-1.355 1.578-1.413 4.371-1.302 4.631.109.26.528.582.328.779-1.029 1.009-2.604 1.367-3.593 2.418-.271.289.438.839.225 1.173-1.017 1.587-3.02 2.521-3.71 4.274-.354.896 1.184 1.809.938 2.741-.184.696-1.686.324-1.921 1.005-.773 2.238-.232 4.772-.871 7.055-.206.74-.817 1.529-1.573 1.689-.719.153-1.811-.216-2.009-.924-.499-1.773.494-3.704.195-5.523-.3-1.822-.228-4.531-1.959-5.187-2.428-.919-5.062 1.892-7.637 1.554-2.156-.279-3.521-2.771-5.634-3.283-1.09-.265-2.352 1.924-3.163 1.15-1.574-1.501-.452-4.753-2.104-6.169-1.216-1.042-3.301.782-4.81.241-1.69-.607-2.402-2.956-4.128-3.452-.774-.222-.81 1.714-1.609 1.801-3.318.354-3.689-2.375-4.141-1.19-.614 1.621-.897 3.414-1.848 4.869-1.129 1.732-2.658 3.211-4.268 4.518-.363.295-1.015.343-1.403.085-.683-.45-.647-1.862-1.459-1.974-.602-.082-.082 1.66-.688 1.682-5.821.189-11.717-.028-17.441-1.094-2.842-.526-5.38-2.166-7.88-3.608-1.359-.785-2.788-1.688-3.608-3.021-.336-.547 1.024-1.307.637-1.815-.354-.463-1.205.724-1.703.417-.746-.458-.549-1.854-1.318-2.273-.566-.31-1.337.898-1.867.532-.811-.563-.434-2.114-1.236-2.684-.756-.536-2.041.384-2.783-.173-.523-.393.554-1.742-.063-1.957-1.433-.494-3.173-.289-4.541.365-1.014.485-.887 2.379-1.95 2.746-1.548.529-3.414.299-4.893-.396-2.236-1.051-3.587-3.506-5.789-4.629-2.068-1.051-4.954-.959-5.6-1.172l3.449-4.534c.655-.439 1.203-1.505 1.969-1.314 1.146.282 1.397 2.622 2.563 2.438 1.051-.165.213-2.328 1.028-3.006.838-.696 2.198-.883 3.231-.537.985.33 1.104 2.675 2.078 2.316 1.352-.496.955-2.832 2.004-3.813.625-.587 1.864.081 2.541-.444.95-.738.853-2.525 1.938-3.045 1.259-.6 3.046.914 4.19.116.941-.656-.387-2.688.514-3.399.689-.545 1.602 1.436 2.412 1.09.857-.369.402-1.933 1.068-2.58.564-.549 1.553-.996 2.271-.67.616.28.085 1.463.551 1.957.662.704 1.634 1.107 2.567 1.362.479.13 1.121.091 1.469-.261.555-.561.15-2.109.938-2.17 1.437-.104 2.504 1.548 3.918 1.813.805.15 1.635-.29 2.375-.634.765-.354 1.819-.64 2.076-1.438.22-.684-1.608-1.541-.995-1.912 1.646-.994 4.056.062 5.701-.93.855-.516.048-2.136.674-2.91.421-.521 1.51.107 1.979-.369.894-.905 1.547-2.143 1.729-3.396.104-.707-.257-1.753-.954-1.921-.729-.177-1.135 1.181-1.884 1.235-.48.035.961-.691.858-1.158-.18-.816-1.919-1.233-1.547-1.982.646-1.298 2.799-1.18 3.689-2.32.419-.537.19-1.547-.299-2.021-.738-.716-2.617-.093-2.902-1.082-.438-1.527.31-3.326 1.263-4.602.533-.719 2.6.295 2.622-.598.028-1.214-2.603-1.406-2.546-2.619.073-1.529 2.153-2.25 2.845-3.615.215-.422-.684-1.096-.31-1.387 2.085-1.621 5.315-1.734 6.969-3.793.845-1.05-.476-2.65-.729-3.974-.352-1.833-1.221-3.632-1.091-5.491.097-1.375 1.947-2.395 1.736-3.754-.204-1.318-2.521-1.591-2.769-2.9-.148-.789 1.663 1.069 2.335.631 1.237-.813 2.636-2.277 2.393-3.733-.247-1.464-2.984-1.392-3.492-2.786-.425-1.169.799-2.354 1.197-3.531.435.332.882 1.342 1.304.996.706-.58.208-1.88.703-2.646.251-.388.879-.63 1.309-.462.473.183.303 1.311.807 1.281 1.126-.063 1.905-1.416 3.028-1.492 1.319-.092 2.772 1.809 3.835 1.023 1.195-.883.03-3.072.715-4.387.274-.527 1.157-.348 1.753-.354 3.045-.029 6.134-.281 9.129.248 2.782.492 5.338 1.855 8.007 2.782-.26.988.193 2.636-.775 2.964-1.22.414-2.603-2.346-3.563-1.492-1.258 1.119-1.669 3.899-.416 5.025 1.79 1.607 4.802.543 7.159 1.036.559.117-1.327-.313-1.715.106-.479.519.059 1.49-.312 2.09-.237.386-1.255.035-1.276.488-.09 2.006.223 4.088.985 5.944.394.963 2.201 1.065 2.317 2.101.082.725-1.518.412-1.97.987-.418.533-.822 1.486-.379 1.999 1.276 1.477 2.958 2.961 4.896 3.225 1.124.152 2.037-1.215 2.575-2.207.39-.711-.369-1.685-.053-2.43.224-.529 1.479-.343 1.473-.918-.015-1.232-.753-2.412-1.521-3.378-.761-.952-3.954-1.53-2.932-2.196 1.135-.734 2.268-1.471 3.401-2.207.868-.563 2.277-.158 3.073.506.736.617.268 1.978.826 2.758.565.791 1.944.837 2.373 1.71.446.916-.55 2.175-.042 3.06.39.682 1.726.172 2.233.771.781.917.168 2.944 1.297 3.374.845.322.366-2.029 1.173-2.432.501-.25 1.055.771 1.032 1.33-.061 1.573-2.241 3.319-1.264 4.562 1.662 2.112 5.488 1.348 7.405 3.233 1.445 1.417 1.177 3.855 1.762 5.782z" stroke-width=".2417"/><path d="m258.23 239.001c.653-.438 1.197-1.503 1.961-1.313 1.14.283 1.39 2.619 2.55 2.438 1.045-.166.212-2.326 1.024-3.004.832-.695 2.187-.883 3.217-.536.979.329 1.097 2.671 2.065 2.313 1.345-.494.951-2.828 1.994-3.81.622-.586 1.854.081 2.53-.444.945-.74.847-2.523 1.928-3.041 1.253-.602 3.029.912 4.17.114.938-.657-.385-2.687.512-3.396.688-.547 1.596 1.433 2.401 1.086.854-.367.399-1.93 1.063-2.577.561-.548 1.545-.994 2.258-.67.613.28.086 1.463.547 1.957.658.704 1.627 1.106 2.558 1.36.478.131 1.114.09 1.461-.262.552-.56.148-2.107.931-2.164 1.432-.107 2.494 1.545 3.9 1.809.803.15 1.626-.289 2.364-.633.76-.355 1.809-.64 2.063-1.438.22-.684-1.603-1.54-.988-1.911 1.639-.993 4.035.062 5.673-.93.852-.515.048-2.134.671-2.907.419-.52 1.502.107 1.967-.367.891-.908 1.54-2.143 1.723-3.396.103-.705-.257-1.75-.948-1.918-.728-.178-1.13 1.179-1.876 1.234-.479.034.956-.69.854-1.16-.178-.813-1.91-1.23-1.539-1.979.643-1.298 2.784-1.179 3.672-2.32.417-.537.189-1.546-.297-2.02-.735-.717-2.604-.094-2.888-1.08-.439-1.527.307-3.326 1.254-4.602.531-.715 2.589.299 2.609-.595.028-1.212-2.59-1.405-2.531-2.618.071-1.527 2.141-2.248 2.829-3.61.213-.421-.68-1.095-.309-1.386 2.076-1.621 5.29-1.734 6.936-3.791.84-1.049-.474-2.648-.726-3.972-.351-1.831-1.215-3.629-1.086-5.485.097-1.373 1.938-2.393 1.729-3.752-.202-1.317-2.506-1.59-2.753-2.897-.149-.789 1.654 1.069 2.323.628 1.23-.811 2.624-2.273 2.379-3.729-.244-1.463-2.971-1.392-3.476-2.785-.422-1.168.795-2.354 1.192-3.528-1.071-1.158-1.853-2.685-3.218-3.474-1.738-1-4.097-.611-5.776-1.713-1.196-.785-1.112-2.864-2.34-3.603-1.955-1.176-4.512-.884-6.606-1.782-.478-.203-.252-1.535-.743-1.369-.904.307-1.809.61-2.713.916-1.27.428-1.604-2.147-2.406-3.223-1.299-.167-2.731.098-3.898-.498-.832-.427-.771-2.746-1.6-2.311-1.293.682-.819 2.878-1.696 4.047-.281.375-1.492-.368-1.408.094l.273 1.494c.171.932-1.874.654-2.804.474-.709-.135-1.131-.896-1.695-1.342-1.17-.763-2.91-1.024-3.514-2.284-.441-.919.994-1.857 1.041-2.875.017-.428-.551 1.014-.953.866-1.266-.464-1.996-1.92-3.252-2.408-.763-.299-1.928.819-2.451.188-.559-.678 1.107-2.006.461-2.598-.788-.723-2.239.539-3.207.084-1.035-.485-1.274-1.966-2.206-2.63-.983-.704-2.161-1.305-3.372-1.355-1.771-.073-3.491 1.35-5.229.998-.854-.172-.572-1.742-1.234-2.307-1.715-1.455-3.809-2.394-5.713-3.59l-.014.028c-1.903 1.26-4.474 1.862-5.708 3.782-.57.886 1.383 1.748 1.478 2.797.054.6-.499 1.365-1.098 1.437-1.039.124-2.045-1.388-2.994-.948-.931.431-.259 2.337-1.139 2.865-1.433.859-3.389.199-4.951.79-.985.374-1.407 1.819-2.444 2.015-.527.099-.28-1.266-.798-1.397-.665-.171-1.577.113-1.944.694-.656 1.039-.214 2.512-.774 3.604-.676 1.319-2.392 2.016-2.833 3.434-.33 1.061-.11 2.55.754 3.246.904.729 2.705-.691 3.483.17 1.048 1.162 1.795 3.384.836 4.621-1.138 1.471-3.88.267-5.424 1.304-.741.497.439 2.567-.452 2.642-1.401.117-2.13-2.249-3.536-2.311-1.623-.07-2.848 1.812-4.467 1.957-1.978.179-3.985-1.654-5.87-1.027-.894.295 1.434 2.036.783 2.719-.816.854-2.64-.58-3.549.18-.823.688-.317 2.125-.477 3.188l.003-.047c.319.94 1.424 1.944.958 2.821-.501.945-2.854.022-3.026 1.08-.226 1.389 2.347 2.151 2.269 3.557-.235 4.238-3.184 8.095-3.152 12.34.01 1.322 2.916.987 3.26 2.266.271 1.008-1.883 1.375-2.001 2.414-.115 1.015.744 1.945 1.417 2.713 1.266 1.438 2.433 3.428 4.312 3.799 1.365.271 2.128-2.338 3.517-2.25 1.196.078 1.391 2.07 2.448 2.638.92.49 2.323-.347 3.113.336.55.476.274 1.821-.19 2.022-.475.205-2.509-.068-1.896.063 1.219.263 2.697-.248 3.711.478.841.603.325 2.175 1.038 2.922.502.527 1.486.728 2.145.416.852-.401.78-2.229 1.722-2.24 1.781-.021 3.428 1.141 4.885 2.164.305.213-.633 1.104-.262 1.085 2.225-.106 4.705-2.655 6.536-1.39 1.579 1.095-1.156 4.076-.229 5.756 1.369 2.479 3.927 4.246 6.454 5.522.604.306.437-1.67 1.114-1.698 1.627-.072 3.041 1.527 4.667 1.444 1.264-.065 2.079-1.565 3.312-1.858.586-.138 1.447.123 1.678.682.238.578-1.021 1.232-.674 1.753.516.767 1.869.437 2.56 1.045.528.47.907 1.251.819 1.95-.088.72-.586 1.545-1.277 1.762-.776.244-1.84-1.242-2.363-.619-.833.989.163 2.686-.372 3.863-.248.551-1.387.145-1.683.673-.237.427.806.942.551 1.358-.818 1.334-3.141 1.712-3.38 3.26-.146.939 2.091-.42 2.848.154.496.38-.688 1.479-.196 1.863 1.229.963 3.164.573 4.444 1.463.537.373.279 1.278.419 1.918z" stroke-width=".241"/><path d="m465.654 180.637c-.97-.252-2.871.254-2.91-.753l-.128-3.245c-.048-1.234-2.37-.918-3.2-1.822-1.164-1.271-1.005-3.811-2.584-4.489-1.993-.854-4.372 1.116-6.479.595-1.393-.345-1.8-2.436-3.131-2.975-.669-.271-1.248.973-1.966.908-.454-.037-.304-1.194-.755-1.146-3.293.354-6.388 2.647-9.678 2.271-1.284-.147-.479-2.897-1.586-3.564-1.196-.719-2.786.063-4.18.094-.42 1.073-.181 2.835-1.26 3.221-1.343.478-2.679-1.619-4.072-1.316-.729.158.311 1.701-.205 2.245-.948 1.004-2.905.733-3.686 1.874-.427.627 1.151 1.294 1.01 2.039-.131.705-1.341.724-1.652 1.369-.248.512.111 1.134.169 1.699-1.402.295-2.833 1.285-4.205.879-1.115-.334-1.232-2.055-2.154-2.768-.321-.248-.973-.17-1.205.164-.516.742.095 2.247-.728 2.616-.947.426-2.641-1.948-2.968-.957-.448 1.36 1.863 2.364 2.034 3.79.091.736-.641 1.623-1.367 1.756-3.052.555-6.323-.68-9.305.184-.769.223 1.147 1.506.863 2.262-.509 1.354-1.485 3.064-2.919 3.209-1.095.107-.849-2.369-1.888-2.731-1.732-.604-3.92 1.09-5.502.153-1.064-.629.738-3.6-.491-3.701-1.418-.117-2.413 2.025-2.545 3.451-.152 1.631 2.096 2.96 1.796 4.568-.2 1.063-2.174.604-2.912 1.389-1.012 1.07-.96 2.963-2.093 3.904-.565.471-1.448-.238-2.175-.357-1.558.302-4.259-.635-4.672.906l-.882 3.295c-.135.502-.879-.545-1.318-.816-.682 1.191-2.145 2.203-2.043 3.574.165 2.229 2.314 3.914 2.755 6.104.138.682-1.813 1.436-1.182 1.719 1.237.557 3.226-1.521 4.043-.434.917 1.219-.082 3.262-.997 4.48-.59.783-2.259-.118-2.862.654-.659.842.452 2.342-.17 3.215-.435.611-1.772-.426-2.236.164-.413.526.614 1.256.595 1.93-.012.43-1.026.839-.685 1.098.688.518 1.726.523 2.558.313 1.733-.445 3.113-2.434 4.89-2.229 1.098.125 1.364 1.864 1.52 2.966.176 1.26-1.199 2.67-.571 3.771.396.691 1.49-1.232 2.208-.896 1.031.484.87 2.424 1.933 2.834 1.445.557 3.1-.469 4.639-.299.618.068 1.413.393 1.59.991.289.983-1.139 2.353-.396 3.053.771.732 2.192-.901 3.149-.446 1.371.656 1.549 3.164 3.045 3.412 1.685.279 2.961-1.972 4.658-2.125.614-.058.377 1.326.921 1.619.841.457 2.295-.369 2.84.42.556.807-1.266 2.217-.559 2.889 1.211 1.152 3.606.096 4.856 1.201 1.768 1.561 2.327 4.11 3.489 6.168 1.217-.735 2.007 1.449 4.342-.858 2.213-2.185 2.74-5.981 5.362-7.642 2.2-1.394 6.008 1.26 7.769-.664 2.278-2.489 1.307-6.645 1.959-9.965.104-.531.321-1.14 5.068-1.81.85-.12 1.628.946 2.462.749 1.321-.314 2.622-1.09 3.464-2.16 1.43-1.814 2.662-3.93 3.116-6.199.313-1.561-1.552-3.968-.871-4.988.682-1.02 1.829-1.85 2.038-3.058.562-3.235-.52-6.649.201-9.852.276-1.235 2.028-1.616 2.629-2.729.307-.566-.677-1.637-.106-1.938 4.422-2.355 9.72-2.849 13.995-5.462 1.494-.913 2.186-2.905 2.521-4.635.211-1.076-1.312-2.526-1.011-3.132z" stroke-width=".2408"/><path d="m258.535 239.27c-.672.069-1.71-.388-2.016.211-.345.676 1.064 1.399.824 2.119-.332.99-1.509 1.461-2.264 2.193-.646-.215-1.48-.143-1.939-.641-.588-.641-.338-1.78-.897-2.445-.651-.773-1.577-1.376-2.553-1.652-1.077-.305-2.32.391-3.36-.02-2.09-.822-3.573-2.889-5.719-3.557-1.037-.322-2.099.998-3.166.787-.915-.182-1.402-2.443-2.105-1.834-1.212 1.049.044 3.586-1.153 4.652-.875.777-2.333-.736-3.488-.521-1.484.274-2.953 2.908-4.097 1.929-1.504-1.289.944-4.573-.532-5.894-1.665-1.486-4.571.137-6.698-.563-.527-.173.434-1.334-.02-1.649-.934-.648-2.211-.681-3.352-.688-.672-.004-1.576.072-1.905.652-.852 1.5-1.309 3.278-1.307 5.002.005 2.608 1.362 5.111 1.327 7.723-.016 1.171-1.379 2.027-1.477 3.195-.104 1.242 1.101 2.401.907 3.635-.297 1.887-2.254 3.344-2.311 5.253-.03 1.06 2.039 1.358 2.083 2.418.037.882-1.014 1.913-1.903 1.862-2.209-.123-3.127-.955-4.064-1.306-2.183-.821-4.937-2.131-6.938-.94-1.462.869.838 3.606-.008 5.074-1.047 1.818-3.633 2.231-5.081 3.756-.73.769-.829 1.951-1.257 2.922-.43.977-.048 7.832-.127 8.339-.141.89-.748 1.801-1.547 2.231-.82.443-2.059.68-2.806.12-.908-.681-.4-2.399-1.244-3.155-.45-.404-1.275.808-1.77.455-.744-.529-.188-2.558-1.101-2.5-1.522.098-2.104 2.549-3.611 2.799-1.509.248-3.101-.594-4.34-1.484-1.199-.861-1.423-2.715-2.648-3.539-.546-.366-1.706-.152-1.93.464-.27.743 1.097 1.39.973 2.171-.236 1.483-.73 3.197-1.965 4.068-.827.583-2.117-1.085-2.988-.572-.727.428.341 1.953-.295 2.508-.55.48-1.521-.689-2.17-.354-.992.515-1.117 2.1-2.124 2.585-.427.204-.107-1.052-.491-1.325-1.229-.876-2.607-1.68-4.095-1.948-5.068-.913-10.317-.594-15.372-1.569-.455-.088.501-1.031.185-1.363-.504-.531-1.686-.063-2.108-.66-.33-.465.814-1.188.473-1.643-.637-.852-2.976-.453-2.829-1.504.165-1.17 2.414-.635 3.249-1.477.544-.548.835-1.586.468-2.266-.301-.555-1.422.099-1.88-.342-.951-.91-.962-2.604-2.02-3.39-1.026-.762-2.724-.116-3.743-.89-1.864-1.411-2.064-2.397-3.148-3.342-1.083-.943-1.943-2.229-3.251-2.832-1.341-.614-3.428.441-4.381-.678-1.419-1.666-.581-4.421-1.605-6.352-.333-.628-1.677.021-2.069-.571-1.102-1.671-.42-4.45-2.032-5.644-1.339-.991-3.757 1.55-4.998.438-2.019-1.808-1.423-5.313-2.943-7.552-.336-.496-1.009 1.361-1.5 1.012-1.172-.841-1.096-2.814-2.241-3.691-.524-.401-1.053.383-2.16.318-.203-1.886-.885-3.781-.611-5.654.202-1.385.968-2.736 1.981-3.709.321-.309.737.947 1.127.729.853-.479 1.788-1.372 1.747-2.343-.07-1.66-1.811-2.914-2.036-4.562-.065-.48 1.263-.14 1.33-.619.187-1.352-1.546-2.979-.681-4.039.681-.834 1.988 1.435 3.032 1.154 1.116-.298 1.279-2.035 2.297-2.576.692-.367 1.854.709 2.352.107.64-.773-.414-2.113.042-3.005.368-.724 2.117-.411 2.111-1.218-.01-1.453-2.384-2.375-2.145-3.809.246-1.473 2.714-1.686 3.292-3.061.25-.596-1.475.314-1.951-.126-.592-.55-1.128-1.648-.684-2.321.446-.674 2.035.41 2.415-.299.536-1.001-1.029-2.396-.447-3.369.603-1.007 2.423-.536 3.271-1.35.862-.828 1.596-2.057 1.508-3.24-.154-2.088-1.742-3.85-2.177-5.896-.148-.699.081-1.492.479-2.084.428-.638 1.871-.617 1.848-1.382-.027-.929-1.704-1.116-1.945-2.015-.312-1.157.762-2.414.441-3.567-.136-.489-1.483.237-1.51-.269-.059-1.114.889-2.051 1.333-3.074l-.037.134c1.448-.513 2.81-1.62 4.343-1.534.748.041.518 1.815 1.267 1.85.84.035 1.004-1.649 1.84-1.711.953-.069 1.897.66 2.502 1.393.225.271-.978.629-.678.82.848.542 2 .949 2.959.638.775-.251.582-1.731 1.337-2.03 1.151-.459 2.758.785 3.723.012.988-.791-.004-2.76.86-3.682.868-.926 2.528-1.731 3.647-1.131 1.002.538-.058 2.371.498 3.359.292.519 1.11.563 1.71.563 2.92.008 6.025.512 8.745-.541 1.146-.443.512-2.545 1.398-3.39.72-.687 1.971-1.042 2.91-.708 1.117.396 1.413 1.967 2.414 2.6.695.438 1.834-.104 2.431.457.365.346-.754 1.081-.41 1.446.493.524 1.461.647 2.135.388.992-.382 1.354-1.809 2.367-2.125.669-.212 1.493 1.287 1.961.77.557-.616-1.274-2.538-.448-2.441 1.759.203 2.736 2.41 4.436 2.904.502.146.114-1.238.595-1.441.59-.248 1.257.252 1.88.399 1.528.362 3.006 1.231 4.573 1.128.823-.053 1.327-2.118 1.92-1.552.641.614-1.62 1.905-.945 2.483 1.124.963 3.035-.01 4.426.5.626.229.581 1.709 1.235 1.569.604-.128-.294-1.317.028-1.84.544-.884 1.438-1.56 2.364-2.033 1.247-.642 3.394-.005 4.022-1.25.741-1.468-1.1-3.203-.947-4.836.044-.481 1.104.06 1.433-.297.773-.841.51-3.317 1.614-3.015 2.516.689 3.555 3.996 5.924 5.08.797.363 1.592-1.894 2.265-1.336 1.367 1.135.794 3.641 2.039 4.901.512.519 1.377-.491 2.064-.737l.025-.15c.321.938 1.432 1.939.964 2.816-.505.944-2.872.022-3.045 1.078-.229 1.385 2.362 2.148 2.283 3.551-.237 4.231-3.204 8.082-3.173 12.321.01 1.321 2.935.985 3.281 2.261.273 1.008-1.895 1.375-2.013 2.411-.116 1.013.749 1.942 1.427 2.707 1.273 1.435 2.448 3.423 4.338 3.793 1.373.271 2.141-2.335 3.539-2.245 1.204.077 1.399 2.068 2.463 2.633.927.492 2.338-.344 3.133.336.554.475.276 1.818-.191 2.021-.478.206-2.525-.067-1.908.063 1.227.264 2.714-.248 3.734.478.846.601.326 2.17 1.043 2.917.505.525 1.496.727 2.158.416.857-.4.784-2.229 1.732-2.238 1.792-.021 3.45 1.139 4.916 2.159.307.216-.638 1.104-.264 1.085 2.238-.105 4.734-2.652 6.577-1.386 1.588 1.091-1.164 4.067-.23 5.747 1.376 2.475 3.951 4.236 6.493 5.513.609.304.441-1.668 1.121-1.696 1.637-.07 3.061 1.526 4.697 1.442 1.272-.063 2.092-1.563 3.332-1.854.59-.137 1.456.123 1.688.68.239.578-1.028 1.232-.679 1.751.52.763 1.883.435 2.574 1.044.531.468.913 1.249.827 1.945-.09.721-.59 1.543-1.287 1.761-.78.243-1.85-1.241-2.378-.619-.838.987.163 2.683-.373 3.856-.251.552-1.398.146-1.693.673-.239.426.811.94.554 1.356-.823 1.33-3.159 1.709-3.401 3.254-.146.938 2.105-.42 2.866.154.5.379-.692 1.479-.198 1.861 1.237.96 3.186.572 4.473 1.46.541.373.281 1.276.422 1.914z" stroke-width=".2415"/><path d="m231.696 162.877c.96-1.24.212-3.466-.838-4.63-.78-.864-2.584.562-3.489-.169-.867-.699-1.086-2.192-.755-3.254.442-1.422 2.161-2.117 2.838-3.439.561-1.095.118-2.57.775-3.611.369-.58 1.282-.865 1.948-.694.52.134.272 1.499.8 1.399 1.039-.194 1.461-1.643 2.449-2.016 1.566-.594 3.525.068 4.96-.792.883-.53.209-2.44 1.142-2.872.951-.44 1.958 1.075 3 .95.6-.072 1.155-.839 1.1-1.439-.095-1.052-2.052-1.915-1.481-2.803 1.237-1.923 3.813-2.526 5.719-3.789.003-1.342-.417-2.754.009-4.024.17-.509 1.337-.028 1.521-.531l1.061-2.892c.243-.664-1.266-.917-1.374-1.615-.074-.468.83-.593.957-1.047.146-.525.208-1.277-.213-1.621-1.409-1.15-3.611-1.18-4.848-2.516-.524-.567.551-1.527.401-2.284-.078-.393-.301 1.212-.653 1.015-.391-.219.46-1.139.063-1.346-1.287-.667-2.962-.214-4.272-.84-1.147-.549-2.84-1.285-2.833-2.558.005-.968 2.41.31 2.851-.551.349-.681-2.182-.538-1.923-1.258.304-.847 2.143.089 2.62-.676.475-.763-.864-1.793-.558-2.637.185-.51 1.76.262 1.606-.257-.208-.706-2.165-.277-1.975-.987.269-1.003 1.78-1.073 2.671-1.61.059-.692.75-1.687.176-2.076-1.622-1.098-3.765-1.095-5.651-1.63-.349-.099-1.222.047-1.055-.275.362-.699 1.731-.619 1.913-1.383.124-.521-1.455-.282-1.387-.813.077-.606 1.25-.39 1.604-.886.829-1.158 1.932-2.458 1.8-3.875-.099-1.073-2.098-1.164-2.36-2.209-.448-1.787.786-3.707.421-5.512-.222-1.104-.953-2.563-2.071-2.663-1.27-.113-1.865 2.07-3.134 2.196-1.157.115-1.955-1.451-3.111-1.577-.894-.098-1.626 1.002-2.524.954-.706-.038-1.572-.502-1.763-1.183-.227-.805 1.122-1.644.752-2.393-.394-.8-1.854-.408-2.457-1.067-.284-.31.739-.994.376-1.204-1.341-.777-3.208-.328-4.502-1.186-.446-.295.605-1.101.345-1.567-.39-.699-2.207-.593-1.981-1.36.303-1.032 2.227-.654 2.833-1.54.351-.512-.777-1.193-.564-1.776.157-.427 1.064.056 1.331-.312.425-.585.698-1.45.444-2.127-.435-1.16-2.028-1.696-2.332-2.897-.241-.95 1.073-1.845.881-2.806-.259-1.298-2.163-2.044-2.111-3.367.039-1.017 1.547-1.325 2.32-1.987-1.043-.324-2.309-.252-3.13-.971-1.008-.882-.947-2.641-1.973-3.502-.675-.565-1.97.245-2.618-.349-1.226-1.124-1.263-3.201-2.486-4.327-.561-.517-1.61-.417-2.291-.071-.461.233-.002 1.686-.476 1.478-1.219-.535-1.617-2.203-2.755-2.896-.485-.295-1.472-.342-1.701.182-.458 1.044.858 2.549.123 3.42-1.021 1.21-3.298.6-4.441 1.698-.462.443 1.099 1.092.898 1.702-.314.955-1.15 2.123-2.155 2.111-1.978-.023-3.713-3.03-5.507-2.202-1.433.662.676 3.304.015 4.739-.288.625-1.513-.802-2.037-.354-.632.54.109 1.821-.424 2.459-.501.6-1.671.182-2.235.725-.296.287.626 1.16.217 1.222-1.386.211-2.767-.767-4.161-.62-1.151.121-2.243 2.06-3.189 1.389-1.144-.81.405-3.288-.701-4.145-.777-.601-1.371 1.753-2.354 1.779-.77.02-.825-1.757-1.592-1.678-.892.092-.902 1.815-1.775 2.026-.551.133-.704-.893-1.056-1.337-.739.363-2.108.275-2.22 1.091-.247 1.795 2.104 3.625 1.344 5.27-.505 1.094-2.641-1.145-3.591-.406-.954.741.545 3.002-.51 3.59-.968.54-1.771-1.456-2.848-1.718-.448-.109-1.189.281-1.173.742.05 1.415 1.263 2.623 1.335 4.038.084 1.628.509 3.963-.882 4.811-1.851 1.128-4.431-.951-6.504-.308-1.123.349-.797 2.762-1.961 2.937-1.656.249-2.971-1.732-4.632-1.949-.441-.058.072 1.091-.322 1.301-.855.456-1.916.486-2.882.408-2.212-.179-4.387-.702-6.556-1.174-.88-.191-1.69-.968-2.576-.815-1.032.179-2.27.735-2.635 1.718-.407 1.097 1.413 2.496.719 3.439-.58.791-2.028-.888-2.908-.456-.521.255.824 1.354.362 1.707-1.631 1.25-4.089 1.092-5.692 2.38-.832.67-.369 2.205-1.044 3.037-.383.471-1.25.74-1.772.432-.948-.56-.916-2.942-1.977-2.649-2.038.563-2.594 3.595-4.53 4.451-1.739.769-3.88.603-5.708.076-.566-.163.351-2.103-.127-1.762-1.864 1.329-2.584 4.002-4.583 5.121-1.373.767-3.223-.4-4.719.084-1.546.499-3.281 1.303-4.032 2.744-.703 1.346.703 3.112.222 4.553-.174.522-1.188-.975-1.556-.564-.661.735.226 2.31-.556 2.917-.73.568-1.917-.732-2.756-.345-.769.354-.843 1.469-1.265 2.205.542 1.063 1.462 2.009 1.625 3.192.055.396-.976-.43-1.2-.098-.669.991-2.19 3.066-1.052 3.434 2.791.9 5.814-1.064 8.744-.954.595.022 1.516.826 1.198 1.332-.465.743-2.04.035-2.519.77-.307.472.841.781 1.35 1.021 2.006.943 3.963 2.214 6.16 2.513 1.266.171 2.505-1.746 3.648-1.178 1.683.834 1.655 3.618 3.255 4.602 1.016.625 3.708-1.598 3.55-.418l-.382 2.855c-.226 1.689 3.22 1.147 4.881 1.529.531.122 1.455-.543 1.632-.031.232.67-1.15 1.199-.986 1.89l1.167 4.932c.142.598-1.651-.646-1.845-.063-1.291 3.896-2.293 8.023-2.15 12.126.031.888 2.637-.251 2.594.64-.05 1.037-2.012.785-2.703 1.564-.606.686-.109 2.236-.96 2.568-.697.271-.87-1.59-1.618-1.562-1.353.052-3.046.556-3.662 1.761l-1.764 3.455c-.214.418.262 1.113.722 1.217 1.089.242 2.867-1.324 3.334-.313.441.957-2.766.066-2.968 1.102-.22 1.127 2.616 1.537 2.239 2.623-.346.996-4.109-.435-3.17.049l5.757 2.964c2.54 1.309-1.585 5.636-1.296 8.481.072.711 1.777-.631 2.15-.019.624 1.021.024 2.396.036 3.595 1.442-.515 2.798-1.626 4.324-1.54.746.042.516 1.822 1.263 1.855.836.038.999-1.654 1.833-1.716.948-.069 1.888.66 2.49 1.396.224.272-.973.632-.675.824.844.543 1.992.95 2.946.639.772-.252.58-1.737 1.332-2.038 1.146-.46 2.746.788 3.706.014.984-.795-.003-2.771.856-3.695.865-.928 2.518-1.738 3.632-1.135.998.541-.058 2.381.496 3.371.291.521 1.105.564 1.703.565 2.907.007 5.999.515 8.707-.543 1.14-.444.509-2.555 1.391-3.399.717-.688 1.962-1.047 2.898-.711 1.112.396 1.407 1.974 2.404 2.605.692.439 1.826-.104 2.419.46.364.347-.75 1.085-.408 1.453.491.524 1.455.649 2.126.389.988-.385 1.348-1.817 2.357-2.135.667-.211 1.486 1.292 1.953.771.555-.617-1.269-2.545-.446-2.448 1.751.204 2.725 2.419 4.417 2.915.5.146.205-1.098.592-1.447.207-.186.546.117.819.175.351.076.705.142 1.053.228 1.52.367 2.992 1.234 4.552 1.133.82-.055 1.322-2.126 1.912-1.557.639.613-1.612 1.91-.94 2.49 1.118.965 3.021-.009 4.407.501.624.23.578 1.716 1.229 1.576.602-.129-.293-1.323.029-1.847.542-.885 1.432-1.563 2.353-2.04 1.242-.644 3.379-.005 4.005-1.255.738-1.473-1.095-3.213-.943-4.854.045-.482 1.1.063 1.427-.297.771-.842.509-3.328 1.607-3.025 2.504.692 3.539 4.013 5.898 5.1.794.365 1.585-1.9 2.256-1.342 1.36 1.138.79 3.65 2.029 4.918.509.521 1.661-.127 2.056-.737.583-.906-.347-2.504.477-3.194.911-.761 2.738.676 3.556-.181.652-.685-1.68-2.427-.785-2.726 1.889-.625 3.9 1.209 5.881 1.031 1.622-.146 2.85-2.031 4.475-1.959 1.408.061 2.138 2.432 3.543 2.313.892-.076-.291-2.15.452-2.648 1.548-1.033 4.295.172 5.436-1.301z" stroke-width=".2414"/><path d="m169.132 104.048c-.843.243-2.097-.693-2.632.008-.735.961.631 2.719-.154 3.64-.663.778-2.097.468-3.054.117-.685-.251-.64-1.878-1.354-1.733-2.083.424-3.921 1.785-5.564 3.143-.509.421 1.411-.522 1.966-.168 1.16.738 2.772 1.756 2.694 3.136-.069 1.207-2.455.942-2.991 2.025-.269.542 1.342.055 1.733.516.774.913.696 2.384 1.491 3.279.402.452 1.687-.211 1.768.391.127.941-1.812 1.646-1.379 2.491.521 1.017 2.594.164 3.225 1.116.444.67-1.141 1.386-1.039 2.187.057.451 1.368-.256 1.339.196-.044.686-1.967 1.014-1.448 1.459 1.352 1.159 3.374 2.178 5.069 1.647 1.06-.333-.595-2.708.32-3.339 1.247-.859 3.139.579 4.533-.007 1.076-.453 1.162-2.148 2.132-2.8.758-.508 1.928.046 2.698-.442.31-.196-.682-.935-.335-1.057 1.113-.392 2.381.155 3.539-.073.354-.07.418-.887.758-.773 1.54.512 2.654 2.025 4.224 2.429.431.111-.353-1.048-.021-1.346.315-.283 1.189.669 1.243.248.238-1.867-1.232-3.864-.555-5.618.502-1.304 2.651-1.118 3.562-2.171.495-.572.742-1.67.271-2.262-.782-.985-2.511-.75-3.381-1.658-.42-.438.552-1.51.039-1.833-1.226-.772-3.134.082-4.264-.828-.69-.556.636-2.152-.081-2.671-1.315-.953-3.337-.129-4.786-.859-.542-.272.148-1.874-.448-1.774-3.194.536-6.004 2.485-9.118 3.384z" stroke-width=".2413"/><path d="m106.24 237.568c-1.098-.063-2.396-.825-3.294-.191-.889.629.203 3.227-.884 3.148-2.099-.146-3.524-2.309-5.202-3.577-.649-.491-1.58-.901-1.763-1.695-.534-2.323.896-5.069-.272-7.146-1.855-3.301-4.936-5.93-8.178-7.885-1.095-.658-2.54.973-3.782.666-1.541-.384-3.105-1.285-4-2.598-.809-1.188.123-3.066-.676-4.262-1.016-1.514-3.263-1.844-4.38-3.287-1.062-1.372-.845-3.479-1.915-4.844-.912-1.164-2.819-1.231-3.749-2.383-.797-.99-.224-1.932-.206-2.525.018-.596.417-1.316.054-1.788-.355-.46-1.247-.009-1.71-.361-1.625-1.233-2.595-3.299-4.387-4.274-1.456-.791-3.31-1.221-4.912-.789-.665.179.87 2.063.18 2.062-2.654-.008-5.632-.405-7.688-2.085-1.498-1.225-.697-3.888-1.671-5.559-.79-1.357-2.1-2.409-3.444-3.219-1.125-.68-2.896-.162-3.779-1.137-1.111-1.229-1.432-3.074-1.529-4.729-.104-1.771 1.668-3.614.948-5.235-.612-1.376-3.349-.577-4.112-1.875-1.391-2.368-.866-5.386-1.481-8.04-.165-.709-.189-1.074-.568-1.29-.646-.368-1.996.527-2.228-.18-.756-2.295 1.054-5.192-.219-7.245-1.038-1.672-4.113-.688-5.542-2.041-1.672-1.581-3.645-3.911-3.132-6.154.457-2.004 4.153-1.474 5.271-3.197.949-1.463-.391-3.589.198-5.23.227-.635 1.529-.102 1.912-.655.405-.585-.314-1.512.018-2.141 1.593-3.019 4.109-4.691 3.939-5.353s.025-1.563-.512-1.983l.512 1.983c1.056.496 2.015 1.658 3.167 1.487 1.532-.229 2.343-2.657 3.886-2.543 1.242.093 1.12 2.441 2.234 2.997.639.318-.951-1.606-.435-2.098.726-.692 2.211.291 2.989-.338.442-.358-1.119-1.38-.595-1.601 2.425-1.018 5.138-1.549 7.765-1.411 1.182.062 1.777 1.822 2.95 1.975 1.002.13 1.767-1.288 2.776-1.228 1.07.064 1.747 1.68 2.813 1.565 1.034-.111 1.916-1.141 2.3-2.107.505-1.267-.64-2.987.166-4.085.584-.795 2.072.271 2.956-.166.373-.184-.449-1.008-.107-1.244 1.672-1.16 3.897-1.353 5.556-2.531.857-.609.809-2.119 1.718-2.64.414-.238.247 1.128.71 1.247 1.257.325 2.68-.513 3.894-.057 1.914.719 3.269 4.369 5.085 3.431 1.791-.925-1.079-4.336-.02-6.049.814-1.315 3.142-.416 4.488-1.174.494-.279.752-1.129.491-1.632-.252-.486-1.379.05-1.58-.46-.293-.745-.026-1.726.467-2.356.281-.36.915.001 1.372.001.582-.135 1.238-.715 1.746-.405.564.345-.002 1.864.661 1.875.802.014.799-2.103 1.555-1.837 1.041.365.535 2.489 1.548 2.926.792.341 1.496-.86 2.244-1.291.541 1.06 1.456 2 1.619 3.179.055.395-.971-.429-1.195-.098-.666.987-2.181 3.054-1.047 3.419 2.778.896 5.79-1.06 8.706-.95.593.023 1.509.823 1.193 1.327-.463.74-2.031.035-2.508.766-.306.47.837.778 1.345 1.017 1.997.938 3.945 2.205 6.133 2.501 1.26.171 2.495-1.737 3.633-1.174 1.676.832 1.647 3.604 3.242 4.584 1.011.622 3.692-1.592 3.535-.417l-.381 2.843c-.225 1.683 3.207 1.143 4.861 1.522.529.122 1.449-.541 1.626-.029.23.667-1.145 1.192-.982 1.881l1.162 4.91c.141.596-1.645-.643-1.837-.062-1.286 3.878-2.285 7.988-2.143 12.076.031.885 2.625-.25 2.583.637-.05 1.033-2.004.781-2.691 1.559-.603.682-.108 2.229-.956 2.557-.695.271-.868-1.582-1.613-1.554-1.345.054-3.032.554-3.646 1.753l-1.756 3.438c-.213.418.261 1.11.719 1.213 1.084.239 2.855-1.319 3.32-.312.439.953-2.754.065-2.955 1.098-.219 1.122 2.605 1.529 2.229 2.609-.345.994-4.092-.431-3.157.051l5.732 2.951c2.529 1.303-1.578 5.609-1.291 8.443.072.71 1.77-.625 2.141-.018.621 1.018.024 2.387.036 3.58-.44 1.021-1.379 1.957-1.321 3.07.027.506 1.363-.22 1.497.269.318 1.151-.746 2.409-.437 3.565.24.896 1.902 1.084 1.929 2.012.022.765-1.408.744-1.833 1.381-.394.591-.622 1.384-.475 2.08.432 2.048 2.007 3.808 2.16 5.894.086 1.185-.64 2.411-1.496 3.237-.84.813-2.645.344-3.243 1.35-.576.973.976 2.366.444 3.365-.377.709-1.953-.373-2.395.3-.441.673.091 1.769.678 2.318.472.44 2.182-.47 1.934.126-.573 1.375-3.02 1.588-3.263 3.059-.237 1.434 2.116 2.354 2.126 3.805.006.807-1.729.496-2.093 1.217-.452.893.593 2.229-.042 3.003-.493.603-1.645-.476-2.331-.106-1.01.539-1.171 2.276-2.278 2.574-1.035.277-2.33-1.986-3.005-1.154-.858 1.059.86 2.686.674 4.035-.066.48-1.383.139-1.317.618.223 1.646 1.949 2.897 2.019 4.558.04.971-.887 1.864-1.732 2.342-.386.22-.799-1.035-1.118-.728-1.004.97-1.763 2.321-1.964 3.704-.269 1.875.407 3.769.608 5.649z" stroke-width=".2404"/><path d="m184.535 23.901c.861 2.049 4.463.823 6.437 1.863.668.352.258 1.781.968 2.04 1.595.581 3.741 1.187 5.097.169 1.721-1.291.53-5.15 2.547-5.906 3.836-1.437 8.627 2.159 12.295.343 1.811-.896-1.187-3.96-.955-5.957.208-1.788 1.963-3.148 2.223-4.929.121-.827-.438-1.817-1.174-2.22-.436-.238-.669 1.02-1.161.94-.666-.108-1.436-.702-1.481-1.368-.062-.899.578-1.784 1.224-2.413.714-.697 1.662-1.369 2.663-1.382 1.979-.027 4.081.295 5.8 1.269.545.309-.651 1.341-.291 1.852.379.537 1.272.394 1.927.468.349.04.908.189 1.046-.131.323-.749-.376-1.757.065-2.442.389-.605 1.609-1.388 2.019-.795.715 1.037-1.097 3.221.039 3.777 1.489.728 3.124-1.635 4.769-1.422.733.095.049 1.646.616 2.121.502.42 1.486-.396 1.975.042.784.703 1.371 1.835 1.285 2.882-.079.971-1.579 1.417-1.711 2.383-.21 1.53.14 3.19.755 4.575s1.856 2.712 2.813 3.46c.957.749 2.036.411 2.695.852.66.441.808.281 1.033 1.638.225 1.356-.227 4.271.292 6.314.124.492 1.017.799 1.441.517 1.374-.912 1.655-3.585 3.303-3.669 2.559-.132 4.543 2.449 7.009 3.14.117.809-.076 1.727.347 2.426.569.932 2.241 1.114 2.452 2.183.41 2.069-.979 4.183-.769 6.283.122 1.216 1.626 2.028 1.726 3.249.058.728-1.547 1.059-1.324 1.755.363 1.147 2.568 1.261 2.662 2.461.113 1.465-2.01 2.387-2.172 3.849-.065.591 1.356.16 1.668.667.313.51-.434 1.257-.158 1.788.763 1.469 3.162 2.234 3.104 3.887-.04 1.139-2.134 1.115-3.28 1.05-.606-.033-.654-1.274-1.26-1.304-1.377-.068-2.688 1.468-3.999 1.044-1.347-.436-1.602-2.389-2.736-3.229-.384-.285.607 1.065.272 1.405-.753.764-2.486.346-2.952 1.31-.602 1.243 1.077 2.973.319 4.131-.657 1.002-2.462 1.323-3.532.771-.963-.496-.174-2.351-.964-3.088-.402-.376-.241 1.557-.786 1.458-.965-.175-1.262-1.594-2.158-1.991-1.613-.715-3.444-1.702-5.151-1.245-1.515.404-1.588 3.427-3.157 3.472-2.148.061-3.713-2.152-5.571-3.228-1.037-.32-2.294-.248-3.11-.958-1-.871-.94-2.606-1.959-3.456-.67-.559-1.958.242-2.601-.344-1.218-1.109-1.255-3.159-2.47-4.271-.558-.51-1.599-.412-2.275-.071-.458.23-.002 1.663-.472 1.458-1.211-.528-1.607-2.174-2.736-2.857-.482-.292-1.463-.337-1.69.179-.455 1.03.852 2.515.122 3.374-1.014 1.194-3.276.593-4.411 1.675-.459.438 1.091 1.078.891 1.68-.312.941-1.142 2.094-2.141 2.083-1.963-.023-3.688-2.99-5.47-2.173-1.423.653.672 3.261.015 4.677-.285.616-1.502-.791-2.023-.35-.627.533.108 1.797-.42 2.428-.498.591-1.661.179-2.22.715-.295.283.622 1.144.216 1.206-1.376.208-2.748-.757-4.133-.612-1.144.12-2.228 2.033-3.167 1.372-1.136-.799.403-3.245-.697-4.09-.772-.593-1.361 1.731-2.337 1.756-.765.019-.819-1.734-1.582-1.656-.886.09-.896 1.791-1.764 1.999-.547.131-.698-.88-1.048-1.32-.38-.82-.457-1.87-1.143-2.461-.532-.459-1.732.281-2.09-.323-2.643-4.456-4.553-9.313-6.473-14.12-.278-.694-.396-1.572-.063-2.239.391-.781 1.716-.859 2.022-1.675.388-1.031-.61-2.297-.152-3.298.479-1.042 1.605-1.747 2.668-2.192.353-.147.805 1.051.919.688.369-1.17-.454-2.55.026-3.68.335-.788 1.973-.591 2.146-1.427.249-1.201-1.629-2.388-1.125-3.507.412-.912 1.962-.649 2.964-.575.287.021-.617.599-.386.769.976.715 2.157 1.214 3.354 1.411.847.138 2.076.271 2.536-.449.793-1.244-.267-3.154.547-4.385.46-.696 1.782.193 2.503-.229.623-.363.723-1.245 1.085-1.867z" stroke-width=".239"/><path d="m348.343 94.963c-.785 3.14-1.223 6.388-2.354 9.419-.204.545-1.499.317-1.505.9-.011.978 1.542 1.566 1.468 2.54-.07.908-1.771 1.136-1.815 2.045-.053 1.022 1.498 1.618 1.572 2.64.081 1.136-.811.869-3.473 2.98-.728.576-.193 2.143-1.002 2.597-.918.516-3.271-1.311-3.15-.263.549 4.852 3.883 9.063 4.69 13.88.146.866-1.579.895-2.092 1.611-.3.421-.104 1.03-.158 1.544.636 1.868.97 3.868 1.905 5.603 1.098 2.03 3.43 3.359 4.13 5.557.28.875-2.176 1.463-1.646 2.213.586.83 2.16-.76 3.035-.246.836.49.747 1.789 1.121 2.685-.369 1.431-.737 2.86-1.106 4.29-.628.516-1.822.732-1.884 1.543-.098 1.273 1.191 2.289 1.494 3.531.077.314-.648-.893-.774-.594-.438 1.045-.265 2.254-.396 3.381-2.648-.924-5.187-2.282-7.947-2.773-2.973-.527-6.041-.277-9.063-.249-.591.009-1.467-.173-1.737.353-.682 1.313.476 3.494-.711 4.373-1.056.783-2.497-1.111-3.808-1.021-1.113.077-1.889 1.426-3.006 1.489-.5.027-.332-1.098-.801-1.278-.427-.167-1.05.075-1.3.46-.492.764.003 2.059-.697 2.637-.419.346-.862-.662-1.294-.99-1.068-1.156-1.847-2.678-3.209-3.465-1.734-.998-4.087-.609-5.762-1.709-1.194-.783-1.112-2.857-2.335-3.595-1.949-1.172-4.501-.881-6.593-1.776-.475-.203-.251-1.53-.74-1.364-.9.303-1.803.606-2.707.912-1.264.427-1.598-2.144-2.398-3.216-1.295-.166-2.727.098-3.888-.496-.832-.426-.771-2.738-1.599-2.305-1.289.68-.815 2.87-1.691 4.038-.28.373-1.488-.368-1.405.091l.272 1.491c.172.931-1.868.653-2.797.474-.705-.135-1.127-.894-1.69-1.34-1.167-.76-2.901-1.021-3.506-2.276-.438-.917.993-1.854 1.038-2.869.02-.427-.547 1.012-.948.864-1.263-.463-1.99-1.914-3.244-2.404-.761-.295-1.923.818-2.442.189-.561-.676 1.104-2 .457-2.59-.787-.722-2.233.537-3.199.082-1.032-.482-1.271-1.959-2.199-2.624-.982-.702-2.157-1.302-3.364-1.352-1.769-.073-3.481 1.346-5.217.996-.853-.172-.569-1.739-1.231-2.301-1.709-1.452-3.799-2.389-5.699-3.582.003-1.336-.415-2.743.01-4.007.169-.506 1.33-.028 1.515-.529l1.055-2.88c.244-.66-1.261-.913-1.367-1.607-.072-.465.828-.59.953-1.043.146-.522.207-1.271-.211-1.613-1.404-1.146-3.597-1.175-4.828-2.505-.523-.564.547-1.52.398-2.274-.078-.392-.301 1.207-.65 1.011-.39-.219.458-1.135.062-1.34-1.282-.665-2.95-.213-4.253-.836-1.144-.546-2.828-1.279-2.822-2.546.005-.964 2.399.308 2.838-.549.348-.678-2.172-.535-1.915-1.252.303-.843 2.134.088 2.608-.672.473-.76-.86-1.786-.556-2.625.184-.508 1.753.26 1.6-.257-.208-.703-2.155-.276-1.967-.982.267-.999 1.772-1.069 2.659-1.603.382.565.527 1.405 1.144 1.695.418.196.903-.278 1.271-.555 2.434-1.832 4.339-4.48 7.107-5.75.692-.318.548 1.757 1.298 1.889 1.481.258 2.93-1.022 4.426-.89 1.131.101 1.896 1.602 3.029 1.554 1.346-.057 2.698-.831 3.602-1.828.492-.545-.354-1.592.051-2.204.547-.83 1.518-1.441 2.488-1.644.715-.148 1.705.061 2.076.688.521.883-.375 2.196.149 3.08.433.727 1.531 1.394 2.306 1.056 2.276-.992 3.465-3.927 5.851-4.615 1.78-.514 4.022.121 5.393 1.372 1.286 1.176.31 3.789 1.572 4.993.913.871 2.705-.529 3.786.121.8.481.137 2.07.852 2.668.674.563 1.852-.185 2.62.235.931.508 1.209 1.837 2.13 2.363.756.431 1.854-.131 2.588.332.821.516.729 2.298 1.695 2.366 1.272.088 1.993-1.843 3.258-2.022.515-.072-.085 1.421.429 1.501.877.136 1.565-1.075 2.451-1.049 1.28.038 2.53 1.858 3.646 1.228.83-.47-1.688-1.653-1.329-2.536.453-1.112 2.537-.771 3.105-1.828.314-.589-1.803-1.099-1.297-1.535 2.776-2.388 6.713-3.147 9.498-5.522.785-.67-.474-2.946.553-3.047 2.532-.249 4.857 1.52 7.287 2.28.728 1.511 2.327 2.498 3.807 3.285 1.637.872 3.584 2.198 5.335 1.589 1.63-.566 1.541-3.146 2.727-4.397.695-.734 2.134-.525 2.721-1.349 1.026-1.444.905-3.474 1.798-5.003.533-.913 1.345-1.823 2.355-2.121.567-.171.918.818 1.493.979z" stroke-width=".2404"/><path d="m296.594 45.54c.674.401.422 1.837 1.18 2.036.854.224 1.934-.355 2.414-1.096.754-1.16-.371-3.583.931-4.044 2.487-.882 5.573-.388 7.863.922 3.075 1.758 4.997 5.034 7.284 7.74.313.373.765 1.041.435 1.399-.711.773-2.312.391-2.893 1.269-.438.665.8 1.601.502 2.342-.238.595-1.563.175-1.76.788-.175.542 1.272.789 1.084 1.329-.446 1.271-1.409 2.503-2.631 3.077-1.187.557-2.808-.659-3.938.007-.894.527-.26 2.258-1.046 2.936-.454.393-1.172-.801-1.72-.553-1.304.589-2.543 1.563-3.255 2.805-.339.591.95 1.458.511 1.98-.355.426-.811-1.005-1.364-.963-.473.035-.869.652-.87 1.126-.002 1.18.058 2.57.856 3.44.477.519 1.577-.687 2.104-.22 1.538 1.36 2.536 6.698 3.089 5.968.26-.343.825-2.454 1.936-2.726 1.282-.315 3.033-.525 3.941.434 1.431 1.512.668 4.35 2.057 5.904.799.893 2.689-.408 3.575.399 3.589 3.272 6.862 7.038 9.231 11.277 1.46 2.615.674 6.069 1.972 8.771-2.445-.766-4.786-2.546-7.337-2.295-1.033.102.234 2.394-.555 3.068-2.806 2.391-6.769 3.155-9.563 5.559-.51.439 1.622.953 1.305 1.546-.571 1.064-2.671.72-3.126 1.84-.362.889 2.174 2.08 1.336 2.553-1.121.635-2.379-1.198-3.669-1.235-.894-.026-1.585 1.193-2.469 1.056-.517-.081.087-1.583-.43-1.511-1.275.18-1.999 2.125-3.281 2.035-.974-.067-.88-1.862-1.706-2.382-.741-.466-1.846.1-2.605-.334-.926-.529-1.209-1.868-2.145-2.379-.771-.422-1.96.33-2.638-.236-.722-.602-.054-2.202-.857-2.686-1.089-.655-2.894.754-3.813-.123-1.27-1.212-.286-3.842-1.582-5.026-1.379-1.26-3.637-1.898-5.43-1.381-2.399.693-3.597 3.647-5.889 4.646-.779.339-1.886-.332-2.32-1.063-.527-.889.375-2.211-.151-3.101-.372-.63-1.371-.841-2.089-.692-.979.205-1.957.82-2.508 1.655-.404.616.446 1.67-.05 2.219-.909 1.003-2.271 1.783-3.626 1.84-1.142.048-1.912-1.463-3.05-1.564-1.509-.134-2.965 1.155-4.456.895-.757-.132-.607-2.221-1.309-1.901-2.786 1.279-4.703 3.945-7.153 5.789-.371.279-.859.757-1.28.559-.621-.292-.767-1.138-1.151-1.707.06-.694.752-1.691.177-2.081-1.626-1.101-3.774-1.097-5.665-1.635-.35-.099-1.224.047-1.057-.276.363-.7 1.736-.621 1.917-1.386.125-.522-1.459-.282-1.391-.813.077-.608 1.252-.391 1.608-.889.831-1.161 1.936-2.463 1.804-3.883-.099-1.075-2.104-1.167-2.366-2.214-.449-1.791.788-3.715.423-5.526-.223-1.105-.956-2.569-2.077-2.669-1.272-.113-1.87 2.076-3.142 2.202-1.16.115-1.96-1.454-3.118-1.581-.896-.098-1.63 1.005-2.531.957-.708-.038-1.575-.503-1.767-1.186-.227-.807 1.125-1.648.755-2.398-.395-.802-1.859-.409-2.463-1.069-.285-.311.741-.997.378-1.207-1.345-.78-3.216-.33-4.514-1.189-.447-.296.607-1.104.346-1.571-.392-.7-2.212-.594-1.986-1.363.304-1.035 2.232-.656 2.84-1.544.351-.513-.779-1.196-.566-1.78.157-.429 1.067.056 1.334-.313.427-.586.7-1.454.445-2.133-.436-1.163-2.032-1.699-2.337-2.903-.242-.953 1.076-1.85.884-2.813-.26-1.301-2.168-2.048-2.117-3.375.039-1.02 1.551-1.329 2.326-1.992 1.875 1.093 3.455 3.341 5.622 3.279 1.583-.046 1.657-3.116 3.186-3.528 1.722-.463 3.57.54 5.199 1.266.903.403 1.203 1.845 2.178 2.022.55.1.386-1.862.793-1.48.797.748.001 2.633.973 3.137 1.079.56 2.901.234 3.564-.784.765-1.176-.929-2.934-.322-4.196.471-.979 2.22-.554 2.979-1.331.338-.346-.663-1.717-.275-1.428 1.146.854 1.403 2.838 2.762 3.281 1.322.431 2.646-1.129 4.035-1.061.609.031.658 1.291 1.271 1.325 1.158.065 3.271.09 3.312-1.067.058-1.68-2.363-2.456-3.133-3.949-.277-.539.476-1.298.158-1.816-.313-.516-1.748-.077-1.683-.678.164-1.487 2.308-2.422 2.19-3.911-.095-1.219-2.318-1.334-2.688-2.5-.223-.708 1.395-1.044 1.337-1.784-.099-1.239-1.616-2.064-1.739-3.3-.214-2.133 1.188-4.28.774-6.382-.213-1.085-1.899-1.27-2.472-2.217-.429-.709-.234-1.643-.353-2.464 1.528.431 3.271-.399 4.759.146 2.746 1.009 4.7 3.993 7.601 4.393 2.741.378 5.62-3.659 7.995-2.239 2.803 1.675.742 7.443 3.535 9.135 2.646 1.604 6.313-2.599 9.176-1.427 2.064.845 2.494 3.977 2.512 6.209.008 1.082-2.53 1.063-2.445 2.143.08 1.015 1.7 1.387 2.721 1.399.854.009 1.74-.611 2.187-1.34.603-.987.177-2.366.701-3.394.528-1.036 1.196-2.457 2.353-2.582 1.823-.2 3.633.827 5.206 1.762z" stroke-width=".242"/><path d="m34.012 130.034c-.17-.66.024-1.56-.51-1.979-1.501-1.177-4.243-.8-5.164-2.47-.604-1.096 1.673-1.948 2.071-3.133.133-.395-.36-.775-.658-1.068-.596-.584-1.156-1.444-1.988-1.529-.812-.083-1.447 1.436-2.191 1.102-.637-.287.51-1.646-.021-2.097-1.228-1.04-3.153-.866-4.504-1.737-.912-.588-1.152-1.946-2.081-2.508-.337-.205-.732.93-1.001.64-.502-.542.203-1.782-.42-2.176-1.193-.753-3.118.209-4.173-.728-.576-.511 1.463-1.444 1.02-2.07-1.282-1.804-4.008-2.193-5.316-3.977-.717-.98-.509-2.447-.265-3.638.217-1.058 1.524-1.746 1.592-2.824.076-1.207-.461-2.469-1.2-3.426-.618-.802-2.018-.724-2.623-1.536-.552-.74.15-2.113-.548-2.717-.782-.677-2.15.043-3.077-.416-.643-.318-1.605-1.102-1.271-1.736.693-1.314 3.345-1.185 3.585-2.65.3-1.834-3.383-3.551-2.318-5.074 1.101-1.577 4.286-1.088 5.768.137 1.42 1.172-.18 4.011.984 5.438.811.992 2.624-.019 3.817.441.478.183.964.852.78 1.329-.286.743-2.181.755-1.87 1.489.621 1.463 3.122 1.487 3.75 2.947.386.897-1.298 1.628-1.354 2.606-.049.844.383 1.805 1.065 2.304.809.591 2.56 1.551 2.943.625 1.022-2.468-.554-5.43.121-8.015.162-.618 1.405 1.17 1.797.667.525-.674-.62-1.738-.335-2.543.442-1.249 1.578-2.13 2.367-3.194s-.459.195 0 0c.46-.196 1.213-.116 1.378-.586.333-.947-.696-2.197-.11-3.012.467-.65 1.751.301 2.397-.169 1.229-.896 1.534-2.754 2.791-3.611.447-.304 1.147 1.161 1.456.717 1.076-1.55.171-4.394 1.781-5.377 3.531-2.157 8.506-1.211 9.287-1.386.78-.173 1.587-.788 2.339-.521 1.026.364 1.388 2.581 2.411 2.207 1.361-.497.951-2.889 2.047-3.836 1.249-1.08 2.926-1.938 4.575-1.896.74.019.301 2.476.897 2.036.933-.689-.205-3.721.895-3.36 3.798 1.247 10.113 9.427 8.971 6.601-.117-.29-.515-.741-.352-.87l.352.87c.641.562 1.087 1.523 1.923 1.685 1.112.214 2.206-.795 3.331-.671 1.934.213 4.17.337 5.596 1.66.764.708-.793 2.102-.472 3.093.194.599 1.1.803 1.727.765 2.294-.139 4.512-1.67 6.775-1.278 1.104.192 1.873 1.663 1.889 2.784.033 2.354-1.62 4.493-1.754 6.843-.026.458 1.125-.107 1.345.294.428.784.505 1.804.277 2.669-.119.449-1.325.302-1.184.746.32 1.015 1.811 1.345 2.161 2.35.17.488-1.071.774-.901 1.263.18.516 1.221.121 1.541.563.888 1.228 1.449 2.689 1.864 4.146.127.448.067 1.069-.289 1.372-.333.283-1.312-.448-1.313-.011-.002.848 1.858 1.543 1.305 2.187-.552.644-1.513-1.035-2.358-.961-.691.06-2.066.773-1.623 1.307.731.879 2.435.076 3.346.767.972.738 1.229 2.114 1.842 3.171-.456 0-1.089-.359-1.369-.001-.491.628-.759 1.607-.466 2.351.201.509 1.324-.026 1.577.459.261.501.003 1.35-.49 1.628-1.343.757-3.666-.14-4.477 1.172-1.057 1.709 1.806 5.112.019 6.035-1.811.935-3.163-2.706-5.072-3.423-1.211-.456-2.631.38-3.885.057-.462-.12-.295-1.482-.708-1.245-.908.521-.859 2.028-1.714 2.635-1.654 1.175-3.875 1.367-5.542 2.524-.341.236.479 1.058.107 1.241-.881.437-2.366-.627-2.948.166-.804 1.095.337 2.812-.166 4.075-.383.964-1.263 1.992-2.294 2.102-1.064.114-1.739-1.498-2.806-1.562-1.007-.06-1.77 1.354-2.77 1.225-1.169-.151-1.764-1.908-2.942-1.969-2.62-.138-5.327.393-7.746 1.408-.523.22 1.035 1.24.594 1.597-.777.627-2.259-.354-2.982.336-.515.491 1.071 2.411.434 2.093-1.111-.553-.991-2.897-2.229-2.989-1.539-.114-2.349 2.308-3.876 2.536-1.155.168-2.112-.993-3.164-1.486z" stroke-width=".2398"/><path d="m63.703 74.468c-.119-.293-.52-.748-.356-.878.853-.679 2.227-.354 3.126-.965 1.011-.688 1.993-1.631 2.39-2.786.793-2.309-.489-5.359 1.056-7.247.869-1.063 2.608 1.283 3.967 1.103 1.34-.177 2.144-1.875 3.478-2.083.5-.078-.125 1.293.344 1.482 1.275.515 3.229 1.372 4.113.32 2.285-2.718 2.058-6.891 3.942-9.9.409-.654 1.651-.481 2.314-.088.608.361.177 1.686.832 1.955.74.304 1.87.005 2.309-.664.559-.854-.475-2.244.133-3.064.622-.838 2.29-.266 2.938-1.083.769-.97-.434-3.729.797-3.626 1.648.138 1.767 2.86 3.018 3.944.938.812 2.194 1.982 3.372 1.587 1.903-.638 3.307-2.456 4.337-4.177.314-.526-1.07-1.041-.871-1.62.383-1.119 2.134-1.501 2.342-2.664.204-1.134-1.979-2.29-1.284-3.208.896-1.186 2.947-.458 4.374-.878 1.948-.575 3.69-2.024 5.718-2.099 1.188-.042 1.906 1.837 3.095 1.783.828-.038.659-1.916 1.481-1.992 2.478-.229 4.895.953 7.372 1.179.612.057 1.366.086 1.814-.333.446-.417-.068-1.444.441-1.782.459-.305 1.34.918 1.596.43 1.005-1.916.282-4.524 1.49-6.316.456-.677 1.639.908 2.383.571 1.566-.709 2.199-3.026 3.874-3.409 1.153-.263 1.9 1.532 3.044 1.826.452.116.771-.54 1.195-.734 4.167-1.918 8.74-3.075 12.567-5.602.892-.589-.337-2.758.662-3.14 3.499-1.336 7.717.113 11.152-1.375 1.229-.532 1.879-2.888.994-3.893-1.503-1.707-4.405-1.253-6.435-2.281-.453-.229-.95-.885-.727-1.34.283-.574 1.397-.235 1.766-.758.283-.4.278-1.367-.204-1.459-.938-.18-1.771.958-2.725.898-.769-.048-1.978-.427-1.98-1.198-.005-1.643 1.67-2.905 1.963-4.521.105-.574-1.057-.979-.86-1.526.3-.831 1.146-1.744 2.027-1.704 1.037.046 1.482 1.578 2.468 1.907 1.04.347 2.282-.413 3.291.016.924.393 1.015 2.18 2.018 2.241 1.214.074 1.892-1.819 3.104-1.927 1.042-.093 1.831 1.781 2.805 1.403.852-.331-.365-2.924.52-2.695.91.237-.56 2.051-.024 2.825.479.694 1.77.158 2.441.668.37.281-.196 1.233.247 1.375.661.21 1.395-1.049 1.973-.667 1.225.812 2.491 2.16 2.508 3.631.029 2.405-3.763 4.841-2.386 6.813 1.196 1.713 5.054-3.338 6.082-1.52 1.42 2.512-3.317 5.712-2.205 8.378-.365.631-.466 1.527-1.096 1.897-.729.428-2.063-.476-2.526.231-.821 1.249.248 3.19-.553 4.454-.463.731-1.704.596-2.558.456-1.209-.199-2.4-.707-3.385-1.434-.233-.172.679-.758.389-.78-1.011-.077-2.576-.343-2.991.583-.508 1.137 1.386 2.342 1.135 3.563-.175.85-1.828.649-2.166 1.45-.484 1.148.346 2.549-.027 3.738-.115.37-.571-.849-.928-.699-1.071.453-2.209 1.168-2.692 2.228-.462 1.016.545 2.303.154 3.35-.309.829-1.646.908-2.041 1.701-.338.678-.217 1.57.063 2.275 1.938 4.882 3.866 9.817 6.533 14.344.361.612 1.572-.139 2.108.327.693.601.771 1.667 1.154 2.5-.742.364-2.113.275-2.226 1.093-.247 1.799 2.109 3.633 1.348 5.283-.506 1.095-2.647-1.147-3.601-.408-.956.743.546 3.009-.512 3.599-.971.541-1.775-1.459-2.854-1.721-.45-.11-1.192.281-1.175.743.05 1.418 1.265 2.629 1.338 4.047.084 1.631.51 3.973-.884 4.822-1.856 1.131-4.442-.952-6.52-.308-1.126.35-.799 2.769-1.966 2.944-1.659.249-2.977-1.737-4.642-1.954-.443-.058.072 1.094-.323 1.304-.857.457-1.92.488-2.89.409-2.217-.18-4.396-.704-6.572-1.177-.882-.192-1.693-.971-2.582-.817-1.035.179-2.276.737-2.641 1.722-.409 1.1 1.415 2.501.72 3.448-.582.792-2.033-.89-2.915-.458-.522.256.826 1.357.364 1.711-1.635 1.253-4.1 1.095-5.706 2.387-.834.671-.371 2.211-1.046 3.044-.384.473-1.253.743-1.777.434-.951-.562-.918-2.949-1.981-2.655-2.044.565-2.602 3.604-4.541 4.461-1.743.771-3.89.605-5.722.077-.566-.163.353-2.108-.127-1.766-1.868 1.332-2.59 4.012-4.595 5.132-1.376.769-3.229-.4-4.729.084-1.55.5-3.289 1.306-4.042 2.75-.703 1.35.706 3.121.224 4.564-.174.523-1.191-.978-1.56-.566-.662.737.228 2.315-.557 2.924-.733.569-1.921-.734-2.763-.346-.77.355-.845 1.473-1.268 2.21-.753.433-1.463 1.644-2.26 1.3-1.02-.44-.51-2.579-1.558-2.946-.762-.267-.759 1.864-1.565 1.85-.667-.012-.098-1.54-.667-1.888-.512-.313-1.171.271-1.757.407-.619-1.066-.877-2.456-1.858-3.201-.919-.697-2.639.114-3.376-.773-.448-.538.94-1.258 1.637-1.319.853-.075 1.823 1.62 2.38.971.557-.65-1.32-1.351-1.317-2.207.001-.441.989.297 1.325.011.358-.306.419-.932.291-1.384-.419-1.47-.985-2.946-1.88-4.184-.323-.446-1.374-.047-1.555-.568-.172-.493 1.081-.781.91-1.274-.354-1.014-1.858-1.347-2.182-2.37-.141-.449 1.075-.301 1.195-.754.23-.873.153-1.903-.279-2.694-.222-.405-1.384.166-1.358-.296.135-2.372 1.804-4.53 1.771-6.906-.017-1.131-.792-2.616-1.906-2.809-2.284-.396-4.523 1.149-6.838 1.29-.633.039-1.546-.167-1.742-.772-.325-1 1.247-2.406.476-3.122-1.439-1.334-3.696-1.46-5.647-1.675-1.135-.125-2.239.893-3.361.677-.849-.159-1.299-1.13-1.945-1.697z" stroke-width=".242"/></g></svg>