<svg enable-background="new 0 0 500 286.25" height="286.25" viewBox="0 0 500 286.25" width="500" xmlns="http://www.w3.org/2000/svg"><path d="m465.759 180.107c-.974-.25-2.886.252-2.925-.748l-.128-3.227c-.049-1.226-2.385-.91-3.22-1.813-1.172-1.264-1.013-3.785-2.602-4.461-2.005-.852-4.396 1.109-6.513.593-1.4-.345-1.812-2.421-3.149-2.956-.673-.271-1.254.966-1.977.902-.456-.039-.306-1.188-.76-1.141-3.313.354-6.424 2.631-9.733 2.254-1.292-.146-.479-2.879-1.594-3.541-1.201-.715-2.802.063-4.202.094-.407-1.072-.108-2.926-1.223-3.223-1.278-.337-2.116 1.854-3.437 1.989-.601.063-1.037-.948-.94-1.541.127-.806 1.78-1.181 1.497-1.94-.69-1.849-2.371-3.209-3.896-4.469-.754-.619-2.093-.299-2.753-1.018-1.276-1.389-1.2-3.842-2.729-4.949-.651-.473-.757 1.919-1.561 1.844-1.175-.107-2.423-1.107-2.73-2.242-.431-1.582 1.61-3.428.803-4.854-.936-1.646-3.152-2.514-5.048-2.641-1.263-.084-1.904 2.225-3.16 2.087-1.692-.187-2.511-2.724-4.203-2.893-.849-.084-.064 2.26-.909 2.383-1.095.16-1.673-1.614-2.755-1.844-1.364-.29-2.98 1.094-4.171.368-2.346-1.43-3.038-4.813-5.406-6.205-.824-.485-1.407 1.773-2.355 1.643-2.008-.276-3.464-2.239-5.433-2.714-.868-.209-2.146 1.563-2.567.778-.73-1.359 1.528-3.439.51-4.597-.759-.862-1.789 2.241-2.887 1.895-1.521-.481-2.758-2.17-2.957-3.744-.184-1.438 1.717-2.452 1.986-3.874.094-.489-1.223-.618-1.038-1.08.529-1.327 2.937-1.857 2.778-3.276-.19-1.716-3.262-2.081-3.563-3.782-.315-1.79 1.072-3.513 1.998-5.081.896-1.519 2.933-2.362 3.396-4.06.396-1.444-1.264-2.868-1.099-4.355.088-.797 1.571-.87 1.763-1.648.24-.988-1.104-2.083-.632-2.985 1.105-2.116 2.99-3.813 4.925-5.221.736-.536 2.046.273 2.72-.339 1.066-.969.617-3.229 1.907-3.872 1.093-.545 2.604 2.052 3.467 1.19 1.179-1.177.213-3.317.318-4.974 1.768.006 2.952-2.051 4.651-2.522 2.259-.627 4.655-.838 6.997-.717.786.04 1.312 1.468 2.043 1.184 1.898-.738 3.637-2.134 4.762-3.827.56-.84-1.218-2.954-.207-3.019 1.854-.119 4.155 1.01 4.854 2.723.673 1.639-2.006 3.305-1.676 5.044.232 1.229 2.504 1.083 3.051 2.207.491 1.003.406 2.505-.346 3.333-.663.729-2.141-.264-2.952.295-.707.486-.222 1.93-.945 2.388-2.369 1.5-6.766.561-7.813 3.155-.857 2.123 2.74 3.707 4.408 5.28.512.483 1.304.945 1.979.75.626-.182.417-1.583 1.066-1.633.83-.065 1.58.722 2.075 1.388 1.51 2.034 2.711 4.293 3.837 6.563.406.821.03 2.06.733 2.651.938.789 2.579.224 3.563.955.512.379-.13 1.393.27 1.888.808.996 1.848 2.023 3.105 2.275 1.295.26 2.763-.153 3.861-.878 1.04-.686 1.15-2.287 2.12-3.067 1.026-.827 2.319-1.506 3.643-1.57 1.101-.053 2.16 1.878 3.061 1.248.916-.642.673-2.509-.066-3.344-.695-.785-2.249.261-3.148-.285-.47-.286-.354-1.207-.023-1.643.557-.735 1.449-1.551 2.367-1.445 1.479.171 2.998.991 3.896 2.169 1.049 1.378.465 3.597 1.533 4.959.848 1.082 2.36 1.857 3.733 1.761.776-.054.355-1.688 1.021-2.087.688-.416 1.84-.541 2.425.013.79.748-.011 2.533.898 3.133 1.271.841 3.286-.367 4.558.475.771.51-.214 1.983.304 2.746.764 1.124 1.937 2.104 3.244 2.479.482.139-.034-1.154.331-1.561.409-.453 1.599-.097 1.701-.696.11-.637-1.98-1.354-1.333-1.419 2.428-.247 4.975.018 7.277.819 2.299.798 3.871 3.117 6.188 3.861.819.263 1.901-.382 2.324-1.128.328-.576-1.131-1.486-.606-1.893.685-.529 2.216-.414 2.571.371.639 1.412-.898 3.208-.304 4.641.475 1.146 2.963.858 3.097 2.09.164 1.514-2.73 2.365-2.457 3.865.782 4.301 2.547 8.618 5.346 11.989 1.233 1.486 3.987.328 5.671 1.281.702.397.176 1.697.685 2.322.388.477 1.119.633 1.734.646 1.593.038 3.862-1.804 4.748-.489 2.252 3.334 1.52 7.918 2.833 11.716.36 1.043 2.001 1.466 2.112 2.563.116 1.14-1.381 1.943-1.541 3.08-.057.395 1.369.463 1.013.641-.894.45-2.09-.094-2.983.354-1.691.846-2.662 3.105-4.53 3.406-1.751.28-3.203-1.834-4.975-1.875-1.531-.035-2.75 1.668-4.282 1.661-.842-.004-1.038-1.589-1.874-1.69-1.101-.137-2.218.47-3.146 1.07-.599.387-1.162 1.049-1.219 1.758-.068.887 1.247 1.711.88 2.521-.757 1.666-2.761 2.464-3.824 3.957-.546.766-.415 1.87-.905 2.674-.446.732-1.016 1.549-1.832 1.819-2.161.719-3.058-.755-3.395-.091z" style="shape-rendering:geometricPrecision;image-rendering:optimizeQuality;fill:#168e33;stroke:#fff;stroke-width:.2407;stroke-linejoin:bevel"/></svg>