<svg enable-background="new 0 0 500 286.25" height="286.25" viewBox="0 0 500 286.25" width="500" xmlns="http://www.w3.org/2000/svg"><path d="m389.396 86.76c-.107 1.668.856 3.822-.321 5.006-.862.867-2.376-1.746-3.469-1.198-1.292.647-.846 2.921-1.911 3.897-.676.616-1.984-.198-2.725.341-1.937 1.417-3.819 3.125-4.93 5.255-.473.906.873 2.01.633 3.003-.188.783-1.678.856-1.765 1.659-.165 1.496 1.494 2.929 1.1 4.382-.464 1.709-2.503 2.558-3.397 4.086-.928 1.578-2.315 3.311-2 5.113.301 1.711 3.376 2.078 3.563 3.805.157 1.429-2.252 1.961-2.782 3.297-.184.465 1.137.595 1.041 1.087-.271 1.431-2.173 2.45-1.987 3.898.197 1.584 1.438 3.283 2.96 3.767 1.098.35 2.131-2.774 2.89-1.907 1.021 1.166-1.242 3.259-.51 4.626.422.789 1.701-.994 2.571-.783 1.969.478 3.428 2.454 5.438 2.731.95.131 1.534-2.141 2.361-1.653 2.369 1.4 3.062 4.806 5.407 6.245 1.191.729 2.813-.662 4.178-.371 1.083.232 1.664 2.017 2.758 1.854.847-.123.062-2.481.91-2.396 1.694.169 2.515 2.725 4.209 2.91 1.259.138 1.9-2.186 3.163-2.101 1.896.128 4.119 1 5.055 2.658.81 1.438-1.232 3.293-.803 4.889.309 1.142 1.559 2.146 2.732 2.258.806.072.908-2.331 1.563-1.855 1.529 1.114 1.454 3.582 2.729 4.98.66.724 2.003.398 2.757 1.021 1.526 1.269 3.212 2.637 3.9 4.496.286.771-1.371 1.146-1.499 1.955-.094.596.343 1.612.944 1.551 1.317-.136 2.16-2.342 3.438-2.002 1.114.297.814 2.162 1.225 3.242-.423 1.073-.184 2.836-1.27 3.221-1.352.479-2.698-1.619-4.1-1.315-.734.157.312 1.7-.207 2.246-.955 1.003-2.927.731-3.711 1.873-.432.628 1.16 1.294 1.018 2.038-.134.705-1.352.726-1.667 1.369-.248.514.114 1.136.171 1.701-1.411.293-2.852 1.284-4.23.877-1.123-.332-1.24-2.054-2.17-2.767-.322-.248-.979-.17-1.215.164-.52.741.097 2.247-.73 2.616-.953.426-2.657-1.948-2.987-.957-.452 1.361 1.874 2.365 2.048 3.789.092.738-.645 1.625-1.377 1.757-3.069.555-6.365-.681-9.365.185-.775.221 1.151 1.506.866 2.262-.512 1.354-1.493 3.063-2.938 3.207-1.104.108-.854-2.366-1.898-2.729-1.745-.604-3.945 1.09-5.54.154-1.071-.632.744-3.603-.493-3.702-1.429-.117-2.432 2.025-2.563 3.452-.153 1.63 2.11 2.959 1.807 4.567-.198 1.063-2.187.604-2.931 1.387-1.019 1.07-.968 2.966-2.105 3.906-.569.471-1.461-.238-2.188-.356-1.569.302-4.291-.636-4.705.905l-.89 3.295c-.136.503-.884-.545-1.326-.815-.582-1.932-.315-4.372-1.749-5.788-1.911-1.89-5.729-1.124-7.388-3.238-.977-1.242 1.198-2.992 1.263-4.57.021-.561-.531-1.582-1.031-1.332-.805.404-.329 2.76-1.169 2.438-1.127-.432-.516-2.461-1.295-3.381-.509-.6-1.841-.089-2.229-.771-.508-.887.486-2.146.04-3.063-.426-.874-1.803-.92-2.364-1.712-.56-.781-.09-2.146-.824-2.763-.794-.666-2.2-1.072-3.067-.509-1.131.737-2.262 1.478-3.393 2.213-1.021.666 2.164 1.246 2.924 2.199.771.967 1.504 2.148 1.52 3.383.008.578-1.244.39-1.471.92-.313.746.44 1.722.057 2.436-.537.992-1.449 2.364-2.57 2.212-1.934-.264-3.61-1.752-4.885-3.229-.443-.517-.039-1.472.379-2.005.45-.575 2.046-.264 1.964-.991-.117-1.034-1.92-1.14-2.313-2.103-.76-1.86-1.069-3.947-.98-5.955.021-.455 1.037-.104 1.271-.487.368-.603-.165-1.576.313-2.097.387-.42 2.269.013 1.711-.104-2.353-.496-5.356.569-7.142-1.039-1.249-1.128-.843-3.913.414-5.033.96-.854 2.339 1.908 3.556 1.495.97-.33.516-1.979.771-2.97.136-1.134-.041-2.349.4-3.397.127-.301.855.913.777.598-.308-1.248-1.602-2.27-1.5-3.549.061-.813 1.262-1.033 1.893-1.552.369-1.438.74-2.874 1.111-4.311-.375-.901-.287-2.207-1.127-2.699-.878-.517-2.461 1.082-3.052.249-.53-.755 1.938-1.346 1.655-2.225-.706-2.211-3.049-3.544-4.148-5.584-.942-1.743-1.278-3.753-1.917-5.63.055-.518-.143-1.13.161-1.553.514-.72 2.245-.749 2.101-1.62-.813-4.84-4.162-9.073-4.715-13.949-.119-1.053 2.245.783 3.168.265.812-.457.275-2.031 1.006-2.609 2.678-2.122 3.571-1.854 3.489-2.995-.073-1.027-1.632-1.626-1.578-2.653.046-.914 1.753-1.144 1.823-2.056.072-.979-1.485-1.57-1.477-2.552.006-.586 1.309-.356 1.511-.905 1.142-3.046 1.577-6.312 2.367-9.466.434.122 1.044.154 1.334-.186.622-.729.257-2.2 1.099-2.661 1.247-.684 2.999.378 4.259-.278.776-.405.12-2.656.971-2.446 1.229.303 1.072 2.393 2.052 3.192.356.29 1.281 0 1.305-.46.131-2.86.425-6.001-.896-8.542-.78-1.506-3.635-.736-4.634-2.107-1.722-2.362-1.337-5.812-2.923-8.265-.753-1.163-3.163-.655-3.678-1.941-.52-1.292.53-2.813 1.312-3.966.406-.6 1.296-1.143 1.982-.906 1.896.656 3.107 2.718 5.021 3.333.646.208.99-1.301 1.659-1.186 1.528.263 2.615 1.771 4.108 2.184 1.351.371 2.904-.429 4.197.104 1.116.459 1.311 2.32 2.473 2.645 1.402.394 2.954-1.272 4.314-.744.734.285-.634 1.734-.156 2.362 1.469 1.925 3.243 3.93 5.538 4.698 1.735.581 4.146-2.382 5.392-1.041 1.665 1.798-.115 4.955.445 7.341.161.684.287-1.49.828-1.938.489-.406 1.25-.343 1.883-.311.807.04 1.785-.038 2.357.528.629.617-.124 2.548.767 2.552z" style="shape-rendering:geometricPrecision;image-rendering:optimizeQuality;fill:#168e33;stroke:#fff;stroke-width:.2416;stroke-linejoin:bevel"/></svg>