<svg enable-background="new 0 0 500 286.25" height="286.25" viewBox="0 0 500 286.25" width="500" xmlns="http://www.w3.org/2000/svg"><path d="m348.343 94.963c-.785 3.14-1.223 6.388-2.354 9.419-.204.545-1.499.317-1.505.9-.012.978 1.542 1.566 1.468 2.54-.07.908-1.771 1.136-1.815 2.045-.053 1.022 1.498 1.618 1.572 2.64.081 1.136-.811.869-3.473 2.98-.729.576-.193 2.143-1.002 2.597-.918.516-3.271-1.311-3.15-.263.549 4.852 3.883 9.063 4.69 13.88.146.866-1.579.895-2.093 1.611-.3.421-.104 1.03-.157 1.544.636 1.868.97 3.868 1.904 5.603 1.099 2.03 3.431 3.359 4.13 5.557.28.875-2.176 1.463-1.646 2.213.586.83 2.16-.76 3.035-.246.836.49.747 1.789 1.121 2.686-.369 1.432-.737 2.859-1.106 4.29-.628.517-1.822.731-1.884 1.543-.098 1.272 1.19 2.289 1.494 3.531.077.313-.648-.894-.774-.595-.438 1.045-.265 2.254-.396 3.381-2.648-.924-5.188-2.281-7.947-2.772-2.973-.526-6.041-.276-9.063-.249-.591.01-1.467-.173-1.736.354-.683 1.313.476 3.494-.711 4.373-1.057.783-2.497-1.111-3.809-1.021-1.112.077-1.889 1.426-3.006 1.489-.5.026-.332-1.099-.801-1.278-.427-.167-1.05.075-1.3.46-.492.765.003 2.06-.697 2.638-.419.346-.862-.662-1.294-.99-1.068-1.156-1.847-2.678-3.209-3.465-1.734-.998-4.087-.609-5.762-1.709-1.194-.783-1.112-2.857-2.335-3.596-1.949-1.172-4.501-.881-6.594-1.775-.475-.203-.251-1.53-.739-1.364-.9.303-1.803.606-2.707.912-1.264.427-1.598-2.144-2.398-3.216-1.295-.166-2.727.098-3.888-.496-.832-.426-.771-2.738-1.599-2.305-1.289.68-.815 2.869-1.691 4.037-.28.373-1.488-.367-1.405.092l.272 1.49c.172.932-1.868.653-2.797.475-.705-.135-1.127-.895-1.69-1.34-1.167-.761-2.901-1.021-3.506-2.276-.438-.917.993-1.854 1.038-2.869.02-.427-.547 1.012-.948.864-1.263-.463-1.99-1.914-3.244-2.404-.761-.295-1.923.818-2.442.189-.561-.676 1.104-2 .457-2.59-.787-.723-2.232.536-3.199.082-1.031-.482-1.271-1.959-2.198-2.625-.981-.702-2.157-1.302-3.364-1.352-1.77-.073-3.48 1.346-5.217.996-.854-.172-.568-1.739-1.23-2.301-1.709-1.452-3.8-2.389-5.7-3.582.003-1.336-.415-2.743.01-4.007.169-.506 1.33-.028 1.515-.529l1.056-2.88c.244-.66-1.262-.913-1.367-1.607-.072-.465.828-.59.953-1.043.146-.522.207-1.271-.211-1.613-1.404-1.146-3.598-1.175-4.829-2.505-.523-.564.547-1.52.398-2.274-.078-.392-.301 1.207-.65 1.011-.39-.219.458-1.135.062-1.34-1.282-.665-2.95-.213-4.253-.836-1.144-.546-2.828-1.279-2.822-2.546.005-.964 2.399.308 2.838-.549.348-.678-2.172-.535-1.915-1.252.303-.843 2.134.088 2.608-.672.473-.76-.86-1.786-.556-2.625.184-.508 1.753.26 1.6-.257-.208-.703-2.155-.276-1.967-.982.267-.999 1.772-1.069 2.659-1.603.382.565.527 1.405 1.144 1.695.418.196.903-.278 1.271-.555 2.434-1.832 4.339-4.48 7.107-5.75.692-.318.549 1.757 1.299 1.889 1.48.258 2.93-1.022 4.426-.89 1.131.101 1.896 1.602 3.029 1.554 1.346-.057 2.697-.831 3.602-1.828.492-.545-.354-1.592.051-2.204.547-.83 1.518-1.441 2.488-1.644.715-.148 1.705.061 2.076.688.521.883-.375 2.196.148 3.08.434.727 1.531 1.394 2.307 1.056 2.275-.992 3.465-3.927 5.851-4.615 1.78-.514 4.022.121 5.393 1.372 1.286 1.176.31 3.789 1.572 4.993.913.871 2.705-.529 3.786.121.8.481.137 2.07.852 2.668.674.563 1.852-.185 2.62.235.931.508 1.209 1.837 2.13 2.363.756.431 1.854-.131 2.588.332.821.516.729 2.298 1.695 2.366 1.272.088 1.993-1.843 3.258-2.022.516-.072-.085 1.421.43 1.501.877.136 1.564-1.075 2.45-1.049 1.28.038 2.53 1.858 3.646 1.228.83-.47-1.688-1.653-1.329-2.536.453-1.112 2.537-.771 3.105-1.828.313-.589-1.804-1.099-1.298-1.535 2.776-2.388 6.714-3.147 9.498-5.522.785-.67-.474-2.946.554-3.047 2.531-.249 4.856 1.52 7.286 2.28.729 1.511 2.327 2.498 3.808 3.285 1.637.872 3.584 2.198 5.335 1.589 1.63-.566 1.541-3.146 2.727-4.397.695-.734 2.135-.525 2.722-1.349 1.025-1.444.904-3.474 1.798-5.003.533-.913 1.345-1.823 2.354-2.121.566-.173.917.816 1.492.977z" style="shape-rendering:geometricPrecision;image-rendering:optimizeQuality;fill:#168e33;stroke:#fff;stroke-width:.2404;stroke-linejoin:bevel"/></svg>