<svg enable-background="new 0 0 500 286.25" height="286.25" viewBox="0 0 500 286.25" width="500" xmlns="http://www.w3.org/2000/svg"><path d="m106.24 237.568c-1.098-.063-2.396-.825-3.294-.191-.889.629.203 3.227-.884 3.148-2.099-.146-3.524-2.31-5.202-3.577-.649-.491-1.58-.901-1.763-1.695-.534-2.323.896-5.069-.272-7.146-1.855-3.301-4.936-5.931-8.178-7.885-1.095-.658-2.54.973-3.782.666-1.541-.385-3.105-1.285-4-2.599-.809-1.188.123-3.065-.676-4.263-1.016-1.514-3.263-1.844-4.38-3.286-1.062-1.372-.845-3.479-1.915-4.845-.912-1.164-2.819-1.23-3.749-2.383-.797-.99-.224-1.932-.206-2.524.018-.597.417-1.316.054-1.788-.355-.46-1.247-.01-1.71-.361-1.625-1.232-2.595-3.299-4.387-4.273-1.456-.791-3.31-1.221-4.912-.789-.665.179.87 2.063.18 2.062-2.654-.008-5.632-.405-7.688-2.085-1.498-1.225-.697-3.888-1.671-5.559-.79-1.357-2.1-2.409-3.444-3.219-1.125-.681-2.896-.162-3.779-1.138-1.111-1.229-1.432-3.073-1.529-4.729-.104-1.771 1.668-3.613.948-5.234-.612-1.376-3.349-.577-4.112-1.875-1.391-2.368-.866-5.386-1.481-8.04-.165-.709-.189-1.073-.568-1.29-.646-.367-1.996.527-2.228-.18-.756-2.295 1.054-5.192-.219-7.245-1.038-1.672-4.113-.688-5.542-2.041-1.672-1.581-3.645-3.911-3.132-6.154.457-2.004 4.153-1.474 5.271-3.196.949-1.463-.391-3.589.198-5.23.227-.635 1.529-.102 1.912-.655.405-.585-.314-1.512.018-2.141 1.593-3.019 4.109-4.691 3.939-5.353s.025-1.563-.512-1.983l.512 1.983c1.056.496 2.015 1.658 3.167 1.487 1.532-.229 2.343-2.657 3.886-2.543 1.242.093 1.12 2.441 2.234 2.997.639.318-.951-1.606-.435-2.098.726-.692 2.211.291 2.989-.338.442-.358-1.119-1.38-.595-1.601 2.425-1.018 5.138-1.549 7.765-1.411 1.182.062 1.777 1.822 2.95 1.975 1.002.13 1.767-1.288 2.776-1.228 1.07.064 1.747 1.68 2.813 1.565 1.034-.111 1.916-1.141 2.3-2.107.505-1.267-.64-2.987.166-4.085.584-.795 2.072.271 2.956-.166.373-.184-.449-1.008-.107-1.244 1.672-1.16 3.897-1.353 5.556-2.531.857-.609.809-2.119 1.718-2.64.414-.238.247 1.128.71 1.247 1.257.325 2.68-.513 3.894-.057 1.914.719 3.269 4.369 5.085 3.431 1.791-.925-1.079-4.336-.02-6.049.814-1.315 3.142-.416 4.488-1.174.494-.279.752-1.129.491-1.632-.252-.486-1.379.05-1.58-.46-.293-.745-.026-1.726.467-2.356.281-.36.915.001 1.372.001.582-.135 1.238-.715 1.746-.405.564.345-.002 1.864.661 1.875.802.014.799-2.103 1.555-1.837 1.041.365.535 2.489 1.548 2.926.792.341 1.496-.86 2.244-1.291.541 1.06 1.456 2 1.619 3.179.055.395-.971-.429-1.195-.098-.666.987-2.181 3.054-1.047 3.419 2.778.896 5.79-1.06 8.706-.95.593.023 1.509.823 1.193 1.327-.463.74-2.031.035-2.508.766-.306.47.837.778 1.345 1.017 1.997.938 3.945 2.205 6.133 2.501 1.26.171 2.495-1.737 3.633-1.174 1.676.832 1.647 3.604 3.242 4.584 1.011.622 3.692-1.592 3.535-.417l-.381 2.843c-.225 1.683 3.207 1.143 4.861 1.522.529.122 1.449-.541 1.626-.029.23.667-1.145 1.192-.982 1.881l1.162 4.91c.141.596-1.645-.643-1.837-.062-1.286 3.878-2.285 7.988-2.143 12.076.031.886 2.625-.25 2.583.638-.05 1.032-2.004.78-2.691 1.559-.603.683-.108 2.229-.956 2.558-.695.271-.868-1.582-1.613-1.555-1.345.055-3.032.555-3.646 1.754l-1.756 3.438c-.213.418.261 1.109.719 1.213 1.084.238 2.855-1.318 3.32-.313.439.953-2.754.065-2.955 1.099-.219 1.122 2.605 1.528 2.229 2.608-.345.994-4.092-.431-3.157.051l5.732 2.951c2.529 1.304-1.578 5.609-1.291 8.443.072.71 1.77-.625 2.141-.018.621 1.018.024 2.387.036 3.58-.44 1.021-1.379 1.957-1.321 3.07.027.506 1.363-.221 1.497.269.318 1.151-.746 2.409-.437 3.565.24.896 1.902 1.084 1.929 2.012.022.765-1.408.744-1.833 1.381-.394.591-.622 1.384-.475 2.08.432 2.048 2.007 3.808 2.16 5.894.086 1.185-.64 2.411-1.496 3.237-.84.813-2.645.344-3.243 1.35-.576.973.976 2.366.444 3.365-.377.709-1.953-.373-2.395.3-.441.673.091 1.769.678 2.318.472.44 2.182-.47 1.934.126-.573 1.375-3.02 1.588-3.263 3.059-.237 1.434 2.116 2.354 2.126 3.805.006.808-1.729.496-2.093 1.218-.452.893.593 2.229-.042 3.003-.493.604-1.645-.477-2.331-.105-1.01.538-1.171 2.275-2.278 2.573-1.035.276-2.33-1.985-3.005-1.153-.858 1.059.86 2.686.674 4.034-.066.48-1.383.14-1.317.618.223 1.646 1.949 2.896 2.019 4.559.04.971-.887 1.863-1.732 2.342-.386.22-.799-1.035-1.118-.729-1.004.971-1.763 2.321-1.964 3.704-.269 1.872.407 3.766.608 5.646z" style="shape-rendering:geometricPrecision;image-rendering:optimizeQuality;fill:#168e33;stroke:#fff;stroke-width:.2404;stroke-linejoin:bevel"/></svg>