<svg enable-background="new 0 0 500 286.25" height="286.25" viewBox="0 0 500 286.25" width="500" xmlns="http://www.w3.org/2000/svg"><path d="m169.132 104.048c-.843.243-2.097-.693-2.632.008-.735.961.631 2.719-.154 3.64-.663.778-2.097.468-3.054.117-.685-.251-.64-1.878-1.354-1.733-2.083.424-3.921 1.785-5.564 3.143-.509.421 1.411-.522 1.966-.168 1.16.738 2.772 1.756 2.694 3.136-.069 1.207-2.455.942-2.991 2.025-.269.542 1.342.055 1.733.516.774.913.696 2.384 1.491 3.279.402.452 1.687-.211 1.768.391.127.941-1.812 1.646-1.379 2.491.521 1.017 2.594.164 3.225 1.116.444.67-1.141 1.386-1.039 2.187.057.451 1.368-.256 1.339.196-.044.686-1.967 1.014-1.448 1.459 1.352 1.159 3.374 2.178 5.069 1.647 1.06-.333-.595-2.708.32-3.339 1.247-.859 3.139.579 4.533-.007 1.076-.453 1.162-2.148 2.132-2.8.758-.508 1.928.046 2.698-.442.31-.196-.682-.935-.335-1.057 1.113-.392 2.381.155 3.539-.073.354-.07.418-.887.758-.773 1.54.512 2.654 2.025 4.224 2.429.431.111-.353-1.048-.021-1.346.315-.283 1.189.669 1.243.248.238-1.867-1.232-3.864-.555-5.618.502-1.304 2.651-1.118 3.562-2.171.495-.572.742-1.67.271-2.262-.782-.985-2.511-.75-3.381-1.658-.42-.438.552-1.51.039-1.833-1.226-.772-3.134.082-4.264-.828-.69-.556.636-2.152-.081-2.671-1.315-.953-3.337-.129-4.786-.859-.542-.272.148-1.874-.448-1.774-3.194.536-6.004 2.485-9.118 3.384z" style="shape-rendering:geometricPrecision;image-rendering:optimizeQuality;fill:#168e33;stroke:#fff;stroke-width:.2413;stroke-linejoin:bevel"/></svg>