<svg enable-background="new 0 0 500 286.25" height="286.25" viewBox="0 0 500 286.25" width="500" xmlns="http://www.w3.org/2000/svg"><path d="m251.081 126.656c-.074-.468.83-.593.957-1.047.146-.525.208-1.277-.213-1.621-1.409-1.15-3.611-1.18-4.848-2.516-.524-.567.551-1.527.401-2.284-.078-.393-.301 1.212-.653 1.015-.391-.219.46-1.139.063-1.346-1.287-.667-2.962-.214-4.272-.84-1.147-.549-2.84-1.285-2.833-2.558.005-.968 2.41.31 2.851-.551.349-.681-2.182-.538-1.923-1.258.304-.847 2.143.089 2.62-.676.475-.763-.864-1.793-.558-2.637.185-.51 1.76.262 1.606-.257-.208-.706-2.165-.277-1.975-.987.269-1.003 1.78-1.073 2.671-1.61.059-.692.75-1.687.176-2.076-1.622-1.098-3.765-1.095-5.651-1.63-.349-.099-1.222.047-1.055-.275.362-.699 1.731-.619 1.913-1.383.124-.521-1.455-.282-1.387-.813.077-.606 1.25-.39 1.604-.886.829-1.158 1.932-2.458 1.8-3.875-.099-1.073-2.098-1.164-2.36-2.209-.448-1.787.786-3.707.421-5.512-.222-1.104-.953-2.563-2.071-2.663-1.27-.113-1.865 2.07-3.134 2.196-1.157.115-1.955-1.451-3.111-1.577-.894-.098-1.626 1.002-2.524.954-.706-.038-1.572-.502-1.763-1.183-.227-.805 1.122-1.644.752-2.393-.394-.8-1.854-.408-2.457-1.067-.284-.31.739-.994.376-1.204-1.341-.777-3.208-.328-4.502-1.186-.446-.295.605-1.101.345-1.567-.39-.699-2.207-.593-1.981-1.36.303-1.032 2.227-.654 2.833-1.54.351-.512-.777-1.193-.564-1.776.157-.427 1.064.056 1.331-.312.425-.585.698-1.45.444-2.127-.435-1.16-2.028-1.696-2.332-2.897-.241-.95 1.073-1.845.881-2.806-.259-1.298-2.163-2.044-2.111-3.367.039-1.017 1.547-1.325 2.32-1.987-1.043-.324-2.309-.252-3.13-.971-1.008-.882-.947-2.641-1.973-3.502-.675-.565-1.97.245-2.618-.349-1.226-1.124-1.263-3.201-2.486-4.327-.561-.517-1.61-.417-2.291-.071-.461.233-.002 1.686-.476 1.478-1.219-.535-1.617-2.203-2.755-2.896-.485-.295-1.472-.342-1.701.182-.458 1.044.858 2.549.123 3.42-1.021 1.21-3.298.6-4.441 1.698-.462.443 1.099 1.092.898 1.702-.314.955-1.15 2.123-2.155 2.111-1.978-.023-3.713-3.03-5.507-2.202-1.433.662.676 3.304.015 4.739-.288.625-1.513-.802-2.037-.354-.632.54.109 1.821-.424 2.459-.501.6-1.671.182-2.235.725-.296.287.626 1.16.217 1.222-1.386.211-2.767-.767-4.161-.62-1.151.121-2.243 2.06-3.189 1.389-1.144-.81.405-3.288-.701-4.145-.777-.601-1.371 1.753-2.354 1.779-.77.02-.825-1.757-1.592-1.678-.892.092-.902 1.815-1.775 2.026-.551.133-.704-.893-1.056-1.337-.739.363-2.108.275-2.22 1.091-.247 1.795 2.104 3.625 1.344 5.27-.505 1.094-2.641-1.145-3.591-.406-.954.741.545 3.002-.51 3.59-.968.54-1.771-1.456-2.848-1.718-.448-.109-1.189.281-1.173.742.05 1.415 1.263 2.623 1.335 4.038.084 1.628.509 3.963-.882 4.811-1.851 1.128-4.431-.951-6.504-.308-1.123.349-.797 2.762-1.961 2.937-1.656.249-2.971-1.732-4.632-1.949-.441-.058.072 1.091-.322 1.301-.855.456-1.916.486-2.882.408-2.212-.179-4.387-.702-6.556-1.174-.88-.191-1.69-.968-2.576-.815-1.032.179-2.27.735-2.635 1.718-.407 1.097 1.413 2.496.719 3.439-.58.791-2.028-.888-2.908-.456-.521.255.824 1.354.362 1.707-1.631 1.25-4.089 1.092-5.692 2.38-.832.67-.369 2.205-1.044 3.037-.383.471-1.25.74-1.772.432-.948-.56-.916-2.942-1.977-2.649-2.038.563-2.594 3.595-4.53 4.451-1.739.769-3.88.603-5.708.076-.566-.163.351-2.103-.127-1.762-1.864 1.329-2.584 4.002-4.583 5.121-1.373.767-3.223-.4-4.719.084-1.546.499-3.281 1.303-4.032 2.744-.703 1.346.703 3.112.222 4.553-.174.522-1.188-.975-1.556-.564-.661.735.226 2.31-.556 2.917-.73.568-1.917-.732-2.756-.345-.769.354-.843 1.469-1.265 2.205.542 1.063 1.462 2.009 1.625 3.192.055.396-.976-.43-1.2-.098-.669.991-2.19 3.066-1.052 3.434 2.791.9 5.814-1.064 8.744-.954.595.022 1.516.826 1.198 1.332-.465.743-2.04.035-2.519.77-.307.472.841.781 1.35 1.021 2.006.943 3.963 2.214 6.16 2.513 1.266.171 2.505-1.746 3.648-1.178 1.683.834 1.655 3.618 3.255 4.602 1.016.625 3.708-1.598 3.55-.418l-.382 2.855c-.226 1.689 3.22 1.147 4.881 1.529.531.122 1.455-.543 1.632-.031.232.67-1.15 1.199-.986 1.89l1.167 4.932c.142.598-1.651-.646-1.845-.063-1.291 3.896-2.293 8.023-2.15 12.126.031.888 2.637-.251 2.594.64-.05 1.037-2.012.785-2.703 1.564-.606.686-.109 2.236-.96 2.568-.697.271-.87-1.59-1.618-1.563-1.353.053-3.046.557-3.662 1.762l-1.764 3.455c-.214.418.262 1.112.722 1.217 1.089.242 2.867-1.324 3.334-.313.441.957-2.766.065-2.968 1.103-.22 1.127 2.616 1.537 2.239 2.623-.346.996-4.109-.436-3.17.049l5.757 2.964c2.54 1.309-1.585 5.636-1.296 8.481.072.711 1.777-.632 2.15-.02.624 1.021.024 2.396.036 3.595 1.442-.515 2.798-1.626 4.324-1.54.746.042.516 1.822 1.263 1.855.836.037.999-1.654 1.833-1.717.948-.068 1.888.66 2.49 1.396.224.271-.973.632-.675.824.844.543 1.992.949 2.946.639.772-.252.58-1.736 1.332-2.038 1.146-.46 2.746.788 3.706.015.984-.795-.003-2.771.856-3.695.865-.928 2.518-1.738 3.632-1.135.998.541-.058 2.381.496 3.371.291.521 1.105.563 1.703.564 2.907.008 5.999.516 8.707-.543 1.14-.443.509-2.555 1.391-3.398.717-.688 1.962-1.047 2.898-.711 1.112.396 1.407 1.974 2.404 2.604.692.438 1.826-.104 2.419.46.364.348-.75 1.085-.408 1.453.491.523 1.455.648 2.126.389.988-.385 1.348-1.816 2.357-2.135.667-.211 1.486 1.292 1.953.771.555-.617-1.269-2.545-.446-2.448 1.751.204 2.725 2.419 4.417 2.915.5.146.205-1.098.592-1.447.207-.186.546.117.819.175.351.076.705.142 1.053.228 1.52.367 2.992 1.234 4.552 1.134.82-.056 1.322-2.126 1.912-1.558.639.613-1.612 1.91-.94 2.49 1.118.965 3.021-.009 4.407.502.624.229.578 1.715 1.229 1.575.602-.129-.293-1.323.029-1.847.542-.885 1.432-1.563 2.353-2.04 1.242-.644 3.379-.005 4.005-1.255.738-1.473-1.095-3.213-.943-4.854.045-.481 1.1.063 1.427-.297.771-.842.509-3.328 1.607-3.024 2.504.691 3.539 4.013 5.898 5.1.794.365 1.585-1.9 2.256-1.342 1.36 1.138.79 3.65 2.029 4.918.509.521 1.661-.127 2.056-.737.583-.905-.347-2.504.477-3.194.911-.761 2.738.676 3.556-.181.652-.685-1.68-2.427-.785-2.726 1.889-.625 3.9 1.209 5.881 1.031 1.622-.146 2.85-2.031 4.475-1.959 1.408.061 2.138 2.432 3.543 2.313.892-.076-.291-2.15.452-2.648 1.548-1.033 4.295.172 5.436-1.302.96-1.239.212-3.466-.838-4.63-.78-.864-2.584.563-3.489-.169-.867-.699-1.086-2.192-.755-3.254.442-1.423 2.161-2.117 2.838-3.439.561-1.095.118-2.569.775-3.61.369-.58 1.282-.865 1.948-.694.52.134.272 1.499.8 1.399 1.039-.194 1.461-1.644 2.449-2.017 1.566-.594 3.525.068 4.96-.792.883-.529.209-2.44 1.142-2.872.951-.44 1.958 1.075 3 .95.6-.072 1.155-.839 1.1-1.439-.095-1.052-2.052-1.915-1.481-2.803 1.237-1.923 3.813-2.526 5.719-3.789.003-1.342-.417-2.754.009-4.024.17-.509 1.337-.028 1.521-.531l1.061-2.892c.243-.663-1.266-.916-1.374-1.614zm-60.181-14.107c-.911 1.053-3.06.867-3.562 2.171-.677 1.754.793 3.751.555 5.618-.054.421-.928-.531-1.243-.248-.332.298.452 1.457.021 1.346-1.57-.404-2.684-1.917-4.224-2.429-.34-.114-.404.703-.758.773-1.158.228-2.426-.319-3.539.073-.347.122.645.861.335 1.057-.77.488-1.94-.066-2.698.442-.97.652-1.056 2.347-2.132 2.8-1.394.586-3.286-.852-4.533.007-.915.631.74 3.006-.32 3.339-1.695.531-3.717-.488-5.069-1.647-.519-.445 1.404-.773 1.448-1.459.029-.452-1.282.255-1.339-.196-.102-.801 1.483-1.517 1.039-2.187-.631-.952-2.704-.099-3.225-1.116-.433-.845 1.506-1.55 1.379-2.491-.081-.602-1.366.061-1.768-.391-.795-.895-.717-2.366-1.491-3.279-.391-.461-2.002.026-1.733-.516.536-1.083 2.922-.818 2.991-2.025.078-1.38-1.534-2.398-2.694-3.136-.555-.354-2.475.589-1.966.168 1.643-1.358 3.481-2.719 5.564-3.143.714-.145.669 1.482 1.354 1.733.957.351 2.391.661 3.054-.117.785-.921-.581-2.679.154-3.64.535-.701 1.789.235 2.632-.008 3.114-.899 5.924-2.848 9.118-3.384.596-.1-.094 1.502.448 1.774 1.449.73 3.471-.094 4.786.859.717.519-.609 2.115.081 2.671 1.13.91 3.038.056 4.264.828.513.323-.459 1.395-.039 1.833.87.908 2.599.673 3.381 1.658.471.592.224 1.69-.271 2.262z" fill="#168e33" stroke="#fff" stroke-linejoin="bevel" stroke-width=".2413"/></svg>