<svg enable-background="new 0 0 500 286.25" height="286.25" viewBox="0 0 500 286.25" width="500" xmlns="http://www.w3.org/2000/svg"><path d="m63.703 74.468c-.119-.293-.52-.748-.356-.878.853-.679 2.227-.354 3.126-.965 1.011-.688 1.993-1.631 2.39-2.786.793-2.309-.489-5.359 1.056-7.247.869-1.063 2.608 1.283 3.967 1.103 1.34-.177 2.144-1.875 3.478-2.083.5-.078-.125 1.293.344 1.482 1.275.515 3.229 1.372 4.113.32 2.285-2.718 2.058-6.891 3.942-9.9.409-.654 1.651-.481 2.314-.088.608.361.177 1.686.832 1.955.74.304 1.87.005 2.309-.664.559-.854-.475-2.244.133-3.064.622-.838 2.29-.266 2.938-1.083.769-.97-.434-3.729.797-3.626 1.648.138 1.767 2.86 3.018 3.944.938.812 2.194 1.982 3.372 1.587 1.903-.638 3.307-2.456 4.337-4.177.314-.526-1.07-1.041-.871-1.62.383-1.119 2.134-1.501 2.342-2.664.204-1.134-1.979-2.29-1.284-3.208.896-1.186 2.947-.458 4.374-.878 1.948-.575 3.69-2.024 5.718-2.099 1.188-.042 1.906 1.837 3.095 1.783.828-.038.659-1.916 1.481-1.992 2.478-.229 4.895.953 7.372 1.179.612.057 1.366.086 1.814-.333.446-.417-.068-1.444.441-1.782.459-.305 1.34.918 1.596.43 1.005-1.916.282-4.524 1.49-6.316.456-.677 1.639.908 2.383.571 1.566-.709 2.199-3.026 3.874-3.409 1.153-.263 1.9 1.532 3.044 1.826.452.116.771-.54 1.195-.734 4.167-1.918 8.74-3.075 12.567-5.602.892-.589-.337-2.758.662-3.14 3.499-1.336 7.717.113 11.152-1.375 1.229-.532 1.879-2.888.994-3.893-1.503-1.707-4.405-1.253-6.435-2.281-.453-.229-.95-.885-.727-1.34.283-.574 1.397-.235 1.766-.758.283-.4.278-1.367-.204-1.459-.938-.18-1.771.958-2.725.898-.769-.048-1.978-.427-1.98-1.198-.005-1.643 1.67-2.905 1.963-4.521.105-.574-1.057-.979-.86-1.526.3-.831 1.146-1.744 2.027-1.704 1.037.046 1.482 1.578 2.468 1.907 1.04.347 2.282-.413 3.291.016.924.393 1.015 2.18 2.018 2.241 1.214.074 1.892-1.819 3.104-1.927 1.042-.093 1.831 1.781 2.805 1.403.852-.331-.365-2.924.52-2.695.91.237-.56 2.051-.024 2.825.479.694 1.77.158 2.441.668.37.281-.196 1.233.247 1.375.661.21 1.395-1.049 1.973-.667 1.225.812 2.491 2.16 2.508 3.631.029 2.405-3.763 4.841-2.386 6.813 1.196 1.713 5.054-3.338 6.082-1.52 1.42 2.512-3.317 5.712-2.205 8.378-.365.631-.466 1.527-1.096 1.897-.729.428-2.063-.476-2.526.231-.821 1.249.248 3.19-.553 4.454-.463.731-1.704.596-2.558.456-1.209-.199-2.4-.707-3.385-1.434-.233-.172.679-.758.389-.78-1.011-.077-2.576-.343-2.991.583-.508 1.137 1.386 2.342 1.135 3.563-.175.85-1.828.649-2.166 1.45-.484 1.148.346 2.549-.027 3.738-.115.37-.571-.849-.928-.699-1.071.453-2.209 1.168-2.692 2.228-.462 1.016.545 2.303.154 3.35-.309.829-1.646.908-2.041 1.701-.338.678-.217 1.57.063 2.275 1.938 4.882 3.866 9.817 6.533 14.344.361.612 1.572-.139 2.108.327.693.601.771 1.667 1.154 2.5-.742.364-2.113.275-2.226 1.093-.247 1.799 2.109 3.633 1.348 5.283-.506 1.095-2.647-1.147-3.601-.408-.956.743.546 3.009-.512 3.599-.971.541-1.775-1.459-2.854-1.721-.45-.11-1.192.281-1.175.743.05 1.418 1.265 2.629 1.338 4.047.084 1.631.51 3.973-.884 4.822-1.856 1.131-4.442-.952-6.52-.308-1.126.35-.799 2.769-1.966 2.944-1.659.249-2.977-1.737-4.642-1.954-.443-.058.072 1.094-.323 1.304-.857.457-1.92.488-2.89.409-2.217-.18-4.396-.704-6.572-1.177-.882-.192-1.693-.971-2.582-.817-1.035.179-2.276.737-2.641 1.722-.409 1.1 1.415 2.501.72 3.448-.582.792-2.033-.89-2.915-.458-.522.256.826 1.357.364 1.711-1.635 1.253-4.1 1.095-5.706 2.387-.834.671-.371 2.211-1.046 3.044-.384.473-1.253.743-1.777.434-.951-.562-.918-2.949-1.981-2.655-2.044.565-2.602 3.604-4.541 4.461-1.743.771-3.89.605-5.722.077-.566-.163.353-2.108-.127-1.766-1.868 1.332-2.59 4.012-4.595 5.132-1.376.769-3.229-.4-4.729.084-1.55.5-3.289 1.306-4.042 2.75-.703 1.35.706 3.121.224 4.564-.174.523-1.191-.978-1.56-.566-.662.737.228 2.315-.557 2.924-.733.569-1.921-.734-2.763-.346-.77.355-.845 1.473-1.268 2.21-.753.433-1.463 1.644-2.26 1.3-1.02-.44-.51-2.579-1.558-2.946-.762-.267-.759 1.864-1.565 1.85-.667-.012-.098-1.54-.667-1.888-.512-.313-1.171.271-1.757.407-.619-1.066-.877-2.456-1.858-3.201-.919-.697-2.639.114-3.376-.773-.448-.538.94-1.258 1.637-1.319.853-.075 1.823 1.62 2.38.971.557-.65-1.32-1.351-1.317-2.207.001-.441.989.297 1.325.011.358-.306.419-.932.291-1.384-.419-1.47-.985-2.946-1.88-4.184-.323-.446-1.374-.047-1.555-.568-.172-.493 1.081-.781.91-1.274-.354-1.014-1.858-1.347-2.182-2.37-.141-.449 1.075-.301 1.195-.754.23-.873.153-1.903-.279-2.694-.222-.405-1.384.166-1.358-.296.135-2.372 1.804-4.53 1.771-6.906-.017-1.131-.792-2.616-1.906-2.809-2.284-.396-4.523 1.149-6.838 1.29-.633.039-1.546-.167-1.742-.772-.325-1 1.247-2.406.476-3.122-1.439-1.334-3.696-1.46-5.647-1.675-1.135-.125-2.239.893-3.361.677-.849-.159-1.299-1.13-1.945-1.697z" style="shape-rendering:geometricPrecision;image-rendering:optimizeQuality;fill:#168e33;stroke:#fff;stroke-linecap:round;stroke-linejoin:round"/></svg>