<svg enable-background="new 0 0 500 286.25" height="286.25" viewBox="0 0 500 286.25" width="500" xmlns="http://www.w3.org/2000/svg"><path d="m258.23 239.001c.652-.438 1.196-1.503 1.961-1.313 1.14.283 1.39 2.619 2.55 2.438 1.045-.166.212-2.326 1.024-3.004.832-.695 2.187-.883 3.217-.536.979.329 1.097 2.671 2.064 2.313 1.346-.494.951-2.828 1.994-3.81.622-.586 1.854.081 2.529-.444.945-.74.848-2.522 1.929-3.041 1.253-.602 3.028.912 4.17.114.938-.657-.385-2.687.513-3.396.688-.547 1.596 1.433 2.4 1.086.854-.367.398-1.93 1.063-2.577.562-.548 1.545-.994 2.258-.67.613.28.086 1.463.548 1.957.657.704 1.627 1.106 2.558 1.36.479.131 1.114.09 1.461-.263.553-.56.148-2.106.932-2.163 1.432-.107 2.494 1.545 3.899 1.809.804.15 1.626-.289 2.364-.633.76-.355 1.809-.641 2.063-1.438.221-.685-1.603-1.54-.987-1.911 1.639-.992 4.035.063 5.673-.93.852-.516.048-2.135.671-2.907.419-.521 1.502.106 1.967-.367.892-.907 1.54-2.143 1.724-3.396.103-.705-.258-1.75-.948-1.918-.729-.178-1.13 1.179-1.876 1.234-.479.033.956-.69.854-1.16-.178-.813-1.91-1.23-1.539-1.979.644-1.298 2.784-1.179 3.672-2.319.417-.537.189-1.547-.297-2.021-.734-.718-2.604-.095-2.888-1.08-.439-1.527.307-3.326 1.254-4.603.531-.715 2.589.299 2.609-.595.027-1.212-2.59-1.405-2.531-2.618.071-1.527 2.141-2.248 2.829-3.609.213-.422-.68-1.096-.31-1.387 2.076-1.621 5.29-1.733 6.937-3.791.84-1.049-.474-2.647-.727-3.972-.351-1.831-1.215-3.629-1.086-5.485.098-1.373 1.938-2.393 1.729-3.752-.202-1.316-2.506-1.59-2.753-2.896-.149-.789 1.654 1.068 2.323.628 1.229-.812 2.624-2.272 2.379-3.729-.244-1.463-2.972-1.392-3.477-2.785-.422-1.168.795-2.354 1.192-3.527-1.071-1.158-1.854-2.686-3.218-3.475-1.738-1-4.098-.61-5.776-1.713-1.196-.785-1.112-2.863-2.34-3.603-1.955-1.176-4.512-.884-6.606-1.782-.478-.203-.252-1.535-.743-1.369-.903.308-1.809.61-2.713.916-1.27.428-1.604-2.146-2.406-3.223-1.299-.167-2.73.098-3.897-.498-.832-.427-.771-2.746-1.601-2.311-1.293.682-.818 2.877-1.695 4.047-.281.375-1.492-.368-1.408.094l.273 1.494c.171.932-1.874.654-2.805.474-.709-.135-1.131-.896-1.694-1.342-1.171-.763-2.91-1.024-3.515-2.284-.44-.919.994-1.857 1.041-2.875.018-.428-.551 1.014-.953.866-1.266-.464-1.996-1.92-3.252-2.408-.763-.299-1.928.819-2.451.188-.559-.678 1.107-2.006.461-2.598-.787-.724-2.238.538-3.207.084-1.034-.486-1.273-1.967-2.205-2.631-.983-.704-2.161-1.305-3.372-1.355-1.771-.073-3.491 1.35-5.229.998-.854-.172-.572-1.742-1.234-2.307-1.715-1.455-3.809-2.394-5.712-3.59l-.014.028c-1.903 1.26-4.474 1.862-5.708 3.782-.57.886 1.383 1.748 1.478 2.797.054.6-.499 1.366-1.098 1.437-1.039.124-2.045-1.388-2.994-.948-.931.431-.259 2.337-1.139 2.865-1.433.859-3.389.199-4.951.79-.985.374-1.407 1.819-2.444 2.015-.527.1-.28-1.266-.798-1.396-.665-.171-1.577.113-1.944.693-.656 1.039-.214 2.513-.774 3.604-.676 1.319-2.392 2.017-2.833 3.435-.33 1.061-.11 2.55.754 3.246.904.729 2.705-.691 3.483.17 1.048 1.162 1.795 3.384.836 4.621-1.138 1.471-3.88.267-5.424 1.303-.741.498.439 2.568-.452 2.643-1.401.117-2.13-2.249-3.536-2.311-1.623-.07-2.848 1.812-4.467 1.957-1.978.179-3.985-1.654-5.87-1.027-.894.295 1.434 2.036.783 2.719-.816.854-2.64-.58-3.549.18-.823.688-.317 2.125-.477 3.188l.003-.047c.319.94 1.424 1.944.958 2.821-.501.945-2.854.021-3.026 1.08-.226 1.389 2.347 2.15 2.269 3.557-.235 4.238-3.184 8.095-3.152 12.34.01 1.322 2.916.987 3.26 2.266.271 1.008-1.883 1.375-2.001 2.414-.115 1.016.744 1.945 1.417 2.713 1.266 1.438 2.433 3.429 4.312 3.799 1.365.271 2.128-2.338 3.517-2.25 1.196.078 1.391 2.07 2.448 2.639.92.49 2.323-.348 3.113.336.55.477.274 1.821-.19 2.021-.475.205-2.509-.067-1.896.063 1.219.263 2.697-.248 3.711.478.841.604.325 2.176 1.038 2.922.502.527 1.486.729 2.145.416.852-.4.78-2.229 1.722-2.239 1.781-.021 3.428 1.142 4.885 2.164.305.213-.633 1.104-.262 1.085 2.225-.105 4.705-2.655 6.536-1.391 1.579 1.096-1.156 4.076-.229 5.756 1.369 2.479 3.927 4.246 6.454 5.522.604.306.437-1.67 1.114-1.698 1.627-.071 3.041 1.527 4.667 1.444 1.264-.065 2.078-1.565 3.313-1.858.586-.138 1.446.123 1.678.683.237.578-1.021 1.231-.674 1.753.516.768 1.868.438 2.56 1.045.528.471.907 1.251.819 1.95-.088.72-.586 1.545-1.277 1.762-.776.244-1.84-1.241-2.363-.618-.833.988.163 2.686-.372 3.862-.248.551-1.387.146-1.683.673-.237.428.806.942.551 1.358-.818 1.334-3.141 1.712-3.38 3.26-.146.938 2.091-.42 2.848.153.496.381-.688 1.479-.196 1.863 1.229.963 3.164.573 4.444 1.463.537.373.279 1.278.419 1.918z" style="shape-rendering:geometricPrecision;image-rendering:optimizeQuality;fill:#168e33;stroke:#fff;stroke-width:.241;stroke-linejoin:bevel"/></svg>