<svg enable-background="new 0 0 500 286.25" height="286.25" viewBox="0 0 500 286.25" width="500" xmlns="http://www.w3.org/2000/svg"><path d="m465.654 180.637c-.971-.252-2.871.254-2.91-.753l-.128-3.245c-.048-1.234-2.37-.918-3.2-1.822-1.164-1.271-1.005-3.811-2.584-4.488-1.993-.854-4.372 1.115-6.479.595-1.393-.345-1.8-2.437-3.131-2.975-.669-.271-1.248.973-1.966.907-.454-.037-.304-1.193-.755-1.146-3.293.354-6.388 2.647-9.678 2.271-1.284-.146-.479-2.896-1.586-3.563-1.196-.719-2.786.063-4.181.094-.42 1.073-.181 2.835-1.26 3.222-1.343.478-2.679-1.619-4.072-1.316-.729.158.312 1.701-.205 2.245-.947 1.004-2.904.733-3.686 1.874-.427.627 1.151 1.294 1.01 2.039-.131.705-1.341.724-1.651 1.369-.248.512.11 1.134.169 1.699-1.402.295-2.833 1.284-4.205.879-1.115-.334-1.232-2.056-2.154-2.769-.321-.248-.973-.17-1.205.164-.516.742.095 2.247-.728 2.616-.947.426-2.642-1.948-2.969-.957-.447 1.359 1.863 2.363 2.034 3.79.091.735-.641 1.622-1.367 1.756-3.052.555-6.322-.681-9.305.185-.769.223 1.147 1.506.863 2.262-.509 1.354-1.485 3.063-2.919 3.209-1.095.106-.85-2.369-1.889-2.731-1.731-.604-3.92 1.09-5.502.153-1.063-.629.738-3.6-.49-3.701-1.418-.117-2.413 2.025-2.545 3.451-.152 1.631 2.096 2.96 1.796 4.568-.2 1.063-2.175.604-2.912 1.389-1.013 1.07-.96 2.963-2.093 3.904-.565.471-1.448-.238-2.176-.357-1.558.302-4.259-.635-4.672.906l-.882 3.295c-.135.502-.879-.545-1.318-.816-.682 1.191-2.145 2.203-2.043 3.574.165 2.229 2.314 3.914 2.756 6.104.138.683-1.813 1.437-1.183 1.719 1.237.558 3.227-1.521 4.043-.434.917 1.219-.082 3.262-.997 4.48-.59.783-2.259-.118-2.861.654-.659.842.451 2.342-.171 3.215-.435.61-1.771-.426-2.235.164-.413.525.614 1.256.595 1.93-.012.43-1.026.839-.685 1.098.688.518 1.726.523 2.558.313 1.733-.444 3.113-2.434 4.89-2.229 1.099.125 1.364 1.864 1.521 2.967.176 1.26-1.199 2.67-.571 3.771.396.69 1.49-1.231 2.208-.896 1.031.483.87 2.424 1.934 2.834 1.444.557 3.1-.47 4.639-.3.618.068 1.413.394 1.59.991.289.982-1.139 2.354-.396 3.053.771.732 2.191-.9 3.148-.445 1.371.656 1.549 3.164 3.045 3.412 1.686.278 2.961-1.973 4.658-2.125.614-.059.377 1.326.921 1.619.841.457 2.295-.369 2.84.42.557.807-1.266 2.217-.559 2.889 1.211 1.152 3.605.096 4.855 1.201 1.769 1.561 2.327 4.109 3.489 6.168 1.217-.735 2.007 1.449 4.342-.858 2.213-2.185 2.74-5.981 5.362-7.642 2.2-1.395 6.008 1.26 7.77-.664 2.277-2.489 1.307-6.646 1.959-9.965.104-.531.32-1.141 5.067-1.811.851-.12 1.628.946 2.462.749 1.321-.313 2.622-1.09 3.464-2.16 1.431-1.813 2.662-3.93 3.116-6.198.313-1.562-1.552-3.969-.871-4.988.683-1.021 1.829-1.85 2.038-3.059.563-3.234-.52-6.648.201-9.852.276-1.235 2.028-1.616 2.629-2.729.307-.566-.677-1.638-.105-1.938 4.422-2.354 9.72-2.849 13.994-5.462 1.494-.913 2.187-2.905 2.521-4.635.211-1.076-1.313-2.526-1.011-3.133z" style="shape-rendering:geometricPrecision;image-rendering:optimizeQuality;fill:#168e33;stroke:#fff;stroke-width:.2408;stroke-linejoin:bevel"/></svg>