<?xml version="1.0" encoding="utf-8"?>
<!-- Generator: Adobe Illustrator 15.0.0, SVG Export Plug-In . SVG Version: 6.00 Build 0)  -->
<!DOCTYPE svg PUBLIC "-//W3C//DTD SVG 1.1//EN" "http://www.w3.org/Graphics/SVG/1.1/DTD/svg11.dtd">
<svg version="1.1" id="Layer_1" xmlns="http://www.w3.org/2000/svg" xmlns:xlink="http://www.w3.org/1999/xlink" x="0px" y="0px"
	 width="50px" height="50px" viewBox="0 0 50 50" enable-background="new 0 0 50 50" xml:space="preserve">
<g>
	<path fill-rule="evenodd" clip-rule="evenodd" fill="#FFFFFF" d="M48.627,39.578c0,1.111-0.936,2.047-2.046,2.047H3.419
		c-1.112,0-2.046-0.936-2.046-2.047V10.407c0-1.11,0.934-2.031,2.046-2.031h43.162c1.11,0,2.046,0.92,2.046,2.031V39.578z
		 M6.205,14.127H4.53c0.192-0.741,0.934-1.305,1.675-1.674V14.127z M8.814,14.127L8.814,14.127H8.443v2.608H6.945v-4.283H8.62
		c1.112,0,2.046,0.756,2.238,1.674H8.814z M11.051,16.736L11.051,16.736H9.376v-1.688h1.674V16.736z M9.376,17.479h1.482
		c-0.37,0.741-0.934,1.096-1.482,1.482V17.479z M6.945,17.479h1.498v1.482H6.945V17.479z M6.205,18.96
		c-0.741-0.386-1.303-0.741-1.482-1.482h1.482V18.96z M4.53,16.736v-1.688h1.675v1.688H4.53z M34.678,15.804
		c0-1.676,1.29-2.981,2.966-2.981c0.755,0,1.304,0.179,1.675,0.564c0.563-0.564,1.304-0.741,1.867-0.741
		c0.741,0,1.305,0.177,1.675,0.564c0.371,0.177,0.741,0.548,0.934,0.918c0.371,0.564,0.371,0.92,0.371,1.482
		c0,1.676-1.305,2.964-2.979,2.964c-0.563,0-1.126-0.177-1.675-0.549c-0.563,0.549-1.112,0.756-1.867,0.756
		c-0.92,0-1.854-0.562-2.417-1.126c-0.192-0.37-0.37-0.741-0.549-1.126C34.678,16.173,34.678,15.981,34.678,15.804L34.678,15.804z
		 M35.79,17.286c0.564,0.547,1.111,0.934,1.854,0.934c0.563,0,0.933-0.194,1.304-0.564h0.192h0.371l0,0h0.37h0.179
		c0.192-0.177,0.385-0.177,0.385-0.37h-0.192h-0.371h-0.37H39.14h-0.37c-0.193-0.194-0.193-0.194-0.193-0.372h0.371h0.371h0.37
		h0.371h0.385h0.37c0-0.179,0-0.385,0.179-0.563h-0.371h-0.37h-0.371h-0.934H38.77h-0.371l0,0c0-0.178,0-0.178,0-0.37h0.178h0.371
		h0.192h0.92h0.192h0.37h0.371c0,0,0-0.177,0-0.371l0,0h-0.371h-0.37l0,0H40.06h-1.112h-0.371h-0.37c0-0.177,0-0.37,0.192-0.37
		h0.178h0.371h0.934h0.371h0.37h0.371c0-0.193,0-0.372-0.179-0.549h-0.37H40.06h-0.179H39.14h-0.37h-0.371
		c0-0.208,0.178-0.208,0.178-0.387h0.371h0.371h0.192h0.37h0.179h0.192h0.37c0,0,0-0.177-0.178-0.177c0,0,0-0.192-0.192-0.192
		h-0.371h-0.192h-0.178h-0.192H39.14h-0.192c0-0.177,0-0.177,0-0.177c-0.371-0.192-0.741-0.371-1.304-0.371
		c-1.289,0-2.417,1.097-2.417,2.417c0,0.177,0,0.37,0,0.37C35.419,16.736,35.598,17.092,35.79,17.286L35.79,17.286z M44.343,19.331
		H30.943c-1.289,0-2.415-1.111-2.415-2.416v-2.431c0-1.274,1.126-2.401,2.415-2.401h13.399c1.497,0,2.417,1.126,2.417,2.401v2.431
		C46.76,18.22,45.84,19.331,44.343,19.331L44.343,19.331z M22.39,35.5c0-0.206-0.177-0.206-0.177-0.206
		c-0.192,0-0.192,0-0.192,0.206l0,0v0.743h-0.372v-1.128h0.372v0.179c0-0.179,0-0.179,0-0.179c0.192,0,0.192,0,0.37,0
		c0,0,0,0,0.192,0c0,0,0,0,0,0.179c0.179-0.179,0.179-0.179,0.179-0.179c0.192,0,0.192,0,0.192,0c0.179,0,0.179,0,0.179,0h0.192
		c0,0.179,0,0.179,0,0.179V35.5v0.743h-0.192V35.5c0,0,0,0-0.179-0.206l0,0c-0.192,0-0.192,0-0.192,0.206l0,0v0.743H22.39V35.5
		L22.39,35.5L22.39,35.5z M19.782,35.294c0,0,0,0-0.177,0c-0.192,0-0.192,0-0.192,0.206c0,0,0,0,0,0.179v0.564h-0.371v-1.128h0.371
		v0.179c0-0.179,0-0.179,0-0.179c0.192,0,0.192,0,0.37,0h0.193c0.192,0,0.192,0.179,0.192,0.385v0.743h-0.385V35.5
		C19.782,35.5,19.782,35.5,19.782,35.294L19.782,35.294z M18.123,36.051L18.123,36.051L18.123,36.051H18.3v0.192h-0.177
		c-0.192,0-0.387,0-0.387,0v-0.192v-0.757h-0.177v-0.179h0.177v-0.368h0.387v0.368H18.3v0.179h-0.177v0.564
		C18.123,36.051,18.123,36.051,18.123,36.051L18.123,36.051z M13.838,34.568h0.372v1.482h0.739v0.192h-1.111V34.568z M16.995,35.858
		c0,0,0,0-0.177,0c-0.192-0.18-0.385-0.18-0.385-0.18V35.5c0-0.206,0-0.206,0-0.385c0.192,0,0.385,0,0.385,0c0.177,0,0.37,0,0.37,0
		c0.179,0,0.179,0.179,0.179,0.385h-0.179c0-0.206-0.193-0.206-0.193-0.206s0,0-0.177,0l0,0c-0.192,0-0.192,0-0.192,0
		c0,0.206,0,0.206,0.192,0.206c0,0,0,0,0.177,0c0.193,0,0.372,0.179,0.372,0.179v0.18c0,0.192,0,0.192,0,0.385
		c-0.179,0-0.372,0-0.549,0c-0.192,0-0.192,0-0.385,0c0-0.192,0-0.192,0-0.385h0.192v0.192c0.192,0,0.192,0,0.37,0l0,0
		c0.193,0,0.193,0,0.193,0C17.188,35.858,17.188,35.858,16.995,35.858L16.995,35.858z M10.666,35.294c0,0,0,0-0.177,0
		c0,0-0.192,0-0.192,0.206l0,0v0.743H9.925V35.5l0,0c0-0.206,0-0.206-0.192-0.206c0,0,0,0-0.179,0.206l0,0v0.743H9.376v-1.128h0.177
		v0.179c0-0.179,0.179-0.179,0.179-0.179h0.192c0.192,0,0.192,0,0.192,0c0.179,0,0.179,0,0.179,0.179c0-0.179,0-0.179,0.192-0.179
		c0,0,0,0,0.177,0c0,0,0,0,0.192,0l0,0c0.192,0.179,0.192,0.179,0.192,0.179V35.5v0.743h-0.385V35.5
		C10.666,35.5,10.666,35.5,10.666,35.294L10.666,35.294z M6.768,36.243H6.397v-1.675h0.371l0.741,1.29v-1.29h0.177v1.675H7.332
		l-0.564-1.128V36.243z M24.065,35.294C23.872,35.5,23.872,35.5,23.872,35.5h0.564c0,0,0,0,0-0.206c-0.177,0-0.177,0-0.177,0
		C24.065,35.294,24.065,35.294,24.065,35.294L24.065,35.294z M20.908,35.679c-0.192,0-0.192,0.18-0.192,0.18l0,0
		c0,0.192,0,0.192,0,0.192l0,0c0.192,0,0.192,0,0.372,0v-0.192v-0.18H20.908L20.908,35.679z M15.691,35.679
		c-0.179,0-0.179,0.18-0.179,0.18H15.32c0,0.192,0.192,0.192,0.192,0.192l0,0c0.179,0,0.179,0,0.179,0
		c0.193,0,0.193-0.192,0.193-0.192v-0.18C15.884,35.679,15.884,35.679,15.691,35.679L15.691,35.679L15.691,35.679z M11.792,35.294
		H11.6c0,0.206,0,0.206,0,0.206h0.372c0,0,0,0,0-0.206H11.792L11.792,35.294z M8.443,36.051H8.62v-0.192v-0.18l0,0H8.443v0.18
		c-0.192,0-0.192,0-0.192,0c0,0.192,0,0.192,0,0.192C8.443,36.051,8.443,36.051,8.443,36.051L8.443,36.051z M8.071,35.679
		c0.179,0,0.179-0.179,0.372-0.179l0,0c0.177,0,0.177,0,0.177,0l0,0c0-0.206,0-0.206,0-0.206s0,0-0.177,0l0,0
		C8.25,35.294,8.25,35.5,8.25,35.5H8.071c0-0.206,0-0.206,0-0.385c0.179,0,0.179,0,0.372,0c0.177,0,0.371,0,0.371,0
		c0.193,0,0.193,0.179,0.193,0.385v0.551l0,0c0,0.192,0,0.192,0,0.192l0,0l0,0H8.814l0,0c0,0,0,0,0-0.192
		C8.62,36.243,8.62,36.243,8.62,36.243c-0.177,0-0.177,0-0.37,0H8.071c0,0-0.192-0.192-0.192-0.385L8.071,35.679L8.071,35.679z
		 M11.6,36.051h0.192c0.179,0,0.179,0,0.179,0s0,0,0-0.192h0.37c0,0.192,0,0.192,0,0.192c-0.177,0.192-0.37,0.192-0.549,0.192
		c-0.192,0-0.37,0-0.37,0c-0.192-0.192-0.192-0.385-0.192-0.564c0-0.179,0-0.385,0.192-0.563c0,0,0.177,0,0.37,0
		c0.179,0,0.179,0,0.372,0c0,0,0,0,0.177,0.179V35.5v0.179H11.6C11.6,35.858,11.6,36.051,11.6,36.051L11.6,36.051z M15.691,35.294
		L15.691,35.294c-0.179,0-0.179,0-0.179,0V35.5h-0.37c0-0.206,0-0.206,0-0.385c0.177,0,0.37,0,0.548,0c0,0,0.193,0,0.385,0
		c0,0,0,0.179,0,0.385v0.551l0,0c0,0.192,0.177,0.192,0.177,0.192l0,0l0,0h-0.37l0,0c0,0,0,0,0-0.192
		c0,0.192-0.193,0.192-0.193,0.192h-0.179c-0.192,0-0.192,0-0.37,0c0,0,0-0.192,0-0.385c0,0,0-0.18,0.177-0.18l0.192-0.179h0.179
		l0,0c0.193,0,0.193,0,0.193,0C15.884,35.294,15.884,35.294,15.691,35.294L15.691,35.294z M21.087,35.294h-0.179
		c-0.192,0-0.192,0-0.192,0V35.5h-0.37c0-0.206,0-0.206,0.192-0.385c0,0,0.177,0,0.37,0c0.179,0,0.179,0,0.372,0
		c0,0,0.177,0.179,0.177,0.385v0.551l0,0c0,0.192,0,0.192,0,0.192l0,0l0,0h-0.37l0,0c0,0,0,0,0-0.192c0,0.192,0,0.192-0.179,0.192
		h-0.192c-0.177,0-0.177,0-0.177,0c-0.192,0-0.192-0.192-0.192-0.385c0,0,0-0.18,0.192-0.18l0.177-0.179h0.192c0,0,0,0,0.179,0l0,0
		C21.087,35.294,21.087,35.294,21.087,35.294L21.087,35.294z M24.436,35.115c0.192,0,0.192,0,0.192,0.179l0.179,0.206v0.179h-0.936
		c0,0.18,0,0.372,0.193,0.372c0,0,0,0,0.194,0c0,0,0,0,0.177,0c0,0,0,0,0-0.192h0.372c0,0.192-0.179,0.192-0.179,0.192
		c-0.192,0.192-0.192,0.192-0.37,0.192c-0.194,0-0.387,0-0.564,0c0-0.192-0.177-0.385-0.177-0.564c0-0.179,0.177-0.385,0.177-0.563
		c0.177,0,0.37,0,0.564,0H24.436L24.436,35.115z M28.156,28.237c0.193,0,0.193,0,0.193,0c0-0.175,0.179-0.175,0.179-0.175
		c0-0.18-0.179-0.18-0.179-0.372c0,0,0,0-0.193,0h-0.179c0,0.192,0,0.192,0,0.372c0,0,0,0,0,0.175H28.156L28.156,28.237z
		 M29.654,26.935c-0.192,0-0.192,0-0.192,0c0,0.206-0.18,0.206-0.18,0.385s0.18,0.179,0.18,0.179c0,0.192,0,0.192,0.192,0.192
		c0,0,0,0,0.177-0.192c0,0,0,0,0-0.179s0-0.179,0-0.179C29.831,26.935,29.654,26.935,29.654,26.935L29.654,26.935z M28.156,27.498
		c0.193,0,0.193-0.179,0.193-0.179s0,0,0-0.179c0,0,0,0,0-0.206c0,0,0,0-0.193,0h-0.179c0,0.206,0,0.206,0,0.206
		c0,0.179,0,0.179,0,0.179L28.156,27.498L28.156,27.498z M31.329,28.431h-0.386v-1.111h-0.371v-0.385h0.192h0.179v-0.179l0,0h0.386
		V28.431z M32.618,27.141c0-0.206,0-0.206-0.177-0.206c0,0-0.179,0-0.179,0.206v0.179h-0.386c0-0.179,0-0.179,0-0.385
		c0.192-0.179,0.386-0.179,0.564-0.179c0.177,0,0.369,0,0.547,0c0,0.179,0,0.385,0,0.563c0,0,0,0.179,0,0.371
		c0,0-0.178,0-0.37,0.192l0,0c-0.177,0.18-0.177,0.18-0.177,0.18l-0.179,0.175h0.726v0.193h-1.111v-0.193
		c0.192-0.175,0.192-0.354,0.386-0.547c0.179,0,0.355-0.192,0.355-0.192l0.192-0.179C32.811,27.141,32.618,27.141,32.618,27.141
		L32.618,27.141z M27.608,27.319c0,0,0,0,0-0.179c0-0.206,0-0.206,0.177-0.385c0,0,0.192,0,0.371,0c0.193,0,0.372,0,0.372,0
		c0.192,0.179,0.192,0.179,0.192,0.385c0,0.179,0,0.179,0,0.179c0,0.179,0,0.179-0.192,0.179c0.192,0,0.192,0.192,0.192,0.192
		c0,0.192,0.177,0.192,0.177,0.372c0,0.175-0.177,0.175-0.177,0.368c-0.192,0-0.371,0.192-0.564,0.192
		c-0.179,0-0.371-0.192-0.371-0.192c-0.177-0.193-0.177-0.193-0.177-0.368c0-0.18,0-0.18,0-0.372l0.177-0.192
		C27.785,27.498,27.608,27.498,27.608,27.319L27.608,27.319z M29.831,27.883c-0.177,0-0.177,0-0.369,0c0,0-0.18,0-0.372-0.192
		c0,0-0.192-0.192-0.192-0.371s0.192-0.385,0.192-0.385c0.192-0.179,0.372-0.179,0.564-0.179c0.177,0,0.369,0,0.562,0.385
		c0,0,0,0.179,0,0.55c0,0.192,0,0.372,0,0.372c-0.192,0.368-0.385,0.561-0.562,0.561c-0.192,0-0.372-0.192-0.372-0.192
		c-0.192,0-0.192-0.193-0.192-0.368h0.372v0.175c0,0,0,0,0.192,0c0,0,0.177,0,0.177-0.175c0,0,0-0.18,0-0.372
		C29.831,27.883,29.831,27.883,29.831,27.883L29.831,27.883z M17.736,27.141l-0.548,0.742h0.548V27.141z M20.715,28.237
		c0-0.175,0-0.175,0-0.354V27.69c-0.177,0-0.177,0-0.177,0c-0.192,0-0.192,0-0.192,0c-0.179,0-0.179,0.192-0.179,0.192
		c0,0.18,0,0.18,0.179,0.354c0,0,0,0,0.192,0C20.538,28.237,20.538,28.237,20.715,28.237L20.715,28.237z M19.975,28.237
		c0-0.175-0.193-0.354-0.193-0.547s0-0.192,0-0.371c0.193-0.179,0.193-0.179,0.193-0.385l0.192-0.179c0.179,0,0.179,0,0.371,0
		c0.177,0,0.177,0,0.37,0c0,0.179,0.179,0.179,0.179,0.385h-0.372l0,0c0-0.206-0.177-0.206-0.177-0.206
		c-0.192,0-0.192,0.206-0.371,0.206c0,0.179,0,0.179,0,0.357l0.179-0.179h0.192c0.177,0,0.37,0,0.37,0.179
		c0.179,0.192,0.179,0.192,0.179,0.385c0,0.18,0,0.354-0.179,0.548c0,0-0.192,0.192-0.37,0.192
		C20.167,28.623,20.167,28.431,19.975,28.237L19.975,28.237z M18.669,28.431c-0.192-0.193-0.192-0.193-0.192-0.368h0.192
		c0.192,0,0.192,0.175,0.192,0.175s0,0,0.179,0h0.192c0-0.175,0-0.175,0-0.354V27.69h-0.192h-0.179l0,0h-0.385l0.192-0.935h0.935
		v0.179h-0.743v0.563c0-0.179,0-0.179,0-0.179c0.179,0,0.179,0,0.179,0c0.192,0,0.371,0,0.371,0.179
		c0.192,0,0.192,0.192,0.192,0.385c0,0.18,0,0.354-0.192,0.548c0,0-0.179,0.192-0.371,0.192
		C18.862,28.623,18.669,28.431,18.669,28.431L18.669,28.431z M16.995,28.063v-0.18l0.564-1.127h0.564v1.127H18.3v0.18h-0.177v0.368
		h-0.387v-0.368H16.995z M22.021,27.69c0,0.192,0,0.192,0,0.372c-0.192,0.175-0.192,0.368-0.192,0.368h-0.372
		c0-0.193,0.192-0.548,0.372-0.933c0.192-0.179,0.192-0.357,0.385-0.357h-0.934v-0.385h1.303v0.179c0,0.206-0.192,0.206-0.192,0.385
		C22.213,27.498,22.213,27.498,22.021,27.69L22.021,27.69z M6.768,28.063c0.177,0.175,0.177,0.175,0.37,0.175
		c0,0,0.194,0,0.194-0.175c0,0,0-0.18,0-0.372l0,0c0-0.371,0-0.371,0-0.55c0-0.206-0.194-0.206-0.194-0.206
		c-0.192,0-0.192,0-0.37,0.206c0,0.179,0,0.179,0,0.55v0.192C6.768,28.063,6.768,28.063,6.768,28.063L6.768,28.063z M8.443,28.431
		v-1.111H7.879v-0.385c0.192,0,0.192,0,0.372,0c0,0,0,0,0.192,0v-0.179l0,0h0.371v0.385v1.29l0,0H8.62H8.443z M9.925,26.756
		c0.192,0,0.372,0,0.372,0c0.192,0.179,0.192,0.385,0.192,0.563c0,0,0,0.179,0,0.371c-0.192,0-0.192,0-0.372,0.192l0,0H9.925
		c0,0.18,0,0.18-0.192,0.18v0.175h0.756v0.193H9.376v-0.193l0,0c0-0.175,0.177-0.354,0.356-0.547c0.192,0,0.192-0.192,0.385-0.192
		v-0.179c0-0.179,0-0.179,0-0.179c0-0.206-0.192-0.206-0.192-0.206c-0.192,0-0.192,0-0.192,0.206v0.179H9.376
		c0-0.179,0-0.179,0-0.385l0.177-0.179c0,0,0,0,0.179,0C9.732,26.756,9.732,26.756,9.925,26.756L9.925,26.756z M11.971,27.141
		c0,0.179-0.179,0.179-0.179,0.357c0,0,0,0-0.192,0c0.192,0,0.192,0,0.192,0.192c0.179,0,0.179,0.192,0.179,0.372
		c0,0,0,0.175-0.179,0.368c-0.192,0-0.192,0.192-0.37,0.192c-0.372,0-0.564-0.192-0.564-0.386c-0.192,0-0.192-0.175-0.192-0.354
		h0.385c0,0.18,0,0.18,0,0.18c0,0.175,0.179,0.175,0.372,0.175c0,0,0,0,0.177,0c0-0.175,0-0.175,0-0.175c0-0.18,0-0.18-0.177-0.372
		H11.23v-0.192h0.192c0-0.179,0-0.179,0.177-0.179c0,0,0,0,0-0.179c0,0,0,0-0.177,0c0-0.206,0-0.206-0.192-0.206
		c0,0,0,0-0.179,0.206c0,0,0,0,0,0.179h-0.385c0-0.179,0-0.179,0.192-0.385c0,0,0,0,0-0.179c0.192,0,0.192,0,0.192,0
		c0.179,0,0.179,0,0.372,0c0,0,0.177,0,0.37,0C11.792,26.935,11.971,26.935,11.971,27.141L11.971,27.141z M6.397,27.69
		c0-0.371,0.179-0.55,0.179-0.756c0.192-0.179,0.192-0.179,0.562-0.179c0.194,0,0.372,0,0.372,0.179
		c0.177,0.206,0.177,0.385,0.177,0.563v0.192c0,0.192,0,0.547-0.177,0.547c0,0.193-0.177,0.386-0.372,0.386
		c-0.37,0-0.37-0.192-0.562-0.386c0,0,0-0.175-0.179-0.175C6.397,27.883,6.397,27.883,6.397,27.69L6.397,27.69z M40.252,27.883
		v-0.742l-0.371,0.742H40.252z M38.77,27.69c0,0,0,0-0.193,0v-0.192c0.193,0,0.193,0,0.193,0c0.178-0.179,0.178-0.179,0.178-0.357
		l0,0c-0.178-0.206-0.178-0.206-0.178-0.206c-0.193,0-0.193,0-0.193,0.206c0,0-0.178,0-0.178,0.179h-0.192c0-0.179,0-0.179,0-0.385
		c0,0,0,0,0.192-0.179c0,0,0,0,0.178,0c0,0,0,0,0.193,0c0.178,0,0.178,0,0.37,0c0.179,0.179,0.179,0.179,0.179,0.385
		c0,0.179,0,0.179-0.179,0.357l0,0c0,0,0,0,0,0.192c0.179,0,0.179,0.192,0.179,0.372c0,0,0,0.175-0.179,0.368
		c0,0-0.192,0.192-0.37,0.192c-0.371,0-0.563-0.192-0.563-0.386c0,0,0-0.175-0.192-0.354h0.385c0,0.18,0,0.18,0.178,0.18
		c0,0.175,0,0.175,0.193,0.175h0.178c0-0.175,0-0.175,0-0.175C38.947,27.883,38.947,27.883,38.77,27.69L38.77,27.69z M41.734,27.69
		c0,0,0,0-0.178,0l0,0c-0.179,0-0.179,0-0.179,0h-0.385l0.192-0.935h0.934v0.179h-0.741v0.563c0-0.179,0-0.179,0.179-0.179
		c0,0,0,0,0.178,0c0,0,0.192,0,0.385,0.179c0,0,0.178,0.192,0.178,0.385c0,0.18-0.178,0.354-0.178,0.548
		c-0.192,0-0.385,0.192-0.563,0.192c-0.179,0-0.371-0.192-0.371-0.192c-0.192-0.193-0.192-0.193-0.192-0.368h0.385v0.175h0.179
		c0.178,0,0.178,0,0.178,0c0-0.175,0.192-0.175,0.192-0.354L41.734,27.69L41.734,27.69z M43.039,28.237h0.192
		c0-0.175,0-0.175,0-0.354V27.69h-0.192H42.86l-0.192,0.192c0,0.18,0.192,0.18,0.192,0.354H43.039L43.039,28.237z M43.602,27.141
		h-0.37l0,0c0-0.206-0.192-0.206-0.192-0.206c-0.179,0-0.179,0.206-0.179,0.206c0,0.179-0.192,0.179-0.192,0.357
		c0.192,0,0.192-0.179,0.192-0.179c0.179,0,0.179,0,0.179,0c0.192,0,0.385,0,0.385,0.179c0.178,0.192,0.178,0.192,0.178,0.385
		c0,0.18,0,0.354-0.178,0.548c0,0-0.192,0.192-0.385,0.192c-0.179,0-0.371-0.192-0.549-0.386c0-0.175,0-0.354,0-0.547
		s0-0.192,0-0.371s0-0.179,0-0.385c0.178,0,0.178-0.179,0.178-0.179c0.192,0,0.192,0,0.371,0c0.192,0,0.385,0,0.385,0
		C43.602,26.935,43.602,26.935,43.602,27.141L43.602,27.141z M40.814,27.883v0.18h-0.192v0.368h-0.37v-0.368h-0.741v-0.18
		l0.741-1.127h0.37v1.127H40.814z"/>
</g>
</svg>
