<?xml version="1.0" encoding="utf-8"?>
<!-- Generator: Adobe Illustrator 15.0.0, SVG Export Plug-In . SVG Version: 6.00 Build 0)  -->
<!DOCTYPE svg PUBLIC "-//W3C//DTD SVG 1.1//EN" "http://www.w3.org/Graphics/SVG/1.1/DTD/svg11.dtd">
<svg version="1.1" id="Layer_1" xmlns="http://www.w3.org/2000/svg" xmlns:xlink="http://www.w3.org/1999/xlink" x="0px" y="0px"
	 width="50px" height="50px" viewBox="0 0 50 50" enable-background="new 0 0 50 50" xml:space="preserve">
<g>
	<path fill-rule="evenodd" clip-rule="evenodd" fill="#FFFFFF" d="M41.951,41.117H3.205v2.938H7.58v2.939h29.995v-2.939h4.376
		V41.117z M15.129,13.692c-1.87,0.634-1.036,3.774,0.869,2.939c2.305-0.634,3.14-2.939,2.505-5.244
		c-0.2-0.834-0.835-1.871-1.269-2.705h-3.575C13.893,9.317,16.6,13.291,15.129,13.692L15.129,13.692z M16.6,7.412
		c-0.202-0.401-0.202-1.035,0.433-1.469c1.67-1.036,0-3.741-1.669-2.706c-1.705,1.035-2.104,2.505-1.905,4.175H16.6z M23.947,13.692
		c-2.105,0.634-1.269,3.774,0.634,2.939c2.305-0.634,3.141-2.939,2.507-5.244c-0.202-0.834-0.837-1.871-1.271-2.705h-3.339
		C22.678,9.317,25.217,13.291,23.947,13.692L23.947,13.692z M25.417,7.412c-0.2-0.401-0.434-1.035,0.2-1.469
		c1.671-1.036,0.2-3.741-1.67-2.706c-1.469,1.035-2.105,2.505-1.871,4.175H25.417z M21.842,39.681c5.88,0,10.89-2.738,14.264-6.915
		c1.036,0.601,2.104,0.835,3.14,0.835c4.209,0,7.551-3.373,7.551-7.549c0-1.27-0.202-2.506-0.837-3.542
		c-0.435,0.402-1.67,0.602-3.34,0.836c0.601,0.6,1.035,1.67,1.035,2.706c0,2.305-2.104,4.176-4.409,4.176
		c-0.436,0-0.835,0-1.469-0.201c1.269-2.069,1.87-4.176,2.104-6.681h-0.234H7.814c-1.471,0-2.739,0-3.775,0
		C4.674,32.532,12.424,39.681,21.842,39.681L21.842,39.681z M44.925,20.807c-1.471-1.47-3.375-2.271-5.278-2.505l0,0H4.239
		c-0.2,0.634-0.2,1.47-0.2,2.104c1.036-0.233,2.305-0.433,3.775-0.433h31.832C41.751,19.972,43.654,20.405,44.925,20.807
		L44.925,20.807z"/>
</g>
</svg>
