<?xml version="1.0" encoding="utf-8"?>
<!-- Generator: Adobe Illustrator 15.0.0, SVG Export Plug-In . SVG Version: 6.00 Build 0)  -->
<!DOCTYPE svg PUBLIC "-//W3C//DTD SVG 1.1//EN" "http://www.w3.org/Graphics/SVG/1.1/DTD/svg11.dtd">
<svg version="1.1" id="Layer_1" xmlns="http://www.w3.org/2000/svg" xmlns:xlink="http://www.w3.org/1999/xlink" x="0px" y="0px"
	 width="300px" height="300px" viewBox="0 0 300 300" enable-background="new 0 0 300 300" xml:space="preserve">
<path fill="#FFFFFF" d="M255.75,154.053L151.441,61.34L40.752,154.053v122.061c0,0-0.221,6.714,6.284,6.714
	c8.17,0,75.583-0.098,75.583-0.098l1.597-0.005v-69.056h49.601v68.894h73.959c8.351,0,7.976-8.35,7.976-8.35V154.053z"/>
<path fill="#FFFFFF" d="M152.357,17.173L0,151.387c0,0,9.376,17.339,29.906,0L152.357,47.786l114.877,102.949
	c23.732,17.118,32.61,0,32.61,0L152.357,17.173z"/>
<polygon fill="#FFFFFF" points="264.406,108.304 264.406,47.508 234.889,47.508 234.985,83.337 "/>
</svg>
