<?xml version="1.0" encoding="utf-8"?>
<!-- Generator: Adobe Illustrator 15.0.0, SVG Export Plug-In . SVG Version: 6.00 Build 0)  -->
<!DOCTYPE svg PUBLIC "-//W3C//DTD SVG 1.1//EN" "http://www.w3.org/Graphics/SVG/1.1/DTD/svg11.dtd">
<svg version="1.1" id="Layer_1" xmlns="http://www.w3.org/2000/svg" xmlns:xlink="http://www.w3.org/1999/xlink" x="0px" y="0px"
	 width="50px" height="50px" viewBox="0 0 50 50" enable-background="new 0 0 50 50" xml:space="preserve">
<path fill="#FFFFFF" d="M25.116,44.156c-2.414,0.002-4.767-0.404-6.884-1.188C11,40.29,4.468,32.212,6.607,22.516
	c0.942-4.27,3.286-8.23,6.599-11.156c4.316-3.809,9.82-5.811,15.108-5.48c5.727,0.354,11.114,3.629,13.726,8.342
	c2.806,5.064,2.217,11.762-1.4,15.923c-1.792,2.061-5.058,4.048-8.359,2.88c-1.187-0.421-2.124-1.359-2.71-2.713
	c-0.082-0.188-0.156-0.384-0.222-0.583c-0.511,0.751-1.169,1.526-2.052,2.295c-3.187,2.774-8.415,3.807-11.306,0.632
	c-1.713-1.877-2.075-4.821-0.994-8.076c1.396-4.199,4.467-7.602,8.215-9.102c1.507-0.603,3.753-1.133,5.904-0.237
	c1.988,0.829,3.658,3.12,3.012,5.522c-0.174,0.65-0.846,1.035-1.493,0.86c-0.649-0.176-1.035-0.845-0.86-1.493
	c0.281-1.047-0.615-2.23-1.596-2.639c-1.465-0.611-3.174-0.104-4.061,0.249c-3.09,1.237-5.635,4.081-6.807,7.607
	c-0.294,0.884-1.127,3.903,0.481,5.667c1.813,1.988,5.621,1.159,7.904-0.828c1.822-1.59,2.4-3.076,3.014-4.65
	c0.295-0.762,0.602-1.549,1.051-2.306c0.328-0.554,1.031-0.757,1.604-0.464c0.574,0.294,0.82,0.982,0.562,1.572
	c-0.687,1.571-0.734,3.582-0.118,5.004c0.217,0.5,0.616,1.145,1.289,1.383c2.008,0.713,4.314-0.582,5.704-2.18
	c2.969-3.416,3.435-8.942,1.108-13.143c-2.219-4.003-6.828-6.787-11.744-7.091c-4.651-0.279-9.509,1.491-13.344,4.876
	c-2.929,2.586-5,6.085-5.832,9.854c-1.842,8.35,3.824,15.32,10.092,17.642c5.987,2.218,16.699,1.269,21.77-7.78
	c0.329-0.589,1.072-0.796,1.658-0.468c0.588,0.329,0.797,1.071,0.467,1.658C39.114,40.983,31.876,44.156,25.116,44.156z"/>
</svg>
