<?xml version="1.0" encoding="utf-8"?>
<!-- Generator: Adobe Illustrator 15.0.0, SVG Export Plug-In . SVG Version: 6.00 Build 0)  -->
<!DOCTYPE svg PUBLIC "-//W3C//DTD SVG 1.1//EN" "http://www.w3.org/Graphics/SVG/1.1/DTD/svg11.dtd">
<svg version="1.1" id="Layer_1" xmlns="http://www.w3.org/2000/svg" xmlns:xlink="http://www.w3.org/1999/xlink" x="0px" y="0px"
	 width="50px" height="50px" viewBox="0 0 50 50" enable-background="new 0 0 50 50" xml:space="preserve">
<path fill="#FFFFFF" d="M7.074,13.965c0.199,5.171,3.686,10.171,6.634,14.208c2.686,3.676,5.833,7.02,9.374,9.883
	c2.248,1.816,4.655,3.458,7.217,4.801c1.557,0.815,2.6,1.318,4.41,0.805c2.778-0.789,9.17-4.066,8.098-7.654
	c-0.545-1.82-2.761-3.603-4.162-4.756c-1.693-1.393-4.664-3.846-6.646-1.556c-1.187,1.144-2.417,3.765-4.278,3.945
	c-1.994,0.194-3.768-2.117-5.011-3.383c-2.036-2.073-3.88-4.335-5.52-6.734c-1.537-2.508,0.384-3.543,2.247-4.906
	c0.853-0.624,1.937-1.213,2.353-2.238c0.775-1.913-1.048-4.279-2.097-5.753c-0.986-1.386-2.134-2.659-3.396-3.799
	c-1.653-1.492-3.476-0.306-4.861,0.881C9.515,9.354,7.908,11.563,7.074,13.965z"/>
</svg>
