<?xml version="1.0" encoding="utf-8"?>
<!-- Generator: Adobe Illustrator 15.0.0, SVG Export Plug-In . SVG Version: 6.00 Build 0)  -->
<!DOCTYPE svg PUBLIC "-//W3C//DTD SVG 1.1//EN" "http://www.w3.org/Graphics/SVG/1.1/DTD/svg11.dtd">
<svg version="1.1" id="Layer_1" xmlns="http://www.w3.org/2000/svg" xmlns:xlink="http://www.w3.org/1999/xlink" x="0px" y="0px"
	 width="50px" height="50px" viewBox="0 0 50 50" enable-background="new 0 0 50 50" xml:space="preserve">
<g>
	<path fill-rule="evenodd" clip-rule="evenodd" fill="#FFFFFF" d="M3.787,37.957c-0.198,0-0.579,0-0.579-0.364
		c-0.198,0-0.38-0.185-0.38-0.58V5.709c0-0.183,0.183-0.365,0.38-0.579c0-0.182,0.38-0.365,0.579-0.365h42.625
		c0.183,0,0.366,0.183,0.578,0.365c0.184,0.214,0.184,0.396,0.184,0.579v31.304c0,0.396,0,0.58-0.184,0.58
		c-0.212,0.364-0.396,0.364-0.578,0.364H3.787z M40.282,42.159L40.282,42.159H29.396c0,0.578-0.578,1.158-1.143,1.158h-6.303
		c-0.579,0-0.959-0.58-0.959-1.158H9.892c-0.761,0-1.523,0.763-1.523,1.521c0,0.977,0.762,1.554,1.523,1.554h30.39
		c0.952,0,1.744-0.577,1.744-1.554C42.026,42.922,41.234,42.159,40.282,42.159L40.282,42.159z M14.49,41.216L14.49,41.216
		c-0.198,0-0.579,0-0.579-0.182c-0.182,0-0.182,0-0.182-0.185v-2.313c0,0,0,0,0.182-0.185c0,0,0.381,0,0.579,0h21.591
		c0.182,0,0.38,0,0.577,0c0.184,0.185,0.184,0.185,0.184,0.185v2.313c0,0.185,0,0.185-0.184,0.185
		c-0.197,0.182-0.396,0.182-0.577,0.182H14.49z M36.081,40.85L36.081,40.85v-0.211V40.85z M15.252,40.639L15.252,40.639h20.067
		v-1.706H15.252V40.639z M46.411,37.013L46.411,37.013v-0.762V37.013z M4.548,36.251L4.548,36.251h40.889V6.684H4.548V36.251z"/>
</g>
</svg>
