<?xml version="1.0" encoding="utf-8"?>
<!-- Generator: Adobe Illustrator 15.0.0, SVG Export Plug-In . SVG Version: 6.00 Build 0)  -->
<!DOCTYPE svg PUBLIC "-//W3C//DTD SVG 1.1//EN" "http://www.w3.org/Graphics/SVG/1.1/DTD/svg11.dtd">
<svg version="1.1" id="Layer_1" xmlns="http://www.w3.org/2000/svg" xmlns:xlink="http://www.w3.org/1999/xlink" x="0px" y="0px"
	 width="50px" height="50px" viewBox="0 0 50 50" enable-background="new 0 0 50 50" xml:space="preserve">
<path fill-rule="evenodd" clip-rule="evenodd" fill="#FFFFFF" d="M46.3,17.711c-11.699-11.82-30.779-11.82-42.62,0
	c-0.628,0.628-1.155,1.136-1.642,1.906l3.164,3.184c0.527-0.649,1.033-1.278,1.662-1.907c10.057-9.915,26.217-9.915,36.273,0
	c0.628,0.628,1.136,1.258,1.641,1.785l3.185-3.183C47.455,18.847,46.947,18.339,46.3,17.711L46.3,17.711z M22.637,35.878
	c-1.276,1.155-1.276,3.183,0,4.317c1.156,1.278,3.062,1.278,4.338,0c1.136-1.135,1.136-3.162,0-4.317
	C25.699,34.6,23.793,34.6,22.637,35.878L22.637,35.878z M16.535,30.545c-0.648,0.629-1.135,1.277-1.663,2.028l3.447,3.183
	c0.386-0.629,0.75-1.399,1.398-2.027c2.919-2.94,7.766-2.94,10.564,0c0.628,0.628,1.136,1.257,1.398,2.027l3.427-3.305
	c-0.507-0.771-1.015-1.277-1.521-1.906C28.74,25.841,21.239,25.841,16.535,30.545L16.535,30.545z M9.804,23.813
	c-0.649,0.628-1.156,1.258-1.663,1.905l3.548,3.549c0.527-0.629,1.034-1.277,1.663-1.905c6.366-6.468,16.93-6.468,23.418,0
	c0.506,0.507,1.013,1.155,1.521,1.784l3.567-3.548c-0.527-0.649-1.013-1.157-1.521-1.785C31.802,15.42,18.198,15.42,9.804,23.813
	L9.804,23.813z"/>
</svg>
